<?xml version="1.0" encoding="utf-8" standalone="no"?>
<!DOCTYPE svg PUBLIC "-//W3C//DTD SVG 1.1//EN"
  "http://www.w3.org/Graphics/SVG/1.1/DTD/svg11.dtd">
<!-- Created with matplotlib (http://matplotlib.org/) -->
<svg height="482pt" version="1.1" viewBox="0 0 733 482" width="733pt" xmlns="http://www.w3.org/2000/svg" xmlns:xlink="http://www.w3.org/1999/xlink">
 <defs>
  <style type="text/css">
*{stroke-linecap:butt;stroke-linejoin:round;}
  </style>
 </defs>
 <g id="figure_1">
  <g id="patch_1">
   <path d="M 0 482.785392 
L 733.053847 482.785392 
L 733.053847 -0 
L 0 -0 
z
" style="fill:#ffffff;"/>
  </g>
  <g id="axes_1">
   <g id="patch_2">
    <path d="M 224.0308 150.5996 
C 223.108191 150.5996 222.185616 150.610773 221.263277 150.633116 
C 220.340938 150.655459 219.418904 150.688971 218.497377 150.733644 
L 224.0308 264.878 
L 224.0308 150.5996 
z
" style="fill:#7fffd4;stroke:#000000;stroke-linejoin:miter;stroke-width:0.1;"/>
   </g>
   <g id="patch_3">
    <path d="M 218.497377 150.733644 
C 218.497377 150.733644 218.497377 150.733644 218.497377 150.733644 
L 224.0308 264.878 
L 218.497377 150.733644 
z
" style="fill:#7fffd4;fill-opacity:0.978261;stroke:#000000;stroke-linejoin:miter;stroke-width:0.1;"/>
   </g>
   <g id="patch_4">
    <path d="M 218.497377 150.733644 
C 218.497377 150.733644 218.497377 150.733644 218.497377 150.733644 
L 224.0308 264.878 
L 218.497377 150.733644 
z
" style="fill:#7fffd4;fill-opacity:0.956522;stroke:#000000;stroke-linejoin:miter;stroke-width:0.1;"/>
   </g>
   <g id="patch_5">
    <path d="M 218.497377 150.733644 
C 218.497377 150.733644 218.497377 150.733644 218.497377 150.733644 
L 224.0308 264.878 
L 218.497377 150.733644 
z
" style="fill:#7fffd4;fill-opacity:0.934783;stroke:#000000;stroke-linejoin:miter;stroke-width:0.1;"/>
   </g>
   <g id="patch_6">
    <path d="M 218.497377 150.733644 
C 218.497377 150.733644 218.497377 150.733644 218.497377 150.733644 
L 224.0308 264.878 
L 218.497377 150.733644 
z
" style="fill:#7fffd4;fill-opacity:0.913043;stroke:#000000;stroke-linejoin:miter;stroke-width:0.1;"/>
   </g>
   <g id="patch_7">
    <path d="M 218.497377 150.733644 
C 218.497377 150.733644 218.497377 150.733644 218.497377 150.733644 
L 224.0308 264.878 
L 218.497377 150.733644 
z
" style="fill:#7fffd4;fill-opacity:0.891304;stroke:#000000;stroke-linejoin:miter;stroke-width:0.1;"/>
   </g>
   <g id="patch_8">
    <path d="M 218.497377 150.733644 
C 218.497377 150.733644 218.497377 150.733644 218.497377 150.733644 
L 224.0308 264.878 
L 218.497377 150.733644 
z
" style="fill:#7fffd4;fill-opacity:0.869565;stroke:#000000;stroke-linejoin:miter;stroke-width:0.1;"/>
   </g>
   <g id="patch_9">
    <path d="M 218.497377 150.733644 
C 218.497377 150.733644 218.497377 150.733644 218.497377 150.733644 
L 224.0308 264.878 
L 218.497377 150.733644 
z
" style="fill:#7fffd4;fill-opacity:0.847826;stroke:#000000;stroke-linejoin:miter;stroke-width:0.1;"/>
   </g>
   <g id="patch_10">
    <path d="M 218.497377 150.733644 
C 218.497377 150.733644 218.497377 150.733644 218.497377 150.733644 
L 224.0308 264.878 
L 218.497377 150.733644 
z
" style="fill:#7fffd4;fill-opacity:0.826087;stroke:#000000;stroke-linejoin:miter;stroke-width:0.1;"/>
   </g>
   <g id="patch_11">
    <path d="M 218.497377 150.733644 
C 218.497377 150.733644 218.497377 150.733644 218.497377 150.733644 
L 224.0308 264.878 
L 218.497377 150.733644 
z
" style="fill:#7fffd4;fill-opacity:0.804348;stroke:#000000;stroke-linejoin:miter;stroke-width:0.1;"/>
   </g>
   <g id="patch_12">
    <path d="M 218.497377 150.733644 
C 218.497377 150.733644 218.497377 150.733644 218.497377 150.733644 
L 224.0308 264.878 
L 218.497377 150.733644 
z
" style="fill:#7fffd4;fill-opacity:0.782609;stroke:#000000;stroke-linejoin:miter;stroke-width:0.1;"/>
   </g>
   <g id="patch_13">
    <path d="M 218.497377 150.733644 
C 218.497377 150.733644 218.497377 150.733644 218.497377 150.733644 
L 224.0308 264.878 
L 218.497377 150.733644 
z
" style="fill:#7fffd4;fill-opacity:0.76087;stroke:#000000;stroke-linejoin:miter;stroke-width:0.1;"/>
   </g>
   <g id="patch_14">
    <path d="M 218.497377 150.733644 
C 218.497377 150.733644 218.497377 150.733644 218.497377 150.733644 
L 224.0308 264.878 
L 218.497377 150.733644 
z
" style="fill:#7fffd4;fill-opacity:0.73913;stroke:#000000;stroke-linejoin:miter;stroke-width:0.1;"/>
   </g>
   <g id="patch_15">
    <path d="M 218.497377 150.733644 
C 218.497377 150.733644 218.497377 150.733644 218.497377 150.733644 
L 224.0308 264.878 
L 218.497377 150.733644 
z
" style="fill:#7fffd4;fill-opacity:0.717391;stroke:#000000;stroke-linejoin:miter;stroke-width:0.1;"/>
   </g>
   <g id="patch_16">
    <path d="M 218.497377 150.733644 
C 218.497377 150.733644 218.497377 150.733644 218.497377 150.733644 
L 224.0308 264.878 
L 218.497377 150.733644 
z
" style="fill:#7fffd4;fill-opacity:0.695652;stroke:#000000;stroke-linejoin:miter;stroke-width:0.1;"/>
   </g>
   <g id="patch_17">
    <path d="M 218.497377 150.733644 
C 218.497377 150.733644 218.497377 150.733644 218.497377 150.733644 
L 224.0308 264.878 
L 218.497377 150.733644 
z
" style="fill:#7fffd4;fill-opacity:0.673913;stroke:#000000;stroke-linejoin:miter;stroke-width:0.1;"/>
   </g>
   <g id="patch_18">
    <path d="M 218.497377 150.733644 
C 218.497377 150.733644 218.497377 150.733644 218.497377 150.733644 
L 224.0308 264.878 
L 218.497377 150.733644 
z
" style="fill:#7fffd4;fill-opacity:0.652174;stroke:#000000;stroke-linejoin:miter;stroke-width:0.1;"/>
   </g>
   <g id="patch_19">
    <path d="M 218.497377 150.733644 
C 218.497377 150.733644 218.497377 150.733644 218.497377 150.733644 
L 224.0308 264.878 
L 218.497377 150.733644 
z
" style="fill:#7fffd4;fill-opacity:0.630435;stroke:#000000;stroke-linejoin:miter;stroke-width:0.1;"/>
   </g>
   <g id="patch_20">
    <path d="M 218.497377 150.733644 
C 218.497377 150.733644 218.497377 150.733644 218.497377 150.733644 
L 224.0308 264.878 
L 218.497377 150.733644 
z
" style="fill:#7fffd4;fill-opacity:0.608696;stroke:#000000;stroke-linejoin:miter;stroke-width:0.1;"/>
   </g>
   <g id="patch_21">
    <path d="M 218.497377 150.733644 
C 218.497377 150.733644 218.497377 150.733644 218.497377 150.733644 
L 224.0308 264.878 
L 218.497377 150.733644 
z
" style="fill:#7fffd4;fill-opacity:0.586957;stroke:#000000;stroke-linejoin:miter;stroke-width:0.1;"/>
   </g>
   <g id="patch_22">
    <path d="M 218.497377 150.733644 
C 218.497377 150.733644 218.497377 150.733644 218.497377 150.733644 
L 224.0308 264.878 
L 218.497377 150.733644 
z
" style="fill:#7fffd4;fill-opacity:0.565217;stroke:#000000;stroke-linejoin:miter;stroke-width:0.1;"/>
   </g>
   <g id="patch_23">
    <path d="M 218.497377 150.733644 
C 218.497377 150.733644 218.497377 150.733644 218.497377 150.733644 
L 224.0308 264.878 
L 218.497377 150.733644 
z
" style="fill:#7fffd4;fill-opacity:0.543478;stroke:#000000;stroke-linejoin:miter;stroke-width:0.1;"/>
   </g>
   <g id="patch_24">
    <path d="M 218.497377 150.733644 
C 218.497377 150.733644 218.497377 150.733644 218.497377 150.733644 
L 224.0308 264.878 
L 218.497377 150.733644 
z
" style="fill:#7fffd4;fill-opacity:0.521739;stroke:#000000;stroke-linejoin:miter;stroke-width:0.1;"/>
   </g>
   <g id="patch_25">
    <path d="M 218.497377 150.733644 
C 217.302552 150.791566 216.108711 150.868245 214.916294 150.963653 
C 213.723878 151.05906 212.533032 151.173185 211.344199 151.305984 
L 224.0308 264.878 
L 218.497377 150.733644 
z
" style="fill:#ff1493;stroke:#000000;stroke-linejoin:miter;stroke-width:0.1;"/>
   </g>
   <g id="patch_26">
    <path d="M 211.344199 151.305984 
C 211.344199 151.305984 211.344199 151.305984 211.344199 151.305984 
L 224.0308 264.878 
L 211.344199 151.305984 
z
" style="fill:#ff1493;fill-opacity:0.978261;stroke:#000000;stroke-linejoin:miter;stroke-width:0.1;"/>
   </g>
   <g id="patch_27">
    <path d="M 211.344199 151.305984 
C 211.344199 151.305984 211.344199 151.305984 211.344199 151.305984 
L 224.0308 264.878 
L 211.344199 151.305984 
z
" style="fill:#ff1493;fill-opacity:0.956522;stroke:#000000;stroke-linejoin:miter;stroke-width:0.1;"/>
   </g>
   <g id="patch_28">
    <path d="M 211.344199 151.305984 
C 211.344199 151.305984 211.344199 151.305984 211.344199 151.305984 
L 224.0308 264.878 
L 211.344199 151.305984 
z
" style="fill:#ff1493;fill-opacity:0.934783;stroke:#000000;stroke-linejoin:miter;stroke-width:0.1;"/>
   </g>
   <g id="patch_29">
    <path d="M 211.344199 151.305984 
C 211.344199 151.305984 211.344199 151.305984 211.344199 151.305984 
L 224.0308 264.878 
L 211.344199 151.305984 
z
" style="fill:#ff1493;fill-opacity:0.913043;stroke:#000000;stroke-linejoin:miter;stroke-width:0.1;"/>
   </g>
   <g id="patch_30">
    <path d="M 211.344199 151.305984 
C 211.344199 151.305984 211.344199 151.305984 211.344199 151.305984 
L 224.0308 264.878 
L 211.344199 151.305984 
z
" style="fill:#ff1493;fill-opacity:0.891304;stroke:#000000;stroke-linejoin:miter;stroke-width:0.1;"/>
   </g>
   <g id="patch_31">
    <path d="M 211.344199 151.305984 
C 211.344199 151.305984 211.344199 151.305984 211.344199 151.305984 
L 224.0308 264.878 
L 211.344199 151.305984 
z
" style="fill:#ff1493;fill-opacity:0.869565;stroke:#000000;stroke-linejoin:miter;stroke-width:0.1;"/>
   </g>
   <g id="patch_32">
    <path d="M 211.344199 151.305984 
C 211.344199 151.305984 211.344199 151.305984 211.344199 151.305984 
L 224.0308 264.878 
L 211.344199 151.305984 
z
" style="fill:#ff1493;fill-opacity:0.847826;stroke:#000000;stroke-linejoin:miter;stroke-width:0.1;"/>
   </g>
   <g id="patch_33">
    <path d="M 211.344199 151.305984 
C 211.344199 151.305984 211.344199 151.305984 211.344199 151.305984 
L 224.0308 264.878 
L 211.344199 151.305984 
z
" style="fill:#ff1493;fill-opacity:0.826087;stroke:#000000;stroke-linejoin:miter;stroke-width:0.1;"/>
   </g>
   <g id="patch_34">
    <path d="M 211.344199 151.305984 
C 211.344199 151.305984 211.344199 151.305984 211.344199 151.305984 
L 224.0308 264.878 
L 211.344199 151.305984 
z
" style="fill:#ff1493;fill-opacity:0.804348;stroke:#000000;stroke-linejoin:miter;stroke-width:0.1;"/>
   </g>
   <g id="patch_35">
    <path d="M 211.344199 151.305984 
C 211.344199 151.305984 211.344199 151.305984 211.344199 151.305984 
L 224.0308 264.878 
L 211.344199 151.305984 
z
" style="fill:#ff1493;fill-opacity:0.782609;stroke:#000000;stroke-linejoin:miter;stroke-width:0.1;"/>
   </g>
   <g id="patch_36">
    <path d="M 211.344199 151.305984 
C 211.344199 151.305984 211.344199 151.305984 211.344199 151.305984 
L 224.0308 264.878 
L 211.344199 151.305984 
z
" style="fill:#ff1493;fill-opacity:0.76087;stroke:#000000;stroke-linejoin:miter;stroke-width:0.1;"/>
   </g>
   <g id="patch_37">
    <path d="M 211.344199 151.305984 
C 211.344199 151.305984 211.344199 151.305984 211.344199 151.305984 
L 224.0308 264.878 
L 211.344199 151.305984 
z
" style="fill:#ff1493;fill-opacity:0.73913;stroke:#000000;stroke-linejoin:miter;stroke-width:0.1;"/>
   </g>
   <g id="patch_38">
    <path d="M 211.344199 151.305984 
C 211.344199 151.305984 211.344199 151.305984 211.344199 151.305984 
L 224.0308 264.878 
L 211.344199 151.305984 
z
" style="fill:#ff1493;fill-opacity:0.717391;stroke:#000000;stroke-linejoin:miter;stroke-width:0.1;"/>
   </g>
   <g id="patch_39">
    <path d="M 211.344199 151.305984 
C 211.344199 151.305984 211.344199 151.305984 211.344199 151.305984 
L 224.0308 264.878 
L 211.344199 151.305984 
z
" style="fill:#ff1493;fill-opacity:0.695652;stroke:#000000;stroke-linejoin:miter;stroke-width:0.1;"/>
   </g>
   <g id="patch_40">
    <path d="M 211.344199 151.305984 
C 211.344199 151.305984 211.344199 151.305984 211.344199 151.305984 
L 224.0308 264.878 
L 211.344199 151.305984 
z
" style="fill:#ff1493;fill-opacity:0.673913;stroke:#000000;stroke-linejoin:miter;stroke-width:0.1;"/>
   </g>
   <g id="patch_41">
    <path d="M 211.344199 151.305984 
C 211.344199 151.305984 211.344199 151.305984 211.344199 151.305984 
L 224.0308 264.878 
L 211.344199 151.305984 
z
" style="fill:#ff1493;fill-opacity:0.652174;stroke:#000000;stroke-linejoin:miter;stroke-width:0.1;"/>
   </g>
   <g id="patch_42">
    <path d="M 211.344199 151.305984 
C 211.344199 151.305984 211.344199 151.305984 211.344199 151.305984 
L 224.0308 264.878 
L 211.344199 151.305984 
z
" style="fill:#ff1493;fill-opacity:0.630435;stroke:#000000;stroke-linejoin:miter;stroke-width:0.1;"/>
   </g>
   <g id="patch_43">
    <path d="M 211.344199 151.305984 
C 211.344199 151.305984 211.344199 151.305984 211.344199 151.305984 
L 224.0308 264.878 
L 211.344199 151.305984 
z
" style="fill:#ff1493;fill-opacity:0.608696;stroke:#000000;stroke-linejoin:miter;stroke-width:0.1;"/>
   </g>
   <g id="patch_44">
    <path d="M 211.344199 151.305984 
C 211.344199 151.305984 211.344199 151.305984 211.344199 151.305984 
L 224.0308 264.878 
L 211.344199 151.305984 
z
" style="fill:#ff1493;fill-opacity:0.586957;stroke:#000000;stroke-linejoin:miter;stroke-width:0.1;"/>
   </g>
   <g id="patch_45">
    <path d="M 211.344199 151.305984 
C 211.344199 151.305984 211.344199 151.305984 211.344199 151.305984 
L 224.0308 264.878 
L 211.344199 151.305984 
z
" style="fill:#ff1493;fill-opacity:0.565217;stroke:#000000;stroke-linejoin:miter;stroke-width:0.1;"/>
   </g>
   <g id="patch_46">
    <path d="M 211.344199 151.305984 
C 211.344199 151.305984 211.344199 151.305984 211.344199 151.305984 
L 224.0308 264.878 
L 211.344199 151.305984 
z
" style="fill:#ff1493;fill-opacity:0.543478;stroke:#000000;stroke-linejoin:miter;stroke-width:0.1;"/>
   </g>
   <g id="patch_47">
    <path d="M 211.344199 151.305984 
C 211.344199 151.305984 211.344199 151.305984 211.344199 151.305984 
L 224.0308 264.878 
L 211.344199 151.305984 
z
" style="fill:#ff1493;fill-opacity:0.521739;stroke:#000000;stroke-linejoin:miter;stroke-width:0.1;"/>
   </g>
   <g id="patch_48">
    <path d="M 211.344199 151.305984 
C 210.104984 151.444411 208.868118 151.603111 207.634097 151.782019 
C 206.400076 151.960928 205.169066 152.160022 203.941561 152.379221 
L 224.0308 264.878 
L 211.344199 151.305984 
z
" style="fill:#00bfff;stroke:#000000;stroke-linejoin:miter;stroke-width:0.1;"/>
   </g>
   <g id="patch_49">
    <path d="M 203.941561 152.379221 
C 203.941561 152.379221 203.941561 152.379221 203.941561 152.379221 
L 224.0308 264.878 
L 203.941561 152.379221 
z
" style="fill:#00bfff;fill-opacity:0.978261;stroke:#000000;stroke-linejoin:miter;stroke-width:0.1;"/>
   </g>
   <g id="patch_50">
    <path d="M 203.941561 152.379221 
C 203.941561 152.379221 203.941561 152.379221 203.941561 152.379221 
L 224.0308 264.878 
L 203.941561 152.379221 
z
" style="fill:#00bfff;fill-opacity:0.956522;stroke:#000000;stroke-linejoin:miter;stroke-width:0.1;"/>
   </g>
   <g id="patch_51">
    <path d="M 203.941561 152.379221 
C 203.941561 152.379221 203.941561 152.379221 203.941561 152.379221 
L 224.0308 264.878 
L 203.941561 152.379221 
z
" style="fill:#00bfff;fill-opacity:0.934783;stroke:#000000;stroke-linejoin:miter;stroke-width:0.1;"/>
   </g>
   <g id="patch_52">
    <path d="M 203.941561 152.379221 
C 203.941561 152.379221 203.941561 152.379221 203.941561 152.379221 
L 224.0308 264.878 
L 203.941561 152.379221 
z
" style="fill:#00bfff;fill-opacity:0.913043;stroke:#000000;stroke-linejoin:miter;stroke-width:0.1;"/>
   </g>
   <g id="patch_53">
    <path d="M 203.941561 152.379221 
C 203.941561 152.379221 203.941561 152.379221 203.941561 152.379221 
L 224.0308 264.878 
L 203.941561 152.379221 
z
" style="fill:#00bfff;fill-opacity:0.891304;stroke:#000000;stroke-linejoin:miter;stroke-width:0.1;"/>
   </g>
   <g id="patch_54">
    <path d="M 203.941561 152.379221 
C 203.941561 152.379221 203.941561 152.379221 203.941561 152.379221 
L 224.0308 264.878 
L 203.941561 152.379221 
z
" style="fill:#00bfff;fill-opacity:0.869565;stroke:#000000;stroke-linejoin:miter;stroke-width:0.1;"/>
   </g>
   <g id="patch_55">
    <path d="M 203.941561 152.379221 
C 203.941561 152.379221 203.941561 152.379221 203.941561 152.379221 
L 224.0308 264.878 
L 203.941561 152.379221 
z
" style="fill:#00bfff;fill-opacity:0.847826;stroke:#000000;stroke-linejoin:miter;stroke-width:0.1;"/>
   </g>
   <g id="patch_56">
    <path d="M 203.941561 152.379221 
C 203.941561 152.379221 203.941561 152.379221 203.941561 152.379221 
L 224.0308 264.878 
L 203.941561 152.379221 
z
" style="fill:#00bfff;fill-opacity:0.826087;stroke:#000000;stroke-linejoin:miter;stroke-width:0.1;"/>
   </g>
   <g id="patch_57">
    <path d="M 203.941561 152.379221 
C 203.941561 152.379221 203.941561 152.379221 203.941561 152.379221 
L 224.0308 264.878 
L 203.941561 152.379221 
z
" style="fill:#00bfff;fill-opacity:0.804348;stroke:#000000;stroke-linejoin:miter;stroke-width:0.1;"/>
   </g>
   <g id="patch_58">
    <path d="M 203.941561 152.379221 
C 203.941561 152.379221 203.941561 152.379221 203.941561 152.379221 
L 224.0308 264.878 
L 203.941561 152.379221 
z
" style="fill:#00bfff;fill-opacity:0.782609;stroke:#000000;stroke-linejoin:miter;stroke-width:0.1;"/>
   </g>
   <g id="patch_59">
    <path d="M 203.941561 152.379221 
C 203.941561 152.379221 203.941561 152.379221 203.941561 152.379221 
L 224.0308 264.878 
L 203.941561 152.379221 
z
" style="fill:#00bfff;fill-opacity:0.76087;stroke:#000000;stroke-linejoin:miter;stroke-width:0.1;"/>
   </g>
   <g id="patch_60">
    <path d="M 203.941561 152.379221 
C 203.941561 152.379221 203.941561 152.379221 203.941561 152.379221 
L 224.0308 264.878 
L 203.941561 152.379221 
z
" style="fill:#00bfff;fill-opacity:0.73913;stroke:#000000;stroke-linejoin:miter;stroke-width:0.1;"/>
   </g>
   <g id="patch_61">
    <path d="M 203.941561 152.379221 
C 203.941561 152.379221 203.941561 152.379221 203.941561 152.379221 
L 224.0308 264.878 
L 203.941561 152.379221 
z
" style="fill:#00bfff;fill-opacity:0.717391;stroke:#000000;stroke-linejoin:miter;stroke-width:0.1;"/>
   </g>
   <g id="patch_62">
    <path d="M 203.941561 152.379221 
C 203.941561 152.379221 203.941561 152.379221 203.941561 152.379221 
L 224.0308 264.878 
L 203.941561 152.379221 
z
" style="fill:#00bfff;fill-opacity:0.695652;stroke:#000000;stroke-linejoin:miter;stroke-width:0.1;"/>
   </g>
   <g id="patch_63">
    <path d="M 203.941561 152.379221 
C 203.941561 152.379221 203.941561 152.379221 203.941561 152.379221 
L 224.0308 264.878 
L 203.941561 152.379221 
z
" style="fill:#00bfff;fill-opacity:0.673913;stroke:#000000;stroke-linejoin:miter;stroke-width:0.1;"/>
   </g>
   <g id="patch_64">
    <path d="M 203.941561 152.379221 
C 203.941561 152.379221 203.941561 152.379221 203.941561 152.379221 
L 224.0308 264.878 
L 203.941561 152.379221 
z
" style="fill:#00bfff;fill-opacity:0.652174;stroke:#000000;stroke-linejoin:miter;stroke-width:0.1;"/>
   </g>
   <g id="patch_65">
    <path d="M 203.941561 152.379221 
C 203.941561 152.379221 203.941561 152.379221 203.941561 152.379221 
L 224.0308 264.878 
L 203.941561 152.379221 
z
" style="fill:#00bfff;fill-opacity:0.630435;stroke:#000000;stroke-linejoin:miter;stroke-width:0.1;"/>
   </g>
   <g id="patch_66">
    <path d="M 203.941561 152.379221 
C 203.941561 152.379221 203.941561 152.379221 203.941561 152.379221 
L 224.0308 264.878 
L 203.941561 152.379221 
z
" style="fill:#00bfff;fill-opacity:0.608696;stroke:#000000;stroke-linejoin:miter;stroke-width:0.1;"/>
   </g>
   <g id="patch_67">
    <path d="M 203.941561 152.379221 
C 203.941561 152.379221 203.941561 152.379221 203.941561 152.379221 
L 224.0308 264.878 
L 203.941561 152.379221 
z
" style="fill:#00bfff;fill-opacity:0.586957;stroke:#000000;stroke-linejoin:miter;stroke-width:0.1;"/>
   </g>
   <g id="patch_68">
    <path d="M 203.941561 152.379221 
C 203.941561 152.379221 203.941561 152.379221 203.941561 152.379221 
L 224.0308 264.878 
L 203.941561 152.379221 
z
" style="fill:#00bfff;fill-opacity:0.565217;stroke:#000000;stroke-linejoin:miter;stroke-width:0.1;"/>
   </g>
   <g id="patch_69">
    <path d="M 203.941561 152.379221 
C 203.941561 152.379221 203.941561 152.379221 203.941561 152.379221 
L 224.0308 264.878 
L 203.941561 152.379221 
z
" style="fill:#00bfff;fill-opacity:0.543478;stroke:#000000;stroke-linejoin:miter;stroke-width:0.1;"/>
   </g>
   <g id="patch_70">
    <path d="M 203.941561 152.379221 
C 203.941561 152.379221 203.941561 152.379221 203.941561 152.379221 
L 224.0308 264.878 
L 203.941561 152.379221 
z
" style="fill:#00bfff;fill-opacity:0.521739;stroke:#000000;stroke-linejoin:miter;stroke-width:0.1;"/>
   </g>
   <g id="patch_71">
    <path d="M 203.941561 152.379221 
C 202.511485 152.634594 201.086409 152.917212 199.667109 153.226922 
C 198.247809 153.536631 196.834544 153.873375 195.428083 154.236971 
L 224.0308 264.878 
L 203.941561 152.379221 
z
" style="fill:#ff7f50;stroke:#000000;stroke-linejoin:miter;stroke-width:0.1;"/>
   </g>
   <g id="patch_72">
    <path d="M 195.428083 154.236971 
C 195.428083 154.236971 195.428083 154.236971 195.428083 154.236971 
L 224.0308 264.878 
L 195.428083 154.236971 
z
" style="fill:#ff7f50;fill-opacity:0.978261;stroke:#000000;stroke-linejoin:miter;stroke-width:0.1;"/>
   </g>
   <g id="patch_73">
    <path d="M 195.428083 154.236971 
C 195.428083 154.236971 195.428083 154.236971 195.428083 154.236971 
L 224.0308 264.878 
L 195.428083 154.236971 
z
" style="fill:#ff7f50;fill-opacity:0.956522;stroke:#000000;stroke-linejoin:miter;stroke-width:0.1;"/>
   </g>
   <g id="patch_74">
    <path d="M 195.428083 154.236971 
C 195.428083 154.236971 195.428083 154.236971 195.428083 154.236971 
L 224.0308 264.878 
L 195.428083 154.236971 
z
" style="fill:#ff7f50;fill-opacity:0.934783;stroke:#000000;stroke-linejoin:miter;stroke-width:0.1;"/>
   </g>
   <g id="patch_75">
    <path d="M 195.428083 154.236971 
C 195.428083 154.236971 195.428083 154.236971 195.428083 154.236971 
L 224.0308 264.878 
L 195.428083 154.236971 
z
" style="fill:#ff7f50;fill-opacity:0.913043;stroke:#000000;stroke-linejoin:miter;stroke-width:0.1;"/>
   </g>
   <g id="patch_76">
    <path d="M 195.428083 154.236971 
C 195.428083 154.236971 195.428083 154.236971 195.428083 154.236971 
L 224.0308 264.878 
L 195.428083 154.236971 
z
" style="fill:#ff7f50;fill-opacity:0.891304;stroke:#000000;stroke-linejoin:miter;stroke-width:0.1;"/>
   </g>
   <g id="patch_77">
    <path d="M 195.428083 154.236971 
C 195.428083 154.236971 195.428083 154.236971 195.428083 154.236971 
L 224.0308 264.878 
L 195.428083 154.236971 
z
" style="fill:#ff7f50;fill-opacity:0.869565;stroke:#000000;stroke-linejoin:miter;stroke-width:0.1;"/>
   </g>
   <g id="patch_78">
    <path d="M 195.428083 154.236971 
C 195.428083 154.236971 195.428083 154.236971 195.428083 154.236971 
L 224.0308 264.878 
L 195.428083 154.236971 
z
" style="fill:#ff7f50;fill-opacity:0.847826;stroke:#000000;stroke-linejoin:miter;stroke-width:0.1;"/>
   </g>
   <g id="patch_79">
    <path d="M 195.428083 154.236971 
C 195.428083 154.236971 195.428083 154.236971 195.428083 154.236971 
L 224.0308 264.878 
L 195.428083 154.236971 
z
" style="fill:#ff7f50;fill-opacity:0.826087;stroke:#000000;stroke-linejoin:miter;stroke-width:0.1;"/>
   </g>
   <g id="patch_80">
    <path d="M 195.428083 154.236971 
C 195.428083 154.236971 195.428083 154.236971 195.428083 154.236971 
L 224.0308 264.878 
L 195.428083 154.236971 
z
" style="fill:#ff7f50;fill-opacity:0.804348;stroke:#000000;stroke-linejoin:miter;stroke-width:0.1;"/>
   </g>
   <g id="patch_81">
    <path d="M 195.428083 154.236971 
C 195.428083 154.236971 195.428083 154.236971 195.428083 154.236971 
L 224.0308 264.878 
L 195.428083 154.236971 
z
" style="fill:#ff7f50;fill-opacity:0.782609;stroke:#000000;stroke-linejoin:miter;stroke-width:0.1;"/>
   </g>
   <g id="patch_82">
    <path d="M 195.428083 154.236971 
C 195.428083 154.236971 195.428083 154.236971 195.428083 154.236971 
L 224.0308 264.878 
L 195.428083 154.236971 
z
" style="fill:#ff7f50;fill-opacity:0.76087;stroke:#000000;stroke-linejoin:miter;stroke-width:0.1;"/>
   </g>
   <g id="patch_83">
    <path d="M 195.428083 154.236971 
C 195.428083 154.236971 195.428083 154.236971 195.428083 154.236971 
L 224.0308 264.878 
L 195.428083 154.236971 
z
" style="fill:#ff7f50;fill-opacity:0.73913;stroke:#000000;stroke-linejoin:miter;stroke-width:0.1;"/>
   </g>
   <g id="patch_84">
    <path d="M 195.428083 154.236971 
C 195.428083 154.236971 195.428083 154.236971 195.428083 154.236971 
L 224.0308 264.878 
L 195.428083 154.236971 
z
" style="fill:#ff7f50;fill-opacity:0.717391;stroke:#000000;stroke-linejoin:miter;stroke-width:0.1;"/>
   </g>
   <g id="patch_85">
    <path d="M 195.428083 154.236971 
C 195.428083 154.236971 195.428083 154.236971 195.428083 154.236971 
L 224.0308 264.878 
L 195.428083 154.236971 
z
" style="fill:#ff7f50;fill-opacity:0.695652;stroke:#000000;stroke-linejoin:miter;stroke-width:0.1;"/>
   </g>
   <g id="patch_86">
    <path d="M 195.428083 154.236971 
C 195.428083 154.236971 195.428083 154.236971 195.428083 154.236971 
L 224.0308 264.878 
L 195.428083 154.236971 
z
" style="fill:#ff7f50;fill-opacity:0.673913;stroke:#000000;stroke-linejoin:miter;stroke-width:0.1;"/>
   </g>
   <g id="patch_87">
    <path d="M 195.428083 154.236971 
C 195.428083 154.236971 195.428083 154.236971 195.428083 154.236971 
L 224.0308 264.878 
L 195.428083 154.236971 
z
" style="fill:#ff7f50;fill-opacity:0.652174;stroke:#000000;stroke-linejoin:miter;stroke-width:0.1;"/>
   </g>
   <g id="patch_88">
    <path d="M 195.428083 154.236971 
C 195.428083 154.236971 195.428083 154.236971 195.428083 154.236971 
L 224.0308 264.878 
L 195.428083 154.236971 
z
" style="fill:#ff7f50;fill-opacity:0.630435;stroke:#000000;stroke-linejoin:miter;stroke-width:0.1;"/>
   </g>
   <g id="patch_89">
    <path d="M 195.428083 154.236971 
C 195.428083 154.236971 195.428083 154.236971 195.428083 154.236971 
L 224.0308 264.878 
L 195.428083 154.236971 
z
" style="fill:#ff7f50;fill-opacity:0.608696;stroke:#000000;stroke-linejoin:miter;stroke-width:0.1;"/>
   </g>
   <g id="patch_90">
    <path d="M 195.428083 154.236971 
C 195.428083 154.236971 195.428083 154.236971 195.428083 154.236971 
L 224.0308 264.878 
L 195.428083 154.236971 
z
" style="fill:#ff7f50;fill-opacity:0.586957;stroke:#000000;stroke-linejoin:miter;stroke-width:0.1;"/>
   </g>
   <g id="patch_91">
    <path d="M 195.428083 154.236971 
C 195.428083 154.236971 195.428083 154.236971 195.428083 154.236971 
L 224.0308 264.878 
L 195.428083 154.236971 
z
" style="fill:#ff7f50;fill-opacity:0.565217;stroke:#000000;stroke-linejoin:miter;stroke-width:0.1;"/>
   </g>
   <g id="patch_92">
    <path d="M 195.428083 154.236971 
C 195.428083 154.236971 195.428083 154.236971 195.428083 154.236971 
L 224.0308 264.878 
L 195.428083 154.236971 
z
" style="fill:#ff7f50;fill-opacity:0.543478;stroke:#000000;stroke-linejoin:miter;stroke-width:0.1;"/>
   </g>
   <g id="patch_93">
    <path d="M 195.428083 154.236971 
C 195.428083 154.236971 195.428083 154.236971 195.428083 154.236971 
L 224.0308 264.878 
L 195.428083 154.236971 
z
" style="fill:#ff7f50;fill-opacity:0.521739;stroke:#000000;stroke-linejoin:miter;stroke-width:0.1;"/>
   </g>
   <g id="patch_94">
    <path d="M 195.428083 154.236971 
C 193.764013 154.667164 192.109859 155.134843 190.466885 155.639654 
C 188.823911 156.144464 187.192534 156.686276 185.574001 157.264677 
L 224.0308 264.878 
L 195.428083 154.236971 
z
" style="fill:#ffff00;stroke:#000000;stroke-linejoin:miter;stroke-width:0.1;"/>
   </g>
   <g id="patch_95">
    <path d="M 185.574001 157.264677 
C 185.574001 157.264677 185.574001 157.264677 185.574001 157.264677 
L 224.0308 264.878 
L 185.574001 157.264677 
z
" style="fill:#ffff00;fill-opacity:0.978261;stroke:#000000;stroke-linejoin:miter;stroke-width:0.1;"/>
   </g>
   <g id="patch_96">
    <path d="M 185.574001 157.264677 
C 185.574001 157.264677 185.574001 157.264677 185.574001 157.264677 
L 224.0308 264.878 
L 185.574001 157.264677 
z
" style="fill:#ffff00;fill-opacity:0.956522;stroke:#000000;stroke-linejoin:miter;stroke-width:0.1;"/>
   </g>
   <g id="patch_97">
    <path d="M 185.574001 157.264677 
C 185.574001 157.264677 185.574001 157.264677 185.574001 157.264677 
L 224.0308 264.878 
L 185.574001 157.264677 
z
" style="fill:#ffff00;fill-opacity:0.934783;stroke:#000000;stroke-linejoin:miter;stroke-width:0.1;"/>
   </g>
   <g id="patch_98">
    <path d="M 185.574001 157.264677 
C 185.574001 157.264677 185.574001 157.264677 185.574001 157.264677 
L 224.0308 264.878 
L 185.574001 157.264677 
z
" style="fill:#ffff00;fill-opacity:0.913043;stroke:#000000;stroke-linejoin:miter;stroke-width:0.1;"/>
   </g>
   <g id="patch_99">
    <path d="M 185.574001 157.264677 
C 185.574001 157.264677 185.574001 157.264677 185.574001 157.264677 
L 224.0308 264.878 
L 185.574001 157.264677 
z
" style="fill:#ffff00;fill-opacity:0.891304;stroke:#000000;stroke-linejoin:miter;stroke-width:0.1;"/>
   </g>
   <g id="patch_100">
    <path d="M 185.574001 157.264677 
C 185.574001 157.264677 185.574001 157.264677 185.574001 157.264677 
L 224.0308 264.878 
L 185.574001 157.264677 
z
" style="fill:#ffff00;fill-opacity:0.869565;stroke:#000000;stroke-linejoin:miter;stroke-width:0.1;"/>
   </g>
   <g id="patch_101">
    <path d="M 185.574001 157.264677 
C 185.574001 157.264677 185.574001 157.264677 185.574001 157.264677 
L 224.0308 264.878 
L 185.574001 157.264677 
z
" style="fill:#ffff00;fill-opacity:0.847826;stroke:#000000;stroke-linejoin:miter;stroke-width:0.1;"/>
   </g>
   <g id="patch_102">
    <path d="M 185.574001 157.264677 
C 185.574001 157.264677 185.574001 157.264677 185.574001 157.264677 
L 224.0308 264.878 
L 185.574001 157.264677 
z
" style="fill:#ffff00;fill-opacity:0.826087;stroke:#000000;stroke-linejoin:miter;stroke-width:0.1;"/>
   </g>
   <g id="patch_103">
    <path d="M 185.574001 157.264677 
C 185.574001 157.264677 185.574001 157.264677 185.574001 157.264677 
L 224.0308 264.878 
L 185.574001 157.264677 
z
" style="fill:#ffff00;fill-opacity:0.804348;stroke:#000000;stroke-linejoin:miter;stroke-width:0.1;"/>
   </g>
   <g id="patch_104">
    <path d="M 185.574001 157.264677 
C 185.574001 157.264677 185.574001 157.264677 185.574001 157.264677 
L 224.0308 264.878 
L 185.574001 157.264677 
z
" style="fill:#ffff00;fill-opacity:0.782609;stroke:#000000;stroke-linejoin:miter;stroke-width:0.1;"/>
   </g>
   <g id="patch_105">
    <path d="M 185.574001 157.264677 
C 185.574001 157.264677 185.574001 157.264677 185.574001 157.264677 
L 224.0308 264.878 
L 185.574001 157.264677 
z
" style="fill:#ffff00;fill-opacity:0.76087;stroke:#000000;stroke-linejoin:miter;stroke-width:0.1;"/>
   </g>
   <g id="patch_106">
    <path d="M 185.574001 157.264677 
C 185.574001 157.264677 185.574001 157.264677 185.574001 157.264677 
L 224.0308 264.878 
L 185.574001 157.264677 
z
" style="fill:#ffff00;fill-opacity:0.73913;stroke:#000000;stroke-linejoin:miter;stroke-width:0.1;"/>
   </g>
   <g id="patch_107">
    <path d="M 185.574001 157.264677 
C 185.574001 157.264677 185.574001 157.264677 185.574001 157.264677 
L 224.0308 264.878 
L 185.574001 157.264677 
z
" style="fill:#ffff00;fill-opacity:0.717391;stroke:#000000;stroke-linejoin:miter;stroke-width:0.1;"/>
   </g>
   <g id="patch_108">
    <path d="M 185.574001 157.264677 
C 185.574001 157.264677 185.574001 157.264677 185.574001 157.264677 
L 224.0308 264.878 
L 185.574001 157.264677 
z
" style="fill:#ffff00;fill-opacity:0.695652;stroke:#000000;stroke-linejoin:miter;stroke-width:0.1;"/>
   </g>
   <g id="patch_109">
    <path d="M 185.574001 157.264677 
C 185.574001 157.264677 185.574001 157.264677 185.574001 157.264677 
L 224.0308 264.878 
L 185.574001 157.264677 
z
" style="fill:#ffff00;fill-opacity:0.673913;stroke:#000000;stroke-linejoin:miter;stroke-width:0.1;"/>
   </g>
   <g id="patch_110">
    <path d="M 185.574001 157.264677 
C 185.574001 157.264677 185.574001 157.264677 185.574001 157.264677 
L 224.0308 264.878 
L 185.574001 157.264677 
z
" style="fill:#ffff00;fill-opacity:0.652174;stroke:#000000;stroke-linejoin:miter;stroke-width:0.1;"/>
   </g>
   <g id="patch_111">
    <path d="M 185.574001 157.264677 
C 185.574001 157.264677 185.574001 157.264677 185.574001 157.264677 
L 224.0308 264.878 
L 185.574001 157.264677 
z
" style="fill:#ffff00;fill-opacity:0.630435;stroke:#000000;stroke-linejoin:miter;stroke-width:0.1;"/>
   </g>
   <g id="patch_112">
    <path d="M 185.574001 157.264677 
C 185.574001 157.264677 185.574001 157.264677 185.574001 157.264677 
L 224.0308 264.878 
L 185.574001 157.264677 
z
" style="fill:#ffff00;fill-opacity:0.608696;stroke:#000000;stroke-linejoin:miter;stroke-width:0.1;"/>
   </g>
   <g id="patch_113">
    <path d="M 185.574001 157.264677 
C 185.574001 157.264677 185.574001 157.264677 185.574001 157.264677 
L 224.0308 264.878 
L 185.574001 157.264677 
z
" style="fill:#ffff00;fill-opacity:0.586957;stroke:#000000;stroke-linejoin:miter;stroke-width:0.1;"/>
   </g>
   <g id="patch_114">
    <path d="M 185.574001 157.264677 
C 185.574001 157.264677 185.574001 157.264677 185.574001 157.264677 
L 224.0308 264.878 
L 185.574001 157.264677 
z
" style="fill:#ffff00;fill-opacity:0.565217;stroke:#000000;stroke-linejoin:miter;stroke-width:0.1;"/>
   </g>
   <g id="patch_115">
    <path d="M 185.574001 157.264677 
C 185.574001 157.264677 185.574001 157.264677 185.574001 157.264677 
L 224.0308 264.878 
L 185.574001 157.264677 
z
" style="fill:#ffff00;fill-opacity:0.543478;stroke:#000000;stroke-linejoin:miter;stroke-width:0.1;"/>
   </g>
   <g id="patch_116">
    <path d="M 185.574001 157.264677 
C 185.574001 157.264677 185.574001 157.264677 185.574001 157.264677 
L 224.0308 264.878 
L 185.574001 157.264677 
z
" style="fill:#ffff00;fill-opacity:0.521739;stroke:#000000;stroke-linejoin:miter;stroke-width:0.1;"/>
   </g>
   <g id="patch_117">
    <path d="M 185.574001 157.264677 
C 183.719068 157.927558 181.881584 158.638288 180.063392 159.396155 
C 178.245199 160.154022 176.446905 160.958773 174.670313 161.8096 
L 224.0308 264.878 
L 185.574001 157.264677 
z
" style="fill:#9acd32;stroke:#000000;stroke-linejoin:miter;stroke-width:0.1;"/>
   </g>
   <g id="patch_118">
    <path d="M 174.670313 161.8096 
C 174.670313 161.8096 174.670313 161.8096 174.670313 161.8096 
L 224.0308 264.878 
L 174.670313 161.8096 
z
" style="fill:#9acd32;fill-opacity:0.978261;stroke:#000000;stroke-linejoin:miter;stroke-width:0.1;"/>
   </g>
   <g id="patch_119">
    <path d="M 174.670313 161.8096 
C 174.670313 161.8096 174.670313 161.8096 174.670313 161.8096 
L 224.0308 264.878 
L 174.670313 161.8096 
z
" style="fill:#9acd32;fill-opacity:0.956522;stroke:#000000;stroke-linejoin:miter;stroke-width:0.1;"/>
   </g>
   <g id="patch_120">
    <path d="M 174.670313 161.8096 
C 174.670313 161.8096 174.670313 161.8096 174.670313 161.8096 
L 224.0308 264.878 
L 174.670313 161.8096 
z
" style="fill:#9acd32;fill-opacity:0.934783;stroke:#000000;stroke-linejoin:miter;stroke-width:0.1;"/>
   </g>
   <g id="patch_121">
    <path d="M 174.670313 161.8096 
C 174.670313 161.8096 174.670313 161.8096 174.670313 161.8096 
L 224.0308 264.878 
L 174.670313 161.8096 
z
" style="fill:#9acd32;fill-opacity:0.913043;stroke:#000000;stroke-linejoin:miter;stroke-width:0.1;"/>
   </g>
   <g id="patch_122">
    <path d="M 174.670313 161.8096 
C 174.670313 161.8096 174.670313 161.8096 174.670313 161.8096 
L 224.0308 264.878 
L 174.670313 161.8096 
z
" style="fill:#9acd32;fill-opacity:0.891304;stroke:#000000;stroke-linejoin:miter;stroke-width:0.1;"/>
   </g>
   <g id="patch_123">
    <path d="M 174.670313 161.8096 
C 174.670313 161.8096 174.670313 161.8096 174.670313 161.8096 
L 224.0308 264.878 
L 174.670313 161.8096 
z
" style="fill:#9acd32;fill-opacity:0.869565;stroke:#000000;stroke-linejoin:miter;stroke-width:0.1;"/>
   </g>
   <g id="patch_124">
    <path d="M 174.670313 161.8096 
C 174.670313 161.8096 174.670313 161.8096 174.670313 161.8096 
L 224.0308 264.878 
L 174.670313 161.8096 
z
" style="fill:#9acd32;fill-opacity:0.847826;stroke:#000000;stroke-linejoin:miter;stroke-width:0.1;"/>
   </g>
   <g id="patch_125">
    <path d="M 174.670313 161.8096 
C 174.670313 161.8096 174.670313 161.8096 174.670313 161.8096 
L 224.0308 264.878 
L 174.670313 161.8096 
z
" style="fill:#9acd32;fill-opacity:0.826087;stroke:#000000;stroke-linejoin:miter;stroke-width:0.1;"/>
   </g>
   <g id="patch_126">
    <path d="M 174.670313 161.8096 
C 174.670313 161.8096 174.670313 161.8096 174.670313 161.8096 
L 224.0308 264.878 
L 174.670313 161.8096 
z
" style="fill:#9acd32;fill-opacity:0.804348;stroke:#000000;stroke-linejoin:miter;stroke-width:0.1;"/>
   </g>
   <g id="patch_127">
    <path d="M 174.670313 161.8096 
C 174.670313 161.8096 174.670313 161.8096 174.670313 161.8096 
L 224.0308 264.878 
L 174.670313 161.8096 
z
" style="fill:#9acd32;fill-opacity:0.782609;stroke:#000000;stroke-linejoin:miter;stroke-width:0.1;"/>
   </g>
   <g id="patch_128">
    <path d="M 174.670313 161.8096 
C 174.670313 161.8096 174.670313 161.8096 174.670313 161.8096 
L 224.0308 264.878 
L 174.670313 161.8096 
z
" style="fill:#9acd32;fill-opacity:0.76087;stroke:#000000;stroke-linejoin:miter;stroke-width:0.1;"/>
   </g>
   <g id="patch_129">
    <path d="M 174.670313 161.8096 
C 174.670313 161.8096 174.670313 161.8096 174.670313 161.8096 
L 224.0308 264.878 
L 174.670313 161.8096 
z
" style="fill:#9acd32;fill-opacity:0.73913;stroke:#000000;stroke-linejoin:miter;stroke-width:0.1;"/>
   </g>
   <g id="patch_130">
    <path d="M 174.670313 161.8096 
C 174.670313 161.8096 174.670313 161.8096 174.670313 161.8096 
L 224.0308 264.878 
L 174.670313 161.8096 
z
" style="fill:#9acd32;fill-opacity:0.717391;stroke:#000000;stroke-linejoin:miter;stroke-width:0.1;"/>
   </g>
   <g id="patch_131">
    <path d="M 174.670313 161.8096 
C 174.670313 161.8096 174.670313 161.8096 174.670313 161.8096 
L 224.0308 264.878 
L 174.670313 161.8096 
z
" style="fill:#9acd32;fill-opacity:0.695652;stroke:#000000;stroke-linejoin:miter;stroke-width:0.1;"/>
   </g>
   <g id="patch_132">
    <path d="M 174.670313 161.8096 
C 174.670313 161.8096 174.670313 161.8096 174.670313 161.8096 
L 224.0308 264.878 
L 174.670313 161.8096 
z
" style="fill:#9acd32;fill-opacity:0.673913;stroke:#000000;stroke-linejoin:miter;stroke-width:0.1;"/>
   </g>
   <g id="patch_133">
    <path d="M 174.670313 161.8096 
C 174.670313 161.8096 174.670313 161.8096 174.670313 161.8096 
L 224.0308 264.878 
L 174.670313 161.8096 
z
" style="fill:#9acd32;fill-opacity:0.652174;stroke:#000000;stroke-linejoin:miter;stroke-width:0.1;"/>
   </g>
   <g id="patch_134">
    <path d="M 174.670313 161.8096 
C 174.670313 161.8096 174.670313 161.8096 174.670313 161.8096 
L 224.0308 264.878 
L 174.670313 161.8096 
z
" style="fill:#9acd32;fill-opacity:0.630435;stroke:#000000;stroke-linejoin:miter;stroke-width:0.1;"/>
   </g>
   <g id="patch_135">
    <path d="M 174.670313 161.8096 
C 174.670313 161.8096 174.670313 161.8096 174.670313 161.8096 
L 224.0308 264.878 
L 174.670313 161.8096 
z
" style="fill:#9acd32;fill-opacity:0.608696;stroke:#000000;stroke-linejoin:miter;stroke-width:0.1;"/>
   </g>
   <g id="patch_136">
    <path d="M 174.670313 161.8096 
C 174.670313 161.8096 174.670313 161.8096 174.670313 161.8096 
L 224.0308 264.878 
L 174.670313 161.8096 
z
" style="fill:#9acd32;fill-opacity:0.586957;stroke:#000000;stroke-linejoin:miter;stroke-width:0.1;"/>
   </g>
   <g id="patch_137">
    <path d="M 174.670313 161.8096 
C 174.670313 161.8096 174.670313 161.8096 174.670313 161.8096 
L 224.0308 264.878 
L 174.670313 161.8096 
z
" style="fill:#9acd32;fill-opacity:0.565217;stroke:#000000;stroke-linejoin:miter;stroke-width:0.1;"/>
   </g>
   <g id="patch_138">
    <path d="M 174.670313 161.8096 
C 174.670313 161.8096 174.670313 161.8096 174.670313 161.8096 
L 224.0308 264.878 
L 174.670313 161.8096 
z
" style="fill:#9acd32;fill-opacity:0.543478;stroke:#000000;stroke-linejoin:miter;stroke-width:0.1;"/>
   </g>
   <g id="patch_139">
    <path d="M 174.670313 161.8096 
C 174.670313 161.8096 174.670313 161.8096 174.670313 161.8096 
L 224.0308 264.878 
L 174.670313 161.8096 
z
" style="fill:#9acd32;fill-opacity:0.521739;stroke:#000000;stroke-linejoin:miter;stroke-width:0.1;"/>
   </g>
   <g id="patch_140">
    <path d="M 174.670313 161.8096 
C 172.478126 162.859461 170.319992 163.978993 168.199203 165.166489 
C 166.078415 166.353985 163.996052 167.60884 161.955292 168.929139 
L 224.0308 264.878 
L 174.670313 161.8096 
z
" style="fill:#cd3333;stroke:#000000;stroke-linejoin:miter;stroke-width:0.1;"/>
   </g>
   <g id="patch_141">
    <path d="M 161.955292 168.929139 
C 161.955292 168.929139 161.955292 168.929139 161.955292 168.929139 
L 224.0308 264.878 
L 161.955292 168.929139 
z
" style="fill:#cd3333;fill-opacity:0.978261;stroke:#000000;stroke-linejoin:miter;stroke-width:0.1;"/>
   </g>
   <g id="patch_142">
    <path d="M 161.955292 168.929139 
C 161.955292 168.929139 161.955292 168.929139 161.955292 168.929139 
L 224.0308 264.878 
L 161.955292 168.929139 
z
" style="fill:#cd3333;fill-opacity:0.956522;stroke:#000000;stroke-linejoin:miter;stroke-width:0.1;"/>
   </g>
   <g id="patch_143">
    <path d="M 161.955292 168.929139 
C 161.955292 168.929139 161.955292 168.929139 161.955292 168.929139 
L 224.0308 264.878 
L 161.955292 168.929139 
z
" style="fill:#cd3333;fill-opacity:0.934783;stroke:#000000;stroke-linejoin:miter;stroke-width:0.1;"/>
   </g>
   <g id="patch_144">
    <path d="M 161.955292 168.929139 
C 161.955292 168.929139 161.955292 168.929139 161.955292 168.929139 
L 224.0308 264.878 
L 161.955292 168.929139 
z
" style="fill:#cd3333;fill-opacity:0.913043;stroke:#000000;stroke-linejoin:miter;stroke-width:0.1;"/>
   </g>
   <g id="patch_145">
    <path d="M 161.955292 168.929139 
C 161.955292 168.929139 161.955292 168.929139 161.955292 168.929139 
L 224.0308 264.878 
L 161.955292 168.929139 
z
" style="fill:#cd3333;fill-opacity:0.891304;stroke:#000000;stroke-linejoin:miter;stroke-width:0.1;"/>
   </g>
   <g id="patch_146">
    <path d="M 161.955292 168.929139 
C 161.955292 168.929139 161.955292 168.929139 161.955292 168.929139 
L 224.0308 264.878 
L 161.955292 168.929139 
z
" style="fill:#cd3333;fill-opacity:0.869565;stroke:#000000;stroke-linejoin:miter;stroke-width:0.1;"/>
   </g>
   <g id="patch_147">
    <path d="M 161.955292 168.929139 
C 161.955292 168.929139 161.955292 168.929139 161.955292 168.929139 
L 224.0308 264.878 
L 161.955292 168.929139 
z
" style="fill:#cd3333;fill-opacity:0.847826;stroke:#000000;stroke-linejoin:miter;stroke-width:0.1;"/>
   </g>
   <g id="patch_148">
    <path d="M 161.955292 168.929139 
C 161.955292 168.929139 161.955292 168.929139 161.955292 168.929139 
L 224.0308 264.878 
L 161.955292 168.929139 
z
" style="fill:#cd3333;fill-opacity:0.826087;stroke:#000000;stroke-linejoin:miter;stroke-width:0.1;"/>
   </g>
   <g id="patch_149">
    <path d="M 161.955292 168.929139 
C 161.955292 168.929139 161.955292 168.929139 161.955292 168.929139 
L 224.0308 264.878 
L 161.955292 168.929139 
z
" style="fill:#cd3333;fill-opacity:0.804348;stroke:#000000;stroke-linejoin:miter;stroke-width:0.1;"/>
   </g>
   <g id="patch_150">
    <path d="M 161.955292 168.929139 
C 161.955292 168.929139 161.955292 168.929139 161.955292 168.929139 
L 224.0308 264.878 
L 161.955292 168.929139 
z
" style="fill:#cd3333;fill-opacity:0.782609;stroke:#000000;stroke-linejoin:miter;stroke-width:0.1;"/>
   </g>
   <g id="patch_151">
    <path d="M 161.955292 168.929139 
C 161.955292 168.929139 161.955292 168.929139 161.955292 168.929139 
L 224.0308 264.878 
L 161.955292 168.929139 
z
" style="fill:#cd3333;fill-opacity:0.76087;stroke:#000000;stroke-linejoin:miter;stroke-width:0.1;"/>
   </g>
   <g id="patch_152">
    <path d="M 161.955292 168.929139 
C 161.955292 168.929139 161.955292 168.929139 161.955292 168.929139 
L 224.0308 264.878 
L 161.955292 168.929139 
z
" style="fill:#cd3333;fill-opacity:0.73913;stroke:#000000;stroke-linejoin:miter;stroke-width:0.1;"/>
   </g>
   <g id="patch_153">
    <path d="M 161.955292 168.929139 
C 161.955292 168.929139 161.955292 168.929139 161.955292 168.929139 
L 224.0308 264.878 
L 161.955292 168.929139 
z
" style="fill:#cd3333;fill-opacity:0.717391;stroke:#000000;stroke-linejoin:miter;stroke-width:0.1;"/>
   </g>
   <g id="patch_154">
    <path d="M 161.955292 168.929139 
C 161.955292 168.929139 161.955292 168.929139 161.955292 168.929139 
L 224.0308 264.878 
L 161.955292 168.929139 
z
" style="fill:#cd3333;fill-opacity:0.695652;stroke:#000000;stroke-linejoin:miter;stroke-width:0.1;"/>
   </g>
   <g id="patch_155">
    <path d="M 161.955292 168.929139 
C 161.955292 168.929139 161.955292 168.929139 161.955292 168.929139 
L 224.0308 264.878 
L 161.955292 168.929139 
z
" style="fill:#cd3333;fill-opacity:0.673913;stroke:#000000;stroke-linejoin:miter;stroke-width:0.1;"/>
   </g>
   <g id="patch_156">
    <path d="M 161.955292 168.929139 
C 161.955292 168.929139 161.955292 168.929139 161.955292 168.929139 
L 224.0308 264.878 
L 161.955292 168.929139 
z
" style="fill:#cd3333;fill-opacity:0.652174;stroke:#000000;stroke-linejoin:miter;stroke-width:0.1;"/>
   </g>
   <g id="patch_157">
    <path d="M 161.955292 168.929139 
C 161.955292 168.929139 161.955292 168.929139 161.955292 168.929139 
L 224.0308 264.878 
L 161.955292 168.929139 
z
" style="fill:#cd3333;fill-opacity:0.630435;stroke:#000000;stroke-linejoin:miter;stroke-width:0.1;"/>
   </g>
   <g id="patch_158">
    <path d="M 161.955292 168.929139 
C 161.955292 168.929139 161.955292 168.929139 161.955292 168.929139 
L 224.0308 264.878 
L 161.955292 168.929139 
z
" style="fill:#cd3333;fill-opacity:0.608696;stroke:#000000;stroke-linejoin:miter;stroke-width:0.1;"/>
   </g>
   <g id="patch_159">
    <path d="M 161.955292 168.929139 
C 161.955292 168.929139 161.955292 168.929139 161.955292 168.929139 
L 224.0308 264.878 
L 161.955292 168.929139 
z
" style="fill:#cd3333;fill-opacity:0.586957;stroke:#000000;stroke-linejoin:miter;stroke-width:0.1;"/>
   </g>
   <g id="patch_160">
    <path d="M 161.955292 168.929139 
C 161.955292 168.929139 161.955292 168.929139 161.955292 168.929139 
L 224.0308 264.878 
L 161.955292 168.929139 
z
" style="fill:#cd3333;fill-opacity:0.565217;stroke:#000000;stroke-linejoin:miter;stroke-width:0.1;"/>
   </g>
   <g id="patch_161">
    <path d="M 161.955292 168.929139 
C 161.955292 168.929139 161.955292 168.929139 161.955292 168.929139 
L 224.0308 264.878 
L 161.955292 168.929139 
z
" style="fill:#cd3333;fill-opacity:0.543478;stroke:#000000;stroke-linejoin:miter;stroke-width:0.1;"/>
   </g>
   <g id="patch_162">
    <path d="M 161.955292 168.929139 
C 161.955292 168.929139 161.955292 168.929139 161.955292 168.929139 
L 224.0308 264.878 
L 161.955292 168.929139 
z
" style="fill:#cd3333;fill-opacity:0.521739;stroke:#000000;stroke-linejoin:miter;stroke-width:0.1;"/>
   </g>
   <g id="patch_163">
    <path d="M 161.955292 168.929139 
C 157.468305 171.83206 153.190469 175.046156 149.153291 178.547755 
C 145.116112 182.049353 141.329527 185.829837 137.821422 189.861363 
L 224.0308 264.878 
L 161.955292 168.929139 
z
" style="fill:#00ffff;stroke:#000000;stroke-linejoin:miter;stroke-width:0.1;"/>
   </g>
   <g id="patch_164">
    <path d="M 137.821422 189.861363 
C 137.821422 189.861363 137.821422 189.861363 137.821422 189.861363 
L 224.0308 264.878 
L 137.821422 189.861363 
z
" style="fill:#00ffff;fill-opacity:0.978261;stroke:#000000;stroke-linejoin:miter;stroke-width:0.1;"/>
   </g>
   <g id="patch_165">
    <path d="M 137.821422 189.861363 
C 137.821422 189.861363 137.821422 189.861363 137.821422 189.861363 
L 224.0308 264.878 
L 137.821422 189.861363 
z
" style="fill:#00ffff;fill-opacity:0.956522;stroke:#000000;stroke-linejoin:miter;stroke-width:0.1;"/>
   </g>
   <g id="patch_166">
    <path d="M 137.821422 189.861363 
C 137.821422 189.861363 137.821422 189.861363 137.821422 189.861363 
L 224.0308 264.878 
L 137.821422 189.861363 
z
" style="fill:#00ffff;fill-opacity:0.934783;stroke:#000000;stroke-linejoin:miter;stroke-width:0.1;"/>
   </g>
   <g id="patch_167">
    <path d="M 137.821422 189.861363 
C 137.821422 189.861363 137.821422 189.861363 137.821422 189.861363 
L 224.0308 264.878 
L 137.821422 189.861363 
z
" style="fill:#00ffff;fill-opacity:0.913043;stroke:#000000;stroke-linejoin:miter;stroke-width:0.1;"/>
   </g>
   <g id="patch_168">
    <path d="M 137.821422 189.861363 
C 137.821422 189.861363 137.821422 189.861363 137.821422 189.861363 
L 224.0308 264.878 
L 137.821422 189.861363 
z
" style="fill:#00ffff;fill-opacity:0.891304;stroke:#000000;stroke-linejoin:miter;stroke-width:0.1;"/>
   </g>
   <g id="patch_169">
    <path d="M 137.821422 189.861363 
C 137.821422 189.861363 137.821422 189.861363 137.821422 189.861363 
L 224.0308 264.878 
L 137.821422 189.861363 
z
" style="fill:#00ffff;fill-opacity:0.869565;stroke:#000000;stroke-linejoin:miter;stroke-width:0.1;"/>
   </g>
   <g id="patch_170">
    <path d="M 137.821422 189.861363 
C 137.821422 189.861363 137.821422 189.861363 137.821422 189.861363 
L 224.0308 264.878 
L 137.821422 189.861363 
z
" style="fill:#00ffff;fill-opacity:0.847826;stroke:#000000;stroke-linejoin:miter;stroke-width:0.1;"/>
   </g>
   <g id="patch_171">
    <path d="M 137.821422 189.861363 
C 137.821422 189.861363 137.821422 189.861363 137.821422 189.861363 
L 224.0308 264.878 
L 137.821422 189.861363 
z
" style="fill:#00ffff;fill-opacity:0.826087;stroke:#000000;stroke-linejoin:miter;stroke-width:0.1;"/>
   </g>
   <g id="patch_172">
    <path d="M 137.821422 189.861363 
C 137.821422 189.861363 137.821422 189.861363 137.821422 189.861363 
L 224.0308 264.878 
L 137.821422 189.861363 
z
" style="fill:#00ffff;fill-opacity:0.804348;stroke:#000000;stroke-linejoin:miter;stroke-width:0.1;"/>
   </g>
   <g id="patch_173">
    <path d="M 137.821422 189.861363 
C 137.821422 189.861363 137.821422 189.861363 137.821422 189.861363 
L 224.0308 264.878 
L 137.821422 189.861363 
z
" style="fill:#00ffff;fill-opacity:0.782609;stroke:#000000;stroke-linejoin:miter;stroke-width:0.1;"/>
   </g>
   <g id="patch_174">
    <path d="M 137.821422 189.861363 
C 137.821422 189.861363 137.821422 189.861363 137.821422 189.861363 
L 224.0308 264.878 
L 137.821422 189.861363 
z
" style="fill:#00ffff;fill-opacity:0.76087;stroke:#000000;stroke-linejoin:miter;stroke-width:0.1;"/>
   </g>
   <g id="patch_175">
    <path d="M 137.821422 189.861363 
C 137.821422 189.861363 137.821422 189.861363 137.821422 189.861363 
L 224.0308 264.878 
L 137.821422 189.861363 
z
" style="fill:#00ffff;fill-opacity:0.73913;stroke:#000000;stroke-linejoin:miter;stroke-width:0.1;"/>
   </g>
   <g id="patch_176">
    <path d="M 137.821422 189.861363 
C 137.821422 189.861363 137.821422 189.861363 137.821422 189.861363 
L 224.0308 264.878 
L 137.821422 189.861363 
z
" style="fill:#00ffff;fill-opacity:0.717391;stroke:#000000;stroke-linejoin:miter;stroke-width:0.1;"/>
   </g>
   <g id="patch_177">
    <path d="M 137.821422 189.861363 
C 137.821422 189.861363 137.821422 189.861363 137.821422 189.861363 
L 224.0308 264.878 
L 137.821422 189.861363 
z
" style="fill:#00ffff;fill-opacity:0.695652;stroke:#000000;stroke-linejoin:miter;stroke-width:0.1;"/>
   </g>
   <g id="patch_178">
    <path d="M 137.821422 189.861363 
C 137.821422 189.861363 137.821422 189.861363 137.821422 189.861363 
L 224.0308 264.878 
L 137.821422 189.861363 
z
" style="fill:#00ffff;fill-opacity:0.673913;stroke:#000000;stroke-linejoin:miter;stroke-width:0.1;"/>
   </g>
   <g id="patch_179">
    <path d="M 137.821422 189.861363 
C 137.821422 189.861363 137.821422 189.861363 137.821422 189.861363 
L 224.0308 264.878 
L 137.821422 189.861363 
z
" style="fill:#00ffff;fill-opacity:0.652174;stroke:#000000;stroke-linejoin:miter;stroke-width:0.1;"/>
   </g>
   <g id="patch_180">
    <path d="M 137.821422 189.861363 
C 137.821422 189.861363 137.821422 189.861363 137.821422 189.861363 
L 224.0308 264.878 
L 137.821422 189.861363 
z
" style="fill:#00ffff;fill-opacity:0.630435;stroke:#000000;stroke-linejoin:miter;stroke-width:0.1;"/>
   </g>
   <g id="patch_181">
    <path d="M 137.821422 189.861363 
C 137.821422 189.861363 137.821422 189.861363 137.821422 189.861363 
L 224.0308 264.878 
L 137.821422 189.861363 
z
" style="fill:#00ffff;fill-opacity:0.608696;stroke:#000000;stroke-linejoin:miter;stroke-width:0.1;"/>
   </g>
   <g id="patch_182">
    <path d="M 137.821422 189.861363 
C 137.821422 189.861363 137.821422 189.861363 137.821422 189.861363 
L 224.0308 264.878 
L 137.821422 189.861363 
z
" style="fill:#00ffff;fill-opacity:0.586957;stroke:#000000;stroke-linejoin:miter;stroke-width:0.1;"/>
   </g>
   <g id="patch_183">
    <path d="M 137.821422 189.861363 
C 137.821422 189.861363 137.821422 189.861363 137.821422 189.861363 
L 224.0308 264.878 
L 137.821422 189.861363 
z
" style="fill:#00ffff;fill-opacity:0.565217;stroke:#000000;stroke-linejoin:miter;stroke-width:0.1;"/>
   </g>
   <g id="patch_184">
    <path d="M 137.821422 189.861363 
C 137.821422 189.861363 137.821422 189.861363 137.821422 189.861363 
L 224.0308 264.878 
L 137.821422 189.861363 
z
" style="fill:#00ffff;fill-opacity:0.543478;stroke:#000000;stroke-linejoin:miter;stroke-width:0.1;"/>
   </g>
   <g id="patch_185">
    <path d="M 137.821422 189.861363 
C 137.821422 189.861363 137.821422 189.861363 137.821422 189.861363 
L 224.0308 264.878 
L 137.821422 189.861363 
z
" style="fill:#00ffff;fill-opacity:0.521739;stroke:#000000;stroke-linejoin:miter;stroke-width:0.1;"/>
   </g>
   <g id="patch_186">
    <path d="M 137.821422 189.861363 
C 133.505386 194.821367 129.625446 200.144611 126.224809 205.771818 
C 122.824171 211.399026 119.915505 217.309231 117.531201 223.436619 
L 224.0308 264.878 
L 137.821422 189.861363 
z
" style="fill:#b8860b;stroke:#000000;stroke-linejoin:miter;stroke-width:0.1;"/>
   </g>
   <g id="patch_187">
    <path d="M 117.531201 223.436619 
C 117.531201 223.436619 117.531201 223.436619 117.531201 223.436619 
L 224.0308 264.878 
L 117.531201 223.436619 
z
" style="fill:#b8860b;fill-opacity:0.978261;stroke:#000000;stroke-linejoin:miter;stroke-width:0.1;"/>
   </g>
   <g id="patch_188">
    <path d="M 117.531201 223.436619 
C 117.531201 223.436619 117.531201 223.436619 117.531201 223.436619 
L 224.0308 264.878 
L 117.531201 223.436619 
z
" style="fill:#b8860b;fill-opacity:0.956522;stroke:#000000;stroke-linejoin:miter;stroke-width:0.1;"/>
   </g>
   <g id="patch_189">
    <path d="M 117.531201 223.436619 
C 117.531201 223.436619 117.531201 223.436619 117.531201 223.436619 
L 224.0308 264.878 
L 117.531201 223.436619 
z
" style="fill:#b8860b;fill-opacity:0.934783;stroke:#000000;stroke-linejoin:miter;stroke-width:0.1;"/>
   </g>
   <g id="patch_190">
    <path d="M 117.531201 223.436619 
C 117.531201 223.436619 117.531201 223.436619 117.531201 223.436619 
L 224.0308 264.878 
L 117.531201 223.436619 
z
" style="fill:#b8860b;fill-opacity:0.913043;stroke:#000000;stroke-linejoin:miter;stroke-width:0.1;"/>
   </g>
   <g id="patch_191">
    <path d="M 117.531201 223.436619 
C 117.531201 223.436619 117.531201 223.436619 117.531201 223.436619 
L 224.0308 264.878 
L 117.531201 223.436619 
z
" style="fill:#b8860b;fill-opacity:0.891304;stroke:#000000;stroke-linejoin:miter;stroke-width:0.1;"/>
   </g>
   <g id="patch_192">
    <path d="M 117.531201 223.436619 
C 117.531201 223.436619 117.531201 223.436619 117.531201 223.436619 
L 224.0308 264.878 
L 117.531201 223.436619 
z
" style="fill:#b8860b;fill-opacity:0.869565;stroke:#000000;stroke-linejoin:miter;stroke-width:0.1;"/>
   </g>
   <g id="patch_193">
    <path d="M 117.531201 223.436619 
C 117.531201 223.436619 117.531201 223.436619 117.531201 223.436619 
L 224.0308 264.878 
L 117.531201 223.436619 
z
" style="fill:#b8860b;fill-opacity:0.847826;stroke:#000000;stroke-linejoin:miter;stroke-width:0.1;"/>
   </g>
   <g id="patch_194">
    <path d="M 117.531201 223.436619 
C 117.531201 223.436619 117.531201 223.436619 117.531201 223.436619 
L 224.0308 264.878 
L 117.531201 223.436619 
z
" style="fill:#b8860b;fill-opacity:0.826087;stroke:#000000;stroke-linejoin:miter;stroke-width:0.1;"/>
   </g>
   <g id="patch_195">
    <path d="M 117.531201 223.436619 
C 117.531201 223.436619 117.531201 223.436619 117.531201 223.436619 
L 224.0308 264.878 
L 117.531201 223.436619 
z
" style="fill:#b8860b;fill-opacity:0.804348;stroke:#000000;stroke-linejoin:miter;stroke-width:0.1;"/>
   </g>
   <g id="patch_196">
    <path d="M 117.531201 223.436619 
C 117.531201 223.436619 117.531201 223.436619 117.531201 223.436619 
L 224.0308 264.878 
L 117.531201 223.436619 
z
" style="fill:#b8860b;fill-opacity:0.782609;stroke:#000000;stroke-linejoin:miter;stroke-width:0.1;"/>
   </g>
   <g id="patch_197">
    <path d="M 117.531201 223.436619 
C 117.531201 223.436619 117.531201 223.436619 117.531201 223.436619 
L 224.0308 264.878 
L 117.531201 223.436619 
z
" style="fill:#b8860b;fill-opacity:0.76087;stroke:#000000;stroke-linejoin:miter;stroke-width:0.1;"/>
   </g>
   <g id="patch_198">
    <path d="M 117.531201 223.436619 
C 117.531201 223.436619 117.531201 223.436619 117.531201 223.436619 
L 224.0308 264.878 
L 117.531201 223.436619 
z
" style="fill:#b8860b;fill-opacity:0.73913;stroke:#000000;stroke-linejoin:miter;stroke-width:0.1;"/>
   </g>
   <g id="patch_199">
    <path d="M 117.531201 223.436619 
C 117.531201 223.436619 117.531201 223.436619 117.531201 223.436619 
L 224.0308 264.878 
L 117.531201 223.436619 
z
" style="fill:#b8860b;fill-opacity:0.717391;stroke:#000000;stroke-linejoin:miter;stroke-width:0.1;"/>
   </g>
   <g id="patch_200">
    <path d="M 117.531201 223.436619 
C 117.531201 223.436619 117.531201 223.436619 117.531201 223.436619 
L 224.0308 264.878 
L 117.531201 223.436619 
z
" style="fill:#b8860b;fill-opacity:0.695652;stroke:#000000;stroke-linejoin:miter;stroke-width:0.1;"/>
   </g>
   <g id="patch_201">
    <path d="M 117.531201 223.436619 
C 117.531201 223.436619 117.531201 223.436619 117.531201 223.436619 
L 224.0308 264.878 
L 117.531201 223.436619 
z
" style="fill:#b8860b;fill-opacity:0.673913;stroke:#000000;stroke-linejoin:miter;stroke-width:0.1;"/>
   </g>
   <g id="patch_202">
    <path d="M 117.531201 223.436619 
C 117.531201 223.436619 117.531201 223.436619 117.531201 223.436619 
L 224.0308 264.878 
L 117.531201 223.436619 
z
" style="fill:#b8860b;fill-opacity:0.652174;stroke:#000000;stroke-linejoin:miter;stroke-width:0.1;"/>
   </g>
   <g id="patch_203">
    <path d="M 117.531201 223.436619 
C 117.531201 223.436619 117.531201 223.436619 117.531201 223.436619 
L 224.0308 264.878 
L 117.531201 223.436619 
z
" style="fill:#b8860b;fill-opacity:0.630435;stroke:#000000;stroke-linejoin:miter;stroke-width:0.1;"/>
   </g>
   <g id="patch_204">
    <path d="M 117.531201 223.436619 
C 117.531201 223.436619 117.531201 223.436619 117.531201 223.436619 
L 224.0308 264.878 
L 117.531201 223.436619 
z
" style="fill:#b8860b;fill-opacity:0.608696;stroke:#000000;stroke-linejoin:miter;stroke-width:0.1;"/>
   </g>
   <g id="patch_205">
    <path d="M 117.531201 223.436619 
C 117.531201 223.436619 117.531201 223.436619 117.531201 223.436619 
L 224.0308 264.878 
L 117.531201 223.436619 
z
" style="fill:#b8860b;fill-opacity:0.586957;stroke:#000000;stroke-linejoin:miter;stroke-width:0.1;"/>
   </g>
   <g id="patch_206">
    <path d="M 117.531201 223.436619 
C 117.531201 223.436619 117.531201 223.436619 117.531201 223.436619 
L 224.0308 264.878 
L 117.531201 223.436619 
z
" style="fill:#b8860b;fill-opacity:0.565217;stroke:#000000;stroke-linejoin:miter;stroke-width:0.1;"/>
   </g>
   <g id="patch_207">
    <path d="M 117.531201 223.436619 
C 117.531201 223.436619 117.531201 223.436619 117.531201 223.436619 
L 224.0308 264.878 
L 117.531201 223.436619 
z
" style="fill:#b8860b;fill-opacity:0.543478;stroke:#000000;stroke-linejoin:miter;stroke-width:0.1;"/>
   </g>
   <g id="patch_208">
    <path d="M 117.531201 223.436619 
C 117.531201 223.436619 117.531201 223.436619 117.531201 223.436619 
L 224.0308 264.878 
L 117.531201 223.436619 
z
" style="fill:#b8860b;fill-opacity:0.521739;stroke:#000000;stroke-linejoin:miter;stroke-width:0.1;"/>
   </g>
   <g id="patch_209">
    <path d="M 117.531201 223.436619 
C 115.34161 229.063617 113.601419 234.855309 112.32698 240.757277 
C 111.052541 246.659245 110.247857 252.652945 109.920489 258.682062 
L 224.0308 264.878 
L 117.531201 223.436619 
z
" style="fill:#f5deb3;fill-opacity:0.913043;stroke:#000000;stroke-linejoin:miter;stroke-width:0.1;"/>
   </g>
   <g id="patch_210">
    <path d="M 109.920489 258.682062 
C 109.873982 259.538588 109.83712 260.395611 109.80991 261.252967 
C 109.7827 262.110324 109.765144 262.967959 109.757245 263.825711 
L 224.0308 264.878 
L 109.920489 258.682062 
z
" style="fill:#f5deb3;fill-opacity:0.934783;stroke:#000000;stroke-linejoin:miter;stroke-width:0.1;"/>
   </g>
   <g id="patch_211">
    <path d="M 109.757245 263.825711 
C 109.748037 264.825682 109.751955 265.825732 109.768998 266.8256 
C 109.78604 267.825469 109.816207 268.825071 109.859489 269.824147 
L 224.0308 264.878 
L 109.757245 263.825711 
z
" style="fill:#f5deb3;fill-opacity:0.956522;stroke:#000000;stroke-linejoin:miter;stroke-width:0.1;"/>
   </g>
   <g id="patch_212">
    <path d="M 109.859489 269.824147 
C 109.907638 270.93556 109.972013 272.046211 110.052593 273.155744 
C 110.133174 274.265277 110.229951 275.373574 110.342895 276.480281 
L 224.0308 264.878 
L 109.859489 269.824147 
z
" style="fill:#f5deb3;fill-opacity:0.978261;stroke:#000000;stroke-linejoin:miter;stroke-width:0.1;"/>
   </g>
   <g id="patch_213">
    <path d="M 110.342895 276.480281 
C 110.467412 277.700391 110.611562 278.918417 110.77529 280.133887 
C 110.939018 281.349356 111.122302 282.562111 111.32507 283.77168 
L 224.0308 264.878 
L 110.342895 276.480281 
z
" style="fill:#f5deb3;stroke:#000000;stroke-linejoin:miter;stroke-width:0.1;"/>
   </g>
   <g id="patch_214">
    <path d="M 111.32507 283.77168 
C 111.32507 283.77168 111.32507 283.77168 111.32507 283.77168 
L 224.0308 264.878 
L 111.32507 283.77168 
z
" style="fill:#f5deb3;fill-opacity:0.521739;stroke:#000000;stroke-linejoin:miter;stroke-width:0.1;"/>
   </g>
   <g id="patch_215">
    <path d="M 111.32507 283.77168 
C 111.32507 283.77168 111.32507 283.77168 111.32507 283.77168 
L 224.0308 264.878 
L 111.32507 283.77168 
z
" style="fill:#f5deb3;fill-opacity:0.543478;stroke:#000000;stroke-linejoin:miter;stroke-width:0.1;"/>
   </g>
   <g id="patch_216">
    <path d="M 111.32507 283.77168 
C 111.32507 283.77168 111.32507 283.77168 111.32507 283.77168 
L 224.0308 264.878 
L 111.32507 283.77168 
z
" style="fill:#f5deb3;fill-opacity:0.565217;stroke:#000000;stroke-linejoin:miter;stroke-width:0.1;"/>
   </g>
   <g id="patch_217">
    <path d="M 111.32507 283.77168 
C 111.32507 283.77168 111.32507 283.77168 111.32507 283.77168 
L 224.0308 264.878 
L 111.32507 283.77168 
z
" style="fill:#f5deb3;fill-opacity:0.586957;stroke:#000000;stroke-linejoin:miter;stroke-width:0.1;"/>
   </g>
   <g id="patch_218">
    <path d="M 111.32507 283.77168 
C 111.32507 283.77168 111.32507 283.77168 111.32507 283.77168 
L 224.0308 264.878 
L 111.32507 283.77168 
z
" style="fill:#f5deb3;fill-opacity:0.608696;stroke:#000000;stroke-linejoin:miter;stroke-width:0.1;"/>
   </g>
   <g id="patch_219">
    <path d="M 111.32507 283.77168 
C 111.32507 283.77168 111.32507 283.77168 111.32507 283.77168 
L 224.0308 264.878 
L 111.32507 283.77168 
z
" style="fill:#f5deb3;fill-opacity:0.630435;stroke:#000000;stroke-linejoin:miter;stroke-width:0.1;"/>
   </g>
   <g id="patch_220">
    <path d="M 111.32507 283.77168 
C 111.32507 283.77168 111.32507 283.77168 111.32507 283.77168 
L 224.0308 264.878 
L 111.32507 283.77168 
z
" style="fill:#f5deb3;fill-opacity:0.652174;stroke:#000000;stroke-linejoin:miter;stroke-width:0.1;"/>
   </g>
   <g id="patch_221">
    <path d="M 111.32507 283.77168 
C 111.32507 283.77168 111.32507 283.77168 111.32507 283.77168 
L 224.0308 264.878 
L 111.32507 283.77168 
z
" style="fill:#f5deb3;fill-opacity:0.673913;stroke:#000000;stroke-linejoin:miter;stroke-width:0.1;"/>
   </g>
   <g id="patch_222">
    <path d="M 111.32507 283.77168 
C 111.32507 283.77168 111.32507 283.77168 111.32507 283.77168 
L 224.0308 264.878 
L 111.32507 283.77168 
z
" style="fill:#f5deb3;fill-opacity:0.695652;stroke:#000000;stroke-linejoin:miter;stroke-width:0.1;"/>
   </g>
   <g id="patch_223">
    <path d="M 111.32507 283.77168 
C 111.32507 283.77168 111.32507 283.77168 111.32507 283.77168 
L 224.0308 264.878 
L 111.32507 283.77168 
z
" style="fill:#f5deb3;fill-opacity:0.717391;stroke:#000000;stroke-linejoin:miter;stroke-width:0.1;"/>
   </g>
   <g id="patch_224">
    <path d="M 111.32507 283.77168 
C 111.32507 283.77168 111.32507 283.77168 111.32507 283.77168 
L 224.0308 264.878 
L 111.32507 283.77168 
z
" style="fill:#f5deb3;fill-opacity:0.73913;stroke:#000000;stroke-linejoin:miter;stroke-width:0.1;"/>
   </g>
   <g id="patch_225">
    <path d="M 111.32507 283.77168 
C 111.32507 283.77168 111.32507 283.77168 111.32507 283.77168 
L 224.0308 264.878 
L 111.32507 283.77168 
z
" style="fill:#f5deb3;fill-opacity:0.76087;stroke:#000000;stroke-linejoin:miter;stroke-width:0.1;"/>
   </g>
   <g id="patch_226">
    <path d="M 111.32507 283.77168 
C 111.32507 283.77168 111.32507 283.77168 111.32507 283.77168 
L 224.0308 264.878 
L 111.32507 283.77168 
z
" style="fill:#f5deb3;fill-opacity:0.782609;stroke:#000000;stroke-linejoin:miter;stroke-width:0.1;"/>
   </g>
   <g id="patch_227">
    <path d="M 111.32507 283.77168 
C 111.32507 283.77168 111.32507 283.77168 111.32507 283.77168 
L 224.0308 264.878 
L 111.32507 283.77168 
z
" style="fill:#f5deb3;fill-opacity:0.804348;stroke:#000000;stroke-linejoin:miter;stroke-width:0.1;"/>
   </g>
   <g id="patch_228">
    <path d="M 111.32507 283.77168 
C 111.32507 283.77168 111.32507 283.77168 111.32507 283.77168 
L 224.0308 264.878 
L 111.32507 283.77168 
z
" style="fill:#f5deb3;fill-opacity:0.826087;stroke:#000000;stroke-linejoin:miter;stroke-width:0.1;"/>
   </g>
   <g id="patch_229">
    <path d="M 111.32507 283.77168 
C 111.32507 283.77168 111.32507 283.77168 111.32507 283.77168 
L 224.0308 264.878 
L 111.32507 283.77168 
z
" style="fill:#f5deb3;fill-opacity:0.847826;stroke:#000000;stroke-linejoin:miter;stroke-width:0.1;"/>
   </g>
   <g id="patch_230">
    <path d="M 111.32507 283.77168 
C 111.32507 283.77168 111.32507 283.77168 111.32507 283.77168 
L 224.0308 264.878 
L 111.32507 283.77168 
z
" style="fill:#f5deb3;fill-opacity:0.869565;stroke:#000000;stroke-linejoin:miter;stroke-width:0.1;"/>
   </g>
   <g id="patch_231">
    <path d="M 111.32507 283.77168 
C 111.32507 283.77168 111.32507 283.77168 111.32507 283.77168 
L 224.0308 264.878 
L 111.32507 283.77168 
z
" style="fill:#f5deb3;fill-opacity:0.891304;stroke:#000000;stroke-linejoin:miter;stroke-width:0.1;"/>
   </g>
   <g id="patch_232">
    <path d="M 111.32507 283.77168 
C 113.065688 294.15492 116.232851 304.247993 120.736588 313.764178 
C 125.240324 323.280363 131.03758 332.128688 137.963668 340.057794 
L 224.0308 264.878 
L 111.32507 283.77168 
z
" style="fill:#ff00ff;fill-opacity:0.521739;stroke:#000000;stroke-linejoin:miter;stroke-width:0.1;"/>
   </g>
   <g id="patch_233">
    <path d="M 137.963668 340.057794 
C 138.484979 340.6546 139.012483 341.245967 139.546096 341.831801 
C 140.079708 342.417634 140.6194 342.997901 141.165082 343.572507 
L 224.0308 264.878 
L 137.963668 340.057794 
z
" style="fill:#ff00ff;fill-opacity:0.543478;stroke:#000000;stroke-linejoin:miter;stroke-width:0.1;"/>
   </g>
   <g id="patch_234">
    <path d="M 141.165082 343.572507 
C 141.930954 344.378974 142.708557 345.174217 143.497644 345.957982 
C 144.286731 346.741747 145.087218 347.513951 145.898848 348.274348 
L 224.0308 264.878 
L 141.165082 343.572507 
z
" style="fill:#ff00ff;fill-opacity:0.565217;stroke:#000000;stroke-linejoin:miter;stroke-width:0.1;"/>
   </g>
   <g id="patch_235">
    <path d="M 145.898848 348.274348 
C 146.718236 349.042011 147.548893 349.797557 148.390548 350.54074 
C 149.232204 351.283922 150.084766 352.01466 150.947959 352.732715 
L 224.0308 264.878 
L 145.898848 348.274348 
z
" style="fill:#ff00ff;fill-opacity:0.586957;stroke:#000000;stroke-linejoin:miter;stroke-width:0.1;"/>
   </g>
   <g id="patch_236">
    <path d="M 150.947959 352.732715 
C 152.06236 353.659741 153.194299 354.56548 154.343161 355.449439 
C 155.492023 356.333399 156.6576 357.195419 157.839259 358.035032 
L 224.0308 264.878 
L 150.947959 352.732715 
z
" style="fill:#ff00ff;fill-opacity:0.608696;stroke:#000000;stroke-linejoin:miter;stroke-width:0.1;"/>
   </g>
   <g id="patch_237">
    <path d="M 157.839259 358.035032 
C 159.153494 358.968844 160.487342 359.874741 161.839908 360.752114 
C 163.192475 361.629486 164.563456 362.478138 165.951932 363.297499 
L 224.0308 264.878 
L 157.839259 358.035032 
z
" style="fill:#ff00ff;fill-opacity:0.630435;stroke:#000000;stroke-linejoin:miter;stroke-width:0.1;"/>
   </g>
   <g id="patch_238">
    <path d="M 165.951932 363.297499 
C 167.429805 364.169615 168.927134 365.008332 170.442779 365.813012 
C 171.958425 366.617693 173.492003 367.388133 175.042347 368.123746 
L 224.0308 264.878 
L 165.951932 363.297499 
z
" style="fill:#ff00ff;fill-opacity:0.652174;stroke:#000000;stroke-linejoin:miter;stroke-width:0.1;"/>
   </g>
   <g id="patch_239">
    <path d="M 175.042347 368.123746 
C 176.688698 368.904914 178.353499 369.646591 180.035321 370.34814 
C 181.717143 371.04969 183.415504 371.710912 185.128948 372.331239 
L 224.0308 264.878 
L 175.042347 368.123746 
z
" style="fill:#ff00ff;fill-opacity:0.673913;stroke:#000000;stroke-linejoin:miter;stroke-width:0.1;"/>
   </g>
   <g id="patch_240">
    <path d="M 185.128948 372.331239 
C 186.869258 372.961292 188.624617 373.548974 190.393472 374.093763 
C 192.162327 374.638552 193.944156 375.140288 195.737382 375.598527 
L 224.0308 264.878 
L 185.128948 372.331239 
z
" style="fill:#ff00ff;fill-opacity:0.695652;stroke:#000000;stroke-linejoin:miter;stroke-width:0.1;"/>
   </g>
   <g id="patch_241">
    <path d="M 195.737382 375.598527 
C 197.663956 376.090842 199.603051 376.532789 201.552687 376.923915 
C 203.502323 377.315042 205.461836 377.655215 207.429223 377.944088 
L 224.0308 264.878 
L 195.737382 375.598527 
z
" style="fill:#ff00ff;fill-opacity:0.717391;stroke:#000000;stroke-linejoin:miter;stroke-width:0.1;"/>
   </g>
   <g id="patch_242">
    <path d="M 207.429223 377.944088 
C 209.784396 378.2899 212.1498 378.56204 214.521971 378.76011 
C 216.894142 378.958179 219.271923 379.082081 221.651833 379.131635 
L 224.0308 264.878 
L 207.429223 377.944088 
z
" style="fill:#ff00ff;fill-opacity:0.73913;stroke:#000000;stroke-linejoin:miter;stroke-width:0.1;"/>
   </g>
   <g id="patch_243">
    <path d="M 221.651833 379.131635 
C 224.091868 379.182441 226.532904 379.155069 228.971186 379.049561 
C 231.409468 378.944052 233.843745 378.760462 236.27027 378.499072 
L 224.0308 264.878 
L 221.651833 379.131635 
z
" style="fill:#ff00ff;fill-opacity:0.76087;stroke:#000000;stroke-linejoin:miter;stroke-width:0.1;"/>
   </g>
   <g id="patch_244">
    <path d="M 236.27027 378.499072 
C 238.781951 378.22851 241.283969 377.874737 243.772201 377.438338 
C 246.260434 377.00194 248.733511 376.483155 251.187358 375.882838 
L 224.0308 264.878 
L 236.27027 378.499072 
z
" style="fill:#ff00ff;fill-opacity:0.782609;stroke:#000000;stroke-linejoin:miter;stroke-width:0.1;"/>
   </g>
   <g id="patch_245">
    <path d="M 251.187358 375.882838 
C 253.702095 375.267625 256.1952 374.567136 258.662357 373.782582 
C 261.129514 372.998028 263.569298 372.129864 265.977486 371.179591 
L 224.0308 264.878 
L 251.187358 375.882838 
z
" style="fill:#ff00ff;fill-opacity:0.804348;stroke:#000000;stroke-linejoin:miter;stroke-width:0.1;"/>
   </g>
   <g id="patch_246">
    <path d="M 265.977486 371.179591 
C 269.268801 369.880836 272.498023 368.429922 275.654713 366.83154 
C 278.811403 365.233158 281.892157 363.489032 284.887017 361.604799 
L 224.0308 264.878 
L 265.977486 371.179591 
z
" style="fill:#ff00ff;fill-opacity:0.826087;stroke:#000000;stroke-linejoin:miter;stroke-width:0.1;"/>
   </g>
   <g id="patch_247">
    <path d="M 284.887017 361.604799 
C 288.527509 359.314362 292.035793 356.820226 295.395119 354.134298 
C 298.754445 351.44837 301.959459 348.574931 304.994859 345.527698 
L 224.0308 264.878 
L 284.887017 361.604799 
z
" style="fill:#ff00ff;fill-opacity:0.847826;stroke:#000000;stroke-linejoin:miter;stroke-width:0.1;"/>
   </g>
   <g id="patch_248">
    <path d="M 304.994859 345.527698 
C 308.64912 341.859194 312.049828 337.946564 315.173467 333.816864 
C 318.297107 329.687164 321.136461 325.349935 323.671896 320.835168 
L 224.0308 264.878 
L 304.994859 345.527698 
z
" style="fill:#ff00ff;fill-opacity:0.869565;stroke:#000000;stroke-linejoin:miter;stroke-width:0.1;"/>
   </g>
   <g id="patch_249">
    <path d="M 323.671896 320.835168 
C 326.287544 316.177571 328.573405 311.342302 330.51266 306.364942 
C 332.451914 301.387582 334.039794 296.280369 335.264615 291.080884 
L 224.0308 264.878 
L 323.671896 320.835168 
z
" style="fill:#ff00ff;fill-opacity:0.891304;stroke:#000000;stroke-linejoin:miter;stroke-width:0.1;"/>
   </g>
   <g id="patch_250">
    <path d="M 335.264615 291.080884 
C 336.662601 285.146295 337.583412 279.109334 338.018225 273.027833 
C 338.453038 266.946332 338.40046 260.839775 337.860996 254.766663 
L 224.0308 264.878 
L 335.264615 291.080884 
z
" style="fill:#ff00ff;fill-opacity:0.913043;stroke:#000000;stroke-linejoin:miter;stroke-width:0.1;"/>
   </g>
   <g id="patch_251">
    <path d="M 337.860996 254.766663 
C 337.262651 248.030681 336.067575 241.361084 334.289844 234.836427 
C 332.512112 228.31177 330.158732 221.957769 327.257422 215.849261 
L 224.0308 264.878 
L 337.860996 254.766663 
z
" style="fill:#ff00ff;fill-opacity:0.934783;stroke:#000000;stroke-linejoin:miter;stroke-width:0.1;"/>
   </g>
   <g id="patch_252">
    <path d="M 327.257422 215.849261 
C 324.269193 209.557751 320.712024 203.552587 316.630349 197.908782 
C 312.548675 192.264976 307.959561 187.006128 302.920333 182.197928 
L 224.0308 264.878 
L 327.257422 215.849261 
z
" style="fill:#ff00ff;fill-opacity:0.956522;stroke:#000000;stroke-linejoin:miter;stroke-width:0.1;"/>
   </g>
   <g id="patch_253">
    <path d="M 302.920333 182.197928 
C 297.680246 177.198077 291.976686 172.707688 285.886668 168.787395 
C 279.79665 164.867102 273.347711 161.53463 266.62693 158.834978 
L 224.0308 264.878 
L 302.920333 182.197928 
z
" style="fill:#ff00ff;fill-opacity:0.978261;stroke:#000000;stroke-linejoin:miter;stroke-width:0.1;"/>
   </g>
   <g id="patch_254">
    <path d="M 266.62693 158.834978 
C 259.871113 156.121253 252.8714 154.059329 245.723291 152.677338 
C 238.575182 151.295347 231.311335 150.599604 224.030857 150.5996 
L 224.0308 264.878 
L 266.62693 158.834978 
z
" style="fill:#ff00ff;stroke:#000000;stroke-linejoin:miter;stroke-width:0.1;"/>
   </g>
   <g id="patch_255">
    <path d="M 224.0308 164.8844 
C 223.223517 164.8844 222.416264 164.894176 221.609217 164.913726 
C 220.802171 164.933277 219.995391 164.9626 219.189055 165.001689 
L 224.0308 264.878 
L 224.0308 164.8844 
z
" style="fill:#7fffd4;stroke:#000000;stroke-linejoin:miter;stroke-width:0.1;"/>
   </g>
   <g id="patch_256">
    <path d="M 219.189055 165.001689 
C 218.143583 165.052371 217.098972 165.119465 216.055607 165.202946 
C 215.012242 165.286428 213.970253 165.386287 212.930023 165.502486 
L 224.0308 264.878 
L 219.189055 165.001689 
z
" style="fill:#ff1493;stroke:#000000;stroke-linejoin:miter;stroke-width:0.1;"/>
   </g>
   <g id="patch_257">
    <path d="M 212.930023 165.502486 
C 211.84571 165.62361 210.763452 165.762472 209.683683 165.919017 
C 208.603915 166.075562 207.526781 166.24977 206.452715 166.441569 
L 224.0308 264.878 
L 212.930023 165.502486 
z
" style="fill:#00bfff;stroke:#000000;stroke-linejoin:miter;stroke-width:0.1;"/>
   </g>
   <g id="patch_258">
    <path d="M 206.452715 166.441569 
C 205.201398 166.66502 203.954456 166.912311 202.712569 167.183307 
C 201.470681 167.454303 200.234074 167.748954 199.003421 168.0671 
L 224.0308 264.878 
L 206.452715 166.441569 
z
" style="fill:#ff7f50;stroke:#000000;stroke-linejoin:miter;stroke-width:0.1;"/>
   </g>
   <g id="patch_259">
    <path d="M 199.003421 168.0671 
C 197.547359 168.443519 196.099974 168.852739 194.662372 169.294448 
C 193.224769 169.736157 191.797315 170.210243 190.381098 170.716343 
L 224.0308 264.878 
L 199.003421 168.0671 
z
" style="fill:#ffff00;stroke:#000000;stroke-linejoin:miter;stroke-width:0.1;"/>
   </g>
   <g id="patch_260">
    <path d="M 190.381098 170.716343 
C 188.758031 171.296364 187.150233 171.918253 185.559314 172.581387 
C 183.968395 173.244521 182.394888 173.948678 180.84037 174.693152 
L 224.0308 264.878 
L 190.381098 170.716343 
z
" style="fill:#9acd32;stroke:#000000;stroke-linejoin:miter;stroke-width:0.1;"/>
   </g>
   <g id="patch_261">
    <path d="M 180.84037 174.693152 
C 178.922206 175.61178 177.033839 176.591371 175.178149 177.63043 
C 173.322459 178.669489 171.500391 179.767487 169.714726 180.922749 
L 224.0308 264.878 
L 180.84037 174.693152 
z
" style="fill:#cd3333;stroke:#000000;stroke-linejoin:miter;stroke-width:0.1;"/>
   </g>
   <g id="patch_262">
    <path d="M 169.714726 180.922749 
C 165.788612 183.462806 162.045506 186.27514 158.512974 189.33904 
C 154.980443 192.402939 151.667181 195.710863 148.597589 199.238449 
L 224.0308 264.878 
L 169.714726 180.922749 
z
" style="fill:#00ffff;stroke:#000000;stroke-linejoin:miter;stroke-width:0.1;"/>
   </g>
   <g id="patch_263">
    <path d="M 148.597589 199.238449 
C 144.821057 203.578453 141.42611 208.236292 138.450552 213.1601 
C 135.474994 218.083907 132.929912 223.255338 130.843646 228.616804 
L 224.0308 264.878 
L 148.597589 199.238449 
z
" style="fill:#b8860b;stroke:#000000;stroke-linejoin:miter;stroke-width:0.1;"/>
   </g>
   <g id="patch_264">
    <path d="M 130.843646 228.616804 
C 127.592267 236.972479 125.479433 245.727628 124.562024 254.646549 
C 123.644616 263.565469 123.93094 272.567398 125.41329 281.409989 
L 224.0308 264.878 
L 130.843646 228.616804 
z
" style="fill:#f5deb3;stroke:#000000;stroke-linejoin:miter;stroke-width:0.1;"/>
   </g>
   <g id="patch_265">
    <path d="M 125.41329 281.409989 
C 128.565843 300.21577 137.032806 317.733133 149.810921 331.886429 
C 162.589035 346.039725 179.15285 356.246953 197.539703 361.29865 
C 215.926555 366.350347 235.380357 366.038781 253.596008 360.400869 
C 271.811659 354.762957 288.040111 344.030538 300.358438 329.475305 
C 312.676765 314.920072 320.578424 297.140554 323.127139 278.243463 
C 325.675855 259.346372 322.766821 240.108779 314.744731 222.810164 
C 306.722641 205.51155 293.917374 190.863253 277.846238 180.600964 
C 261.775101 170.338676 243.098959 164.884393 224.030766 164.8844 
L 224.0308 264.878 
L 125.41329 281.409989 
z
" style="fill:#ff00ff;stroke:#000000;stroke-linejoin:miter;stroke-width:0.1;"/>
   </g>
   <g id="matplotlib.axis_1"/>
   <g id="matplotlib.axis_2"/>
   <g id="text_1">
    <text style="font-family:Arial;font-size:6.5px;font-style:normal;font-weight:normal;" transform="translate(214.690591 71.280572)rotate(-271.387689)">endomembrane system</text>
   </g>
   <g id="text_2">
    <text style="font-family:Arial;font-size:6.5px;font-style:normal;font-weight:normal;" transform="translate(206.023922 97.68584)rotate(-274.5746)">focal adhesion</text>
   </g>
   <g id="text_3">
    <text style="font-family:Arial;font-size:6.5px;font-style:normal;font-weight:normal;" transform="translate(194.496452 92.728092)rotate(-278.249289)">respiratory chain</text>
   </g>
   <g id="text_4">
    <text style="font-family:Arial;font-size:6.5px;font-style:normal;font-weight:normal;" transform="translate(180.977938 88.119815)rotate(-282.309709)">extracellular region</text>
   </g>
   <g id="text_5">
    <text style="font-family:Arial;font-size:6.5px;font-style:normal;font-weight:normal;" transform="translate(174.914672 119.118044)rotate(-287.079783)">envelope</text>
   </g>
   <g id="text_6">
    <text style="font-family:Arial;font-size:6.5px;font-style:normal;font-weight:normal;" transform="translate(141.071808 75.657507)rotate(-292.627566)">membrane-enclosed lumen</text>
   </g>
   <g id="text_7">
    <text style="font-family:Arial;font-size:6.5px;font-style:normal;font-weight:normal;" transform="translate(123.262424 91.531275)rotate(-299.24583)">macromolecular complex</text>
   </g>
   <g id="text_8">
    <text style="font-family:Arial;font-size:6.5px;font-style:normal;font-weight:normal;" transform="translate(131.760413 161.700445)rotate(-310.936344)">cell</text>
   </g>
   <g id="text_9">
    <text style="font-family:Arial;font-size:6.5px;font-style:normal;font-weight:normal;" transform="translate(91.151883 184.859891)rotate(-328.854564)">organelle</text>
   </g>
   <g id="text_10">
    <text style="font-family:Arial;font-size:6.5px;font-style:normal;font-weight:normal;" transform="translate(41.898523 224.42416)rotate(-347.814945)">additional categories</text>
   </g>
   <g id="text_11">
    <text style="font-family:Arial;font-size:6.5px;font-style:normal;font-weight:normal;" transform="translate(7.243396 256.635135)rotate(-358.182212)">NADH dehydrogenase complex</text>
   </g>
   <g id="text_12">
    <text style="font-family:Arial;font-size:6.5px;font-style:normal;font-weight:normal;" transform="translate(19.57966 273.014411)rotate(-0.976516)">membrane protein complex</text>
   </g>
   <g id="text_13">
    <text style="font-family:Arial;font-size:6.5px;font-style:normal;font-weight:normal;" transform="translate(28.656013 283.700785)rotate(-4.153851)">oxidoreductase complex</text>
   </g>
   <g id="text_14">
    <text style="font-family:Arial;font-size:6.5px;font-style:normal;font-weight:normal;" transform="translate(25.876667 296.156341)rotate(-7.67175)">respiratory chain complex</text>
   </g>
   <g id="text_15">
    <text style="font-family:Arial;font-size:6.5px;font-style:normal;font-weight:normal;" transform="translate(55.93319 348.362173)rotate(-25.326846)">additional categories</text>
   </g>
   <g id="text_16">
    <text style="font-family:Arial;font-size:6.5px;font-style:normal;font-weight:normal;" transform="translate(80.497829 398.217036)rotate(-42.32916)">large ribosomal subunit</text>
   </g>
   <g id="text_17">
    <text style="font-family:Arial;font-size:6.5px;font-style:normal;font-weight:normal;" transform="translate(115.689964 376.310394)rotate(-45.193862)">ribosome</text>
   </g>
   <g id="text_18">
    <text style="font-family:Arial;font-size:6.5px;font-style:normal;font-weight:normal;" transform="translate(104.415846 402.260334)rotate(-48.555476)">cytosolic ribosome</text>
   </g>
   <g id="text_19">
    <text style="font-family:Arial;font-size:6.5px;font-style:normal;font-weight:normal;" transform="translate(125.420744 394.545707)rotate(-52.424532)">nuclear part</text>
   </g>
   <g id="text_20">
    <text style="font-family:Arial;font-size:6.5px;font-style:normal;font-weight:normal;" transform="translate(122.031877 422.883191)rotate(-57.029638)">organelle membrane</text>
   </g>
   <g id="text_21">
    <text style="font-family:Arial;font-size:6.5px;font-style:normal;font-weight:normal;" transform="translate(138.118521 426.602757)rotate(-62.035449)">organelle envelope</text>
   </g>
   <g id="text_22">
    <text style="font-family:Arial;font-size:6.5px;font-style:normal;font-weight:normal;" transform="translate(135.841248 475.058714)rotate(-67.357186)">non-membrane-bounded organelle</text>
   </g>
   <g id="text_23">
    <text style="font-family:Arial;font-size:6.5px;font-style:normal;font-weight:normal;" transform="translate(172.290272 430.2331)rotate(-72.881707)">protein complex</text>
   </g>
   <g id="text_24">
    <text style="font-family:Arial;font-size:6.5px;font-style:normal;font-weight:normal;" transform="translate(181.974407 468.744232)rotate(-78.656179)">intracellular organelle lumen</text>
   </g>
   <g id="text_25">
    <text style="font-family:Arial;font-size:6.5px;font-style:normal;font-weight:normal;" transform="translate(210.630554 410.33421)rotate(-85.227038)">vesicle</text>
   </g>
   <g id="text_26">
    <text style="font-family:Arial;font-size:6.5px;font-style:normal;font-weight:normal;" transform="translate(230.755892 390.667853)rotate(-272.477734)">mitochondrial part</text>
   </g>
   <g id="text_27">
    <text style="font-family:Arial;font-size:6.5px;font-style:normal;font-weight:normal;" transform="translate(247.093821 389.498097)rotate(-279.947651)">cytosol</text>
   </g>
   <g id="text_28">
    <text style="font-family:Arial;font-size:6.5px;font-style:normal;font-weight:normal;" transform="translate(263.356638 386.082983)rotate(-287.640616)">extracellular exosome</text>
   </g>
   <g id="text_29">
    <text style="font-family:Arial;font-size:6.5px;font-style:normal;font-weight:normal;" transform="translate(281.969651 379.128641)rotate(-296.855257)">mitochondrion</text>
   </g>
   <g id="text_30">
    <text style="font-family:Arial;font-size:6.5px;font-style:normal;font-weight:normal;" transform="translate(303.600053 365.965359)rotate(-308.643866)">organelle part</text>
   </g>
   <g id="text_31">
    <text style="font-family:Arial;font-size:6.5px;font-style:normal;font-weight:normal;" transform="translate(325.113013 344.421411)rotate(-322.896719)">intracellular membrane-bounded organelle</text>
   </g>
   <g id="text_32">
    <text style="font-family:Arial;font-size:6.5px;font-style:normal;font-weight:normal;" transform="translate(341.62984 314.848796)rotate(-338.71336)">cell part</text>
   </g>
   <g id="text_33">
    <text style="font-family:Arial;font-size:6.5px;font-style:normal;font-weight:normal;" transform="translate(349.51453 278.483548)rotate(-355.910445)">intracellular organelle</text>
   </g>
   <g id="text_34">
    <text style="font-family:Arial;font-size:6.5px;font-style:normal;font-weight:normal;" transform="translate(346.53882 230.51234)rotate(-15.241055)">cytoplasmic part</text>
   </g>
   <g id="text_35">
    <text style="font-family:Arial;font-size:6.5px;font-style:normal;font-weight:normal;" transform="translate(328.6168 190.103334)rotate(-35.874951)">cytoplasm</text>
   </g>
   <g id="text_36">
    <text style="font-family:Arial;font-size:6.5px;font-style:normal;font-weight:normal;" transform="translate(295.984359 158.479077)rotate(-57.229627)">intracellular part</text>
   </g>
   <g id="text_37">
    <text style="font-family:Arial;font-size:6.5px;font-style:normal;font-weight:normal;" transform="translate(252.460528 141.212046)rotate(-79.057636)">intracellular</text>
   </g>
   <g id="text_38">
    <text style="font-family:Arial;font-size:6.5px;font-style:normal;font-weight:normal;" transform="translate(165.659923 200.784994)rotate(-310.936348)">GO4</text>
   </g>
   <g id="text_39">
    <text style="font-family:Arial;font-size:6.5px;font-style:normal;font-weight:normal;" transform="translate(149.970613 220.470467)rotate(-328.85457)">GO3</text>
   </g>
   <g id="text_40">
    <text style="font-family:Arial;font-size:6.5px;font-style:normal;font-weight:normal;" transform="translate(140.272471 255.026413)rotate(-354.127157)">GO2</text>
   </g>
   <g id="text_41">
    <text style="font-family:Arial;font-size:6.5px;font-style:normal;font-weight:normal;" transform="translate(278.294716 313.647544)rotate(-319.758226)">GO1</text>
   </g>
   <g id="legend_1">
    <g id="text_42">
     <text style="font-family:Arial;font-size:6.5px;font-style:normal;font-weight:normal;text-anchor:start;" transform="rotate(-0, 569.7208, 14.531797)" x="569.7208" y="14.531797">Name &amp; Proportion of Cellular component (inner ring)</text>
    </g>
    <g id="patch_266">
     <path d="M 583.381464 23.802422 
L 596.381464 23.802422 
L 596.381464 19.252422 
L 583.381464 19.252422 
z
" style="fill:#ff00ff;stroke:#000000;stroke-linejoin:miter;stroke-width:0.1;"/>
    </g>
    <g id="text_43">
     <text style="font-family:Arial;font-size:6.5px;font-style:normal;font-weight:normal;text-anchor:start;" transform="rotate(-0, 601.581464, 23.802422)" x="601.581464" y="23.802422">GO1 mitochondrion, 72.4%</text>
    </g>
    <g id="patch_267">
     <path d="M 583.381464 33.080156 
L 596.381464 33.080156 
L 596.381464 28.530156 
L 583.381464 28.530156 
z
" style="fill:#f5deb3;stroke:#000000;stroke-linejoin:miter;stroke-width:0.1;"/>
    </g>
    <g id="text_44">
     <text style="font-family:Arial;font-size:6.5px;font-style:normal;font-weight:normal;text-anchor:start;" transform="rotate(-0, 601.581464, 33.080156)" x="601.581464" y="33.080156">GO2 respiratory chain complex, 8.6%</text>
    </g>
    <g id="patch_268">
     <path d="M 583.381464 42.434062 
L 596.381464 42.434062 
L 596.381464 37.884062 
L 583.381464 37.884062 
z
" style="fill:#b8860b;stroke:#000000;stroke-linejoin:miter;stroke-width:0.1;"/>
    </g>
    <g id="text_45">
     <text style="font-family:Arial;font-size:6.5px;font-style:normal;font-weight:normal;text-anchor:start;" transform="rotate(-0, 601.581464, 42.434062)" x="601.581464" y="42.434062">GO3 organelle, 5.5%</text>
    </g>
    <g id="patch_269">
     <path d="M 583.381464 51.704687 
L 596.381464 51.704687 
L 596.381464 47.154687 
L 583.381464 47.154687 
z
" style="fill:#00ffff;stroke:#000000;stroke-linejoin:miter;stroke-width:0.1;"/>
    </g>
    <g id="text_46">
     <text style="font-family:Arial;font-size:6.5px;font-style:normal;font-weight:normal;text-anchor:start;" transform="rotate(-0, 601.581464, 51.704687)" x="601.581464" y="51.704687">GO4 cell, 4.5%</text>
    </g>
    <g id="patch_270">
     <path d="M 583.381464 60.978359 
L 596.381464 60.978359 
L 596.381464 56.428359 
L 583.381464 56.428359 
z
" style="fill:#cd3333;stroke:#000000;stroke-linejoin:miter;stroke-width:0.1;"/>
    </g>
    <g id="text_47">
     <text style="font-family:Arial;font-size:6.5px;font-style:normal;font-weight:normal;text-anchor:start;" transform="rotate(-0, 601.581464, 60.978359)" x="601.581464" y="60.978359">macromolecular complex, 2.0%</text>
    </g>
    <g id="patch_271">
     <path d="M 583.381464 70.172812 
L 596.381464 70.172812 
L 596.381464 65.622812 
L 583.381464 65.622812 
z
" style="fill:#9acd32;stroke:#000000;stroke-linejoin:miter;stroke-width:0.1;"/>
    </g>
    <g id="text_48">
     <text style="font-family:Arial;font-size:6.5px;font-style:normal;font-weight:normal;text-anchor:start;" transform="rotate(-0, 601.581464, 70.172812)" x="601.581464" y="70.172812">membrane-enclosed lumen, 1.6%</text>
    </g>
    <g id="patch_272">
     <path d="M 583.381464 79.446484 
L 596.381464 79.446484 
L 596.381464 74.896484 
L 583.381464 74.896484 
z
" style="fill:#ffff00;stroke:#000000;stroke-linejoin:miter;stroke-width:0.1;"/>
    </g>
    <g id="text_49">
     <text style="font-family:Arial;font-size:6.5px;font-style:normal;font-weight:normal;text-anchor:start;" transform="rotate(-0, 601.581464, 79.446484)" x="601.581464" y="79.446484">envelope, 1.4%</text>
    </g>
    <g id="patch_273">
     <path d="M 583.381464 88.720156 
L 596.381464 88.720156 
L 596.381464 84.170156 
L 583.381464 84.170156 
z
" style="fill:#ff7f50;stroke:#000000;stroke-linejoin:miter;stroke-width:0.1;"/>
    </g>
    <g id="text_50">
     <text style="font-family:Arial;font-size:6.5px;font-style:normal;font-weight:normal;text-anchor:start;" transform="rotate(-0, 601.581464, 88.720156)" x="601.581464" y="88.720156">extracellular region, 1.2%</text>
    </g>
    <g id="patch_274">
     <path d="M 583.381464 98.07 
L 596.381464 98.07 
L 596.381464 93.52 
L 583.381464 93.52 
z
" style="fill:#00bfff;stroke:#000000;stroke-linejoin:miter;stroke-width:0.1;"/>
    </g>
    <g id="text_51">
     <text style="font-family:Arial;font-size:6.5px;font-style:normal;font-weight:normal;text-anchor:start;" transform="rotate(-0, 601.581464, 98.07)" x="601.581464" y="98.07">respiratory chain, 1.0%</text>
    </g>
    <g id="patch_275">
     <path d="M 583.381464 107.340625 
L 596.381464 107.340625 
L 596.381464 102.790625 
L 583.381464 102.790625 
z
" style="fill:#ff1493;stroke:#000000;stroke-linejoin:miter;stroke-width:0.1;"/>
    </g>
    <g id="text_52">
     <text style="font-family:Arial;font-size:6.5px;font-style:normal;font-weight:normal;text-anchor:start;" transform="rotate(-0, 601.581464, 107.340625)" x="601.581464" y="107.340625">focal adhesion, 1.0%</text>
    </g>
    <g id="patch_276">
     <path d="M 583.381464 116.614297 
L 596.381464 116.614297 
L 596.381464 112.064297 
L 583.381464 112.064297 
z
" style="fill:#7fffd4;stroke:#000000;stroke-linejoin:miter;stroke-width:0.1;"/>
    </g>
    <g id="text_53">
     <text style="font-family:Arial;font-size:6.5px;font-style:normal;font-weight:normal;text-anchor:start;" transform="rotate(-0, 601.581464, 116.614297)" x="601.581464" y="116.614297">endomembrane system, 0.8%</text>
    </g>
   </g>
  </g>
 </g>
</svg>
