<?xml version="1.0" encoding="utf-8" standalone="no"?>
<!DOCTYPE svg PUBLIC "-//W3C//DTD SVG 1.1//EN"
  "http://www.w3.org/Graphics/SVG/1.1/DTD/svg11.dtd">
<!-- Created with matplotlib (http://matplotlib.org/) -->
<svg height="522pt" version="1.1" viewBox="0 0 776 522" width="776pt" xmlns="http://www.w3.org/2000/svg" xmlns:xlink="http://www.w3.org/1999/xlink">
 <defs>
  <style type="text/css">
*{stroke-linecap:butt;stroke-linejoin:round;}
  </style>
 </defs>
 <g id="figure_1">
  <g id="patch_1">
   <path d="M -0 522.466976 
L 776.43132 522.466976 
L 776.43132 0 
L -0 0 
z
" style="fill:#ffffff;"/>
  </g>
  <g id="axes_1">
   <g id="patch_2">
    <path d="M 244.159602 150.5996 
C 243.168892 150.5996 242.178224 150.612483 241.187849 150.638246 
C 240.197475 150.664009 239.207477 150.702649 238.218107 150.754158 
L 244.159602 264.878 
L 244.159602 150.5996 
z
" style="fill:#7fffd4;stroke:#000000;stroke-linejoin:miter;stroke-width:0.1;"/>
   </g>
   <g id="patch_3">
    <path d="M 238.218107 150.754158 
C 238.218107 150.754158 238.218107 150.754158 238.218107 150.754158 
L 244.159602 264.878 
L 238.218107 150.754158 
z
" style="fill:#7fffd4;fill-opacity:0.958333;stroke:#000000;stroke-linejoin:miter;stroke-width:0.1;"/>
   </g>
   <g id="patch_4">
    <path d="M 238.218107 150.754158 
C 238.218107 150.754158 238.218107 150.754158 238.218107 150.754158 
L 244.159602 264.878 
L 238.218107 150.754158 
z
" style="fill:#7fffd4;fill-opacity:0.916667;stroke:#000000;stroke-linejoin:miter;stroke-width:0.1;"/>
   </g>
   <g id="patch_5">
    <path d="M 238.218107 150.754158 
C 238.218107 150.754158 238.218107 150.754158 238.218107 150.754158 
L 244.159602 264.878 
L 238.218107 150.754158 
z
" style="fill:#7fffd4;fill-opacity:0.875;stroke:#000000;stroke-linejoin:miter;stroke-width:0.1;"/>
   </g>
   <g id="patch_6">
    <path d="M 238.218107 150.754158 
C 238.218107 150.754158 238.218107 150.754158 238.218107 150.754158 
L 244.159602 264.878 
L 238.218107 150.754158 
z
" style="fill:#7fffd4;fill-opacity:0.833333;stroke:#000000;stroke-linejoin:miter;stroke-width:0.1;"/>
   </g>
   <g id="patch_7">
    <path d="M 238.218107 150.754158 
C 238.218107 150.754158 238.218107 150.754158 238.218107 150.754158 
L 244.159602 264.878 
L 238.218107 150.754158 
z
" style="fill:#7fffd4;fill-opacity:0.791667;stroke:#000000;stroke-linejoin:miter;stroke-width:0.1;"/>
   </g>
   <g id="patch_8">
    <path d="M 238.218107 150.754158 
C 238.218107 150.754158 238.218107 150.754158 238.218107 150.754158 
L 244.159602 264.878 
L 238.218107 150.754158 
z
" style="fill:#7fffd4;fill-opacity:0.75;stroke:#000000;stroke-linejoin:miter;stroke-width:0.1;"/>
   </g>
   <g id="patch_9">
    <path d="M 238.218107 150.754158 
C 238.218107 150.754158 238.218107 150.754158 238.218107 150.754158 
L 244.159602 264.878 
L 238.218107 150.754158 
z
" style="fill:#7fffd4;fill-opacity:0.708333;stroke:#000000;stroke-linejoin:miter;stroke-width:0.1;"/>
   </g>
   <g id="patch_10">
    <path d="M 238.218107 150.754158 
C 238.218107 150.754158 238.218107 150.754158 238.218107 150.754158 
L 244.159602 264.878 
L 238.218107 150.754158 
z
" style="fill:#7fffd4;fill-opacity:0.666667;stroke:#000000;stroke-linejoin:miter;stroke-width:0.1;"/>
   </g>
   <g id="patch_11">
    <path d="M 238.218107 150.754158 
C 238.218107 150.754158 238.218107 150.754158 238.218107 150.754158 
L 244.159602 264.878 
L 238.218107 150.754158 
z
" style="fill:#7fffd4;fill-opacity:0.625;stroke:#000000;stroke-linejoin:miter;stroke-width:0.1;"/>
   </g>
   <g id="patch_12">
    <path d="M 238.218107 150.754158 
C 238.218107 150.754158 238.218107 150.754158 238.218107 150.754158 
L 244.159602 264.878 
L 238.218107 150.754158 
z
" style="fill:#7fffd4;fill-opacity:0.583333;stroke:#000000;stroke-linejoin:miter;stroke-width:0.1;"/>
   </g>
   <g id="patch_13">
    <path d="M 238.218107 150.754158 
C 238.218107 150.754158 238.218107 150.754158 238.218107 150.754158 
L 244.159602 264.878 
L 238.218107 150.754158 
z
" style="fill:#7fffd4;fill-opacity:0.541667;stroke:#000000;stroke-linejoin:miter;stroke-width:0.1;"/>
   </g>
   <g id="patch_14">
    <path d="M 238.218107 150.754158 
C 236.990981 150.818044 235.764965 150.901719 234.540538 151.005148 
C 233.316111 151.108578 232.093431 151.23175 230.872977 151.374615 
L 244.159602 264.878 
L 238.218107 150.754158 
z
" style="fill:#ff1493;stroke:#000000;stroke-linejoin:miter;stroke-width:0.1;"/>
   </g>
   <g id="patch_15">
    <path d="M 230.872977 151.374615 
C 230.872977 151.374615 230.872977 151.374615 230.872977 151.374615 
L 244.159602 264.878 
L 230.872977 151.374615 
z
" style="fill:#ff1493;fill-opacity:0.958333;stroke:#000000;stroke-linejoin:miter;stroke-width:0.1;"/>
   </g>
   <g id="patch_16">
    <path d="M 230.872977 151.374615 
C 230.872977 151.374615 230.872977 151.374615 230.872977 151.374615 
L 244.159602 264.878 
L 230.872977 151.374615 
z
" style="fill:#ff1493;fill-opacity:0.916667;stroke:#000000;stroke-linejoin:miter;stroke-width:0.1;"/>
   </g>
   <g id="patch_17">
    <path d="M 230.872977 151.374615 
C 230.872977 151.374615 230.872977 151.374615 230.872977 151.374615 
L 244.159602 264.878 
L 230.872977 151.374615 
z
" style="fill:#ff1493;fill-opacity:0.875;stroke:#000000;stroke-linejoin:miter;stroke-width:0.1;"/>
   </g>
   <g id="patch_18">
    <path d="M 230.872977 151.374615 
C 230.872977 151.374615 230.872977 151.374615 230.872977 151.374615 
L 244.159602 264.878 
L 230.872977 151.374615 
z
" style="fill:#ff1493;fill-opacity:0.833333;stroke:#000000;stroke-linejoin:miter;stroke-width:0.1;"/>
   </g>
   <g id="patch_19">
    <path d="M 230.872977 151.374615 
C 230.872977 151.374615 230.872977 151.374615 230.872977 151.374615 
L 244.159602 264.878 
L 230.872977 151.374615 
z
" style="fill:#ff1493;fill-opacity:0.791667;stroke:#000000;stroke-linejoin:miter;stroke-width:0.1;"/>
   </g>
   <g id="patch_20">
    <path d="M 230.872977 151.374615 
C 230.872977 151.374615 230.872977 151.374615 230.872977 151.374615 
L 244.159602 264.878 
L 230.872977 151.374615 
z
" style="fill:#ff1493;fill-opacity:0.75;stroke:#000000;stroke-linejoin:miter;stroke-width:0.1;"/>
   </g>
   <g id="patch_21">
    <path d="M 230.872977 151.374615 
C 230.872977 151.374615 230.872977 151.374615 230.872977 151.374615 
L 244.159602 264.878 
L 230.872977 151.374615 
z
" style="fill:#ff1493;fill-opacity:0.708333;stroke:#000000;stroke-linejoin:miter;stroke-width:0.1;"/>
   </g>
   <g id="patch_22">
    <path d="M 230.872977 151.374615 
C 230.872977 151.374615 230.872977 151.374615 230.872977 151.374615 
L 244.159602 264.878 
L 230.872977 151.374615 
z
" style="fill:#ff1493;fill-opacity:0.666667;stroke:#000000;stroke-linejoin:miter;stroke-width:0.1;"/>
   </g>
   <g id="patch_23">
    <path d="M 230.872977 151.374615 
C 230.872977 151.374615 230.872977 151.374615 230.872977 151.374615 
L 244.159602 264.878 
L 230.872977 151.374615 
z
" style="fill:#ff1493;fill-opacity:0.625;stroke:#000000;stroke-linejoin:miter;stroke-width:0.1;"/>
   </g>
   <g id="patch_24">
    <path d="M 230.872977 151.374615 
C 230.872977 151.374615 230.872977 151.374615 230.872977 151.374615 
L 244.159602 264.878 
L 230.872977 151.374615 
z
" style="fill:#ff1493;fill-opacity:0.583333;stroke:#000000;stroke-linejoin:miter;stroke-width:0.1;"/>
   </g>
   <g id="patch_25">
    <path d="M 230.872977 151.374615 
C 230.872977 151.374615 230.872977 151.374615 230.872977 151.374615 
L 244.159602 264.878 
L 230.872977 151.374615 
z
" style="fill:#ff1493;fill-opacity:0.541667;stroke:#000000;stroke-linejoin:miter;stroke-width:0.1;"/>
   </g>
   <g id="patch_26">
    <path d="M 230.872977 151.374615 
C 229.527331 151.532136 228.184592 151.713574 226.845398 151.918843 
C 225.506204 152.124113 224.170767 152.353182 222.839719 152.605941 
L 244.159602 264.878 
L 230.872977 151.374615 
z
" style="fill:#00bfff;stroke:#000000;stroke-linejoin:miter;stroke-width:0.1;"/>
   </g>
   <g id="patch_27">
    <path d="M 222.839719 152.605941 
C 222.839719 152.605941 222.839719 152.605941 222.839719 152.605941 
L 244.159602 264.878 
L 222.839719 152.605941 
z
" style="fill:#00bfff;fill-opacity:0.958333;stroke:#000000;stroke-linejoin:miter;stroke-width:0.1;"/>
   </g>
   <g id="patch_28">
    <path d="M 222.839719 152.605941 
C 222.839719 152.605941 222.839719 152.605941 222.839719 152.605941 
L 244.159602 264.878 
L 222.839719 152.605941 
z
" style="fill:#00bfff;fill-opacity:0.916667;stroke:#000000;stroke-linejoin:miter;stroke-width:0.1;"/>
   </g>
   <g id="patch_29">
    <path d="M 222.839719 152.605941 
C 222.839719 152.605941 222.839719 152.605941 222.839719 152.605941 
L 244.159602 264.878 
L 222.839719 152.605941 
z
" style="fill:#00bfff;fill-opacity:0.875;stroke:#000000;stroke-linejoin:miter;stroke-width:0.1;"/>
   </g>
   <g id="patch_30">
    <path d="M 222.839719 152.605941 
C 222.839719 152.605941 222.839719 152.605941 222.839719 152.605941 
L 244.159602 264.878 
L 222.839719 152.605941 
z
" style="fill:#00bfff;fill-opacity:0.833333;stroke:#000000;stroke-linejoin:miter;stroke-width:0.1;"/>
   </g>
   <g id="patch_31">
    <path d="M 222.839719 152.605941 
C 222.839719 152.605941 222.839719 152.605941 222.839719 152.605941 
L 244.159602 264.878 
L 222.839719 152.605941 
z
" style="fill:#00bfff;fill-opacity:0.791667;stroke:#000000;stroke-linejoin:miter;stroke-width:0.1;"/>
   </g>
   <g id="patch_32">
    <path d="M 222.839719 152.605941 
C 222.839719 152.605941 222.839719 152.605941 222.839719 152.605941 
L 244.159602 264.878 
L 222.839719 152.605941 
z
" style="fill:#00bfff;fill-opacity:0.75;stroke:#000000;stroke-linejoin:miter;stroke-width:0.1;"/>
   </g>
   <g id="patch_33">
    <path d="M 222.839719 152.605941 
C 222.839719 152.605941 222.839719 152.605941 222.839719 152.605941 
L 244.159602 264.878 
L 222.839719 152.605941 
z
" style="fill:#00bfff;fill-opacity:0.708333;stroke:#000000;stroke-linejoin:miter;stroke-width:0.1;"/>
   </g>
   <g id="patch_34">
    <path d="M 222.839719 152.605941 
C 222.839719 152.605941 222.839719 152.605941 222.839719 152.605941 
L 244.159602 264.878 
L 222.839719 152.605941 
z
" style="fill:#00bfff;fill-opacity:0.666667;stroke:#000000;stroke-linejoin:miter;stroke-width:0.1;"/>
   </g>
   <g id="patch_35">
    <path d="M 222.839719 152.605941 
C 222.839719 152.605941 222.839719 152.605941 222.839719 152.605941 
L 244.159602 264.878 
L 222.839719 152.605941 
z
" style="fill:#00bfff;fill-opacity:0.625;stroke:#000000;stroke-linejoin:miter;stroke-width:0.1;"/>
   </g>
   <g id="patch_36">
    <path d="M 222.839719 152.605941 
C 222.839719 152.605941 222.839719 152.605941 222.839719 152.605941 
L 244.159602 264.878 
L 222.839719 152.605941 
z
" style="fill:#00bfff;fill-opacity:0.583333;stroke:#000000;stroke-linejoin:miter;stroke-width:0.1;"/>
   </g>
   <g id="patch_37">
    <path d="M 222.839719 152.605941 
C 222.839719 152.605941 222.839719 152.605941 222.839719 152.605941 
L 244.159602 264.878 
L 222.839719 152.605941 
z
" style="fill:#00bfff;fill-opacity:0.541667;stroke:#000000;stroke-linejoin:miter;stroke-width:0.1;"/>
   </g>
   <g id="patch_38">
    <path d="M 222.839719 152.605941 
C 222.159892 152.735036 221.481253 152.870304 220.803884 153.011727 
C 220.126514 153.153149 219.450444 153.300722 218.775755 153.454425 
L 244.159602 264.878 
L 222.839719 152.605941 
z
" style="fill:#ff7f50;fill-opacity:0.958333;stroke:#000000;stroke-linejoin:miter;stroke-width:0.1;"/>
   </g>
   <g id="patch_39">
    <path d="M 218.775755 153.454425 
C 217.436103 153.759617 216.102063 154.088943 214.774288 154.442245 
C 213.446512 154.795546 212.125216 155.172765 210.811044 155.573717 
L 244.159602 264.878 
L 218.775755 153.454425 
z
" style="fill:#ff7f50;stroke:#000000;stroke-linejoin:miter;stroke-width:0.1;"/>
   </g>
   <g id="patch_40">
    <path d="M 210.811044 155.573717 
C 210.811044 155.573717 210.811044 155.573717 210.811044 155.573717 
L 244.159602 264.878 
L 210.811044 155.573717 
z
" style="fill:#ff7f50;fill-opacity:0.541667;stroke:#000000;stroke-linejoin:miter;stroke-width:0.1;"/>
   </g>
   <g id="patch_41">
    <path d="M 210.811044 155.573717 
C 210.811044 155.573717 210.811044 155.573717 210.811044 155.573717 
L 244.159602 264.878 
L 210.811044 155.573717 
z
" style="fill:#ff7f50;fill-opacity:0.583333;stroke:#000000;stroke-linejoin:miter;stroke-width:0.1;"/>
   </g>
   <g id="patch_42">
    <path d="M 210.811044 155.573717 
C 210.811044 155.573717 210.811044 155.573717 210.811044 155.573717 
L 244.159602 264.878 
L 210.811044 155.573717 
z
" style="fill:#ff7f50;fill-opacity:0.625;stroke:#000000;stroke-linejoin:miter;stroke-width:0.1;"/>
   </g>
   <g id="patch_43">
    <path d="M 210.811044 155.573717 
C 210.811044 155.573717 210.811044 155.573717 210.811044 155.573717 
L 244.159602 264.878 
L 210.811044 155.573717 
z
" style="fill:#ff7f50;fill-opacity:0.666667;stroke:#000000;stroke-linejoin:miter;stroke-width:0.1;"/>
   </g>
   <g id="patch_44">
    <path d="M 210.811044 155.573717 
C 210.811044 155.573717 210.811044 155.573717 210.811044 155.573717 
L 244.159602 264.878 
L 210.811044 155.573717 
z
" style="fill:#ff7f50;fill-opacity:0.708333;stroke:#000000;stroke-linejoin:miter;stroke-width:0.1;"/>
   </g>
   <g id="patch_45">
    <path d="M 210.811044 155.573717 
C 210.811044 155.573717 210.811044 155.573717 210.811044 155.573717 
L 244.159602 264.878 
L 210.811044 155.573717 
z
" style="fill:#ff7f50;fill-opacity:0.75;stroke:#000000;stroke-linejoin:miter;stroke-width:0.1;"/>
   </g>
   <g id="patch_46">
    <path d="M 210.811044 155.573717 
C 210.811044 155.573717 210.811044 155.573717 210.811044 155.573717 
L 244.159602 264.878 
L 210.811044 155.573717 
z
" style="fill:#ff7f50;fill-opacity:0.791667;stroke:#000000;stroke-linejoin:miter;stroke-width:0.1;"/>
   </g>
   <g id="patch_47">
    <path d="M 210.811044 155.573717 
C 210.811044 155.573717 210.811044 155.573717 210.811044 155.573717 
L 244.159602 264.878 
L 210.811044 155.573717 
z
" style="fill:#ff7f50;fill-opacity:0.833333;stroke:#000000;stroke-linejoin:miter;stroke-width:0.1;"/>
   </g>
   <g id="patch_48">
    <path d="M 210.811044 155.573717 
C 210.811044 155.573717 210.811044 155.573717 210.811044 155.573717 
L 244.159602 264.878 
L 210.811044 155.573717 
z
" style="fill:#ff7f50;fill-opacity:0.875;stroke:#000000;stroke-linejoin:miter;stroke-width:0.1;"/>
   </g>
   <g id="patch_49">
    <path d="M 210.811044 155.573717 
C 210.811044 155.573717 210.811044 155.573717 210.811044 155.573717 
L 244.159602 264.878 
L 210.811044 155.573717 
z
" style="fill:#ff7f50;fill-opacity:0.916667;stroke:#000000;stroke-linejoin:miter;stroke-width:0.1;"/>
   </g>
   <g id="patch_50">
    <path d="M 210.811044 155.573717 
C 208.602129 156.247653 206.414151 156.988394 204.250124 157.794919 
C 202.086097 158.601444 199.947016 159.473382 197.835828 160.409533 
L 244.159602 264.878 
L 210.811044 155.573717 
z
" style="fill:#ffff00;stroke:#000000;stroke-linejoin:miter;stroke-width:0.1;"/>
   </g>
   <g id="patch_51">
    <path d="M 197.835828 160.409533 
C 197.835828 160.409533 197.835828 160.409533 197.835828 160.409533 
L 244.159602 264.878 
L 197.835828 160.409533 
z
" style="fill:#ffff00;fill-opacity:0.958333;stroke:#000000;stroke-linejoin:miter;stroke-width:0.1;"/>
   </g>
   <g id="patch_52">
    <path d="M 197.835828 160.409533 
C 197.835828 160.409533 197.835828 160.409533 197.835828 160.409533 
L 244.159602 264.878 
L 197.835828 160.409533 
z
" style="fill:#ffff00;fill-opacity:0.916667;stroke:#000000;stroke-linejoin:miter;stroke-width:0.1;"/>
   </g>
   <g id="patch_53">
    <path d="M 197.835828 160.409533 
C 197.835828 160.409533 197.835828 160.409533 197.835828 160.409533 
L 244.159602 264.878 
L 197.835828 160.409533 
z
" style="fill:#ffff00;fill-opacity:0.875;stroke:#000000;stroke-linejoin:miter;stroke-width:0.1;"/>
   </g>
   <g id="patch_54">
    <path d="M 197.835828 160.409533 
C 197.835828 160.409533 197.835828 160.409533 197.835828 160.409533 
L 244.159602 264.878 
L 197.835828 160.409533 
z
" style="fill:#ffff00;fill-opacity:0.833333;stroke:#000000;stroke-linejoin:miter;stroke-width:0.1;"/>
   </g>
   <g id="patch_55">
    <path d="M 197.835828 160.409533 
C 197.835828 160.409533 197.835828 160.409533 197.835828 160.409533 
L 244.159602 264.878 
L 197.835828 160.409533 
z
" style="fill:#ffff00;fill-opacity:0.791667;stroke:#000000;stroke-linejoin:miter;stroke-width:0.1;"/>
   </g>
   <g id="patch_56">
    <path d="M 197.835828 160.409533 
C 197.835828 160.409533 197.835828 160.409533 197.835828 160.409533 
L 244.159602 264.878 
L 197.835828 160.409533 
z
" style="fill:#ffff00;fill-opacity:0.75;stroke:#000000;stroke-linejoin:miter;stroke-width:0.1;"/>
   </g>
   <g id="patch_57">
    <path d="M 197.835828 160.409533 
C 197.835828 160.409533 197.835828 160.409533 197.835828 160.409533 
L 244.159602 264.878 
L 197.835828 160.409533 
z
" style="fill:#ffff00;fill-opacity:0.708333;stroke:#000000;stroke-linejoin:miter;stroke-width:0.1;"/>
   </g>
   <g id="patch_58">
    <path d="M 197.835828 160.409533 
C 197.835828 160.409533 197.835828 160.409533 197.835828 160.409533 
L 244.159602 264.878 
L 197.835828 160.409533 
z
" style="fill:#ffff00;fill-opacity:0.666667;stroke:#000000;stroke-linejoin:miter;stroke-width:0.1;"/>
   </g>
   <g id="patch_59">
    <path d="M 197.835828 160.409533 
C 197.835828 160.409533 197.835828 160.409533 197.835828 160.409533 
L 244.159602 264.878 
L 197.835828 160.409533 
z
" style="fill:#ffff00;fill-opacity:0.625;stroke:#000000;stroke-linejoin:miter;stroke-width:0.1;"/>
   </g>
   <g id="patch_60">
    <path d="M 197.835828 160.409533 
C 197.835828 160.409533 197.835828 160.409533 197.835828 160.409533 
L 244.159602 264.878 
L 197.835828 160.409533 
z
" style="fill:#ffff00;fill-opacity:0.583333;stroke:#000000;stroke-linejoin:miter;stroke-width:0.1;"/>
   </g>
   <g id="patch_61">
    <path d="M 197.835828 160.409533 
C 197.835828 160.409533 197.835828 160.409533 197.835828 160.409533 
L 244.159602 264.878 
L 197.835828 160.409533 
z
" style="fill:#ffff00;fill-opacity:0.541667;stroke:#000000;stroke-linejoin:miter;stroke-width:0.1;"/>
   </g>
   <g id="patch_62">
    <path d="M 197.835828 160.409533 
C 195.679486 161.365705 193.553266 162.388412 191.460223 163.476184 
C 189.367181 164.563956 187.308319 165.716271 185.286597 166.931473 
L 244.159602 264.878 
L 197.835828 160.409533 
z
" style="fill:#9acd32;stroke:#000000;stroke-linejoin:miter;stroke-width:0.1;"/>
   </g>
   <g id="patch_63">
    <path d="M 185.286597 166.931473 
C 185.286597 166.931473 185.286597 166.931473 185.286597 166.931473 
L 244.159602 264.878 
L 185.286597 166.931473 
z
" style="fill:#9acd32;fill-opacity:0.958333;stroke:#000000;stroke-linejoin:miter;stroke-width:0.1;"/>
   </g>
   <g id="patch_64">
    <path d="M 185.286597 166.931473 
C 185.286597 166.931473 185.286597 166.931473 185.286597 166.931473 
L 244.159602 264.878 
L 185.286597 166.931473 
z
" style="fill:#9acd32;fill-opacity:0.916667;stroke:#000000;stroke-linejoin:miter;stroke-width:0.1;"/>
   </g>
   <g id="patch_65">
    <path d="M 185.286597 166.931473 
C 185.286597 166.931473 185.286597 166.931473 185.286597 166.931473 
L 244.159602 264.878 
L 185.286597 166.931473 
z
" style="fill:#9acd32;fill-opacity:0.875;stroke:#000000;stroke-linejoin:miter;stroke-width:0.1;"/>
   </g>
   <g id="patch_66">
    <path d="M 185.286597 166.931473 
C 185.286597 166.931473 185.286597 166.931473 185.286597 166.931473 
L 244.159602 264.878 
L 185.286597 166.931473 
z
" style="fill:#9acd32;fill-opacity:0.833333;stroke:#000000;stroke-linejoin:miter;stroke-width:0.1;"/>
   </g>
   <g id="patch_67">
    <path d="M 185.286597 166.931473 
C 185.286597 166.931473 185.286597 166.931473 185.286597 166.931473 
L 244.159602 264.878 
L 185.286597 166.931473 
z
" style="fill:#9acd32;fill-opacity:0.791667;stroke:#000000;stroke-linejoin:miter;stroke-width:0.1;"/>
   </g>
   <g id="patch_68">
    <path d="M 185.286597 166.931473 
C 185.286597 166.931473 185.286597 166.931473 185.286597 166.931473 
L 244.159602 264.878 
L 185.286597 166.931473 
z
" style="fill:#9acd32;fill-opacity:0.75;stroke:#000000;stroke-linejoin:miter;stroke-width:0.1;"/>
   </g>
   <g id="patch_69">
    <path d="M 185.286597 166.931473 
C 185.286597 166.931473 185.286597 166.931473 185.286597 166.931473 
L 244.159602 264.878 
L 185.286597 166.931473 
z
" style="fill:#9acd32;fill-opacity:0.708333;stroke:#000000;stroke-linejoin:miter;stroke-width:0.1;"/>
   </g>
   <g id="patch_70">
    <path d="M 185.286597 166.931473 
C 185.286597 166.931473 185.286597 166.931473 185.286597 166.931473 
L 244.159602 264.878 
L 185.286597 166.931473 
z
" style="fill:#9acd32;fill-opacity:0.666667;stroke:#000000;stroke-linejoin:miter;stroke-width:0.1;"/>
   </g>
   <g id="patch_71">
    <path d="M 185.286597 166.931473 
C 185.286597 166.931473 185.286597 166.931473 185.286597 166.931473 
L 244.159602 264.878 
L 185.286597 166.931473 
z
" style="fill:#9acd32;fill-opacity:0.625;stroke:#000000;stroke-linejoin:miter;stroke-width:0.1;"/>
   </g>
   <g id="patch_72">
    <path d="M 185.286597 166.931473 
C 185.286597 166.931473 185.286597 166.931473 185.286597 166.931473 
L 244.159602 264.878 
L 185.286597 166.931473 
z
" style="fill:#9acd32;fill-opacity:0.583333;stroke:#000000;stroke-linejoin:miter;stroke-width:0.1;"/>
   </g>
   <g id="patch_73">
    <path d="M 185.286597 166.931473 
C 185.286597 166.931473 185.286597 166.931473 185.286597 166.931473 
L 244.159602 264.878 
L 185.286597 166.931473 
z
" style="fill:#9acd32;fill-opacity:0.541667;stroke:#000000;stroke-linejoin:miter;stroke-width:0.1;"/>
   </g>
   <g id="patch_74">
    <path d="M 185.286597 166.931473 
C 183.157989 168.210922 181.071654 169.559421 179.030917 170.97482 
C 176.99018 172.39022 174.996125 173.871768 173.051929 175.417105 
L 244.159602 264.878 
L 185.286597 166.931473 
z
" style="fill:#cd3333;fill-opacity:0.958333;stroke:#000000;stroke-linejoin:miter;stroke-width:0.1;"/>
   </g>
   <g id="patch_75">
    <path d="M 173.051929 175.417105 
C 172.217792 176.080116 171.392969 176.754761 170.577701 177.440842 
C 169.762434 178.126922 168.956802 178.824372 168.161041 179.532985 
L 244.159602 264.878 
L 173.051929 175.417105 
z
" style="fill:#cd3333;stroke:#000000;stroke-linejoin:miter;stroke-width:0.1;"/>
   </g>
   <g id="patch_76">
    <path d="M 168.161041 179.532985 
C 168.161041 179.532985 168.161041 179.532985 168.161041 179.532985 
L 244.159602 264.878 
L 168.161041 179.532985 
z
" style="fill:#cd3333;fill-opacity:0.541667;stroke:#000000;stroke-linejoin:miter;stroke-width:0.1;"/>
   </g>
   <g id="patch_77">
    <path d="M 168.161041 179.532985 
C 168.161041 179.532985 168.161041 179.532985 168.161041 179.532985 
L 244.159602 264.878 
L 168.161041 179.532985 
z
" style="fill:#cd3333;fill-opacity:0.583333;stroke:#000000;stroke-linejoin:miter;stroke-width:0.1;"/>
   </g>
   <g id="patch_78">
    <path d="M 168.161041 179.532985 
C 168.161041 179.532985 168.161041 179.532985 168.161041 179.532985 
L 244.159602 264.878 
L 168.161041 179.532985 
z
" style="fill:#cd3333;fill-opacity:0.625;stroke:#000000;stroke-linejoin:miter;stroke-width:0.1;"/>
   </g>
   <g id="patch_79">
    <path d="M 168.161041 179.532985 
C 168.161041 179.532985 168.161041 179.532985 168.161041 179.532985 
L 244.159602 264.878 
L 168.161041 179.532985 
z
" style="fill:#cd3333;fill-opacity:0.666667;stroke:#000000;stroke-linejoin:miter;stroke-width:0.1;"/>
   </g>
   <g id="patch_80">
    <path d="M 168.161041 179.532985 
C 168.161041 179.532985 168.161041 179.532985 168.161041 179.532985 
L 244.159602 264.878 
L 168.161041 179.532985 
z
" style="fill:#cd3333;fill-opacity:0.708333;stroke:#000000;stroke-linejoin:miter;stroke-width:0.1;"/>
   </g>
   <g id="patch_81">
    <path d="M 168.161041 179.532985 
C 168.161041 179.532985 168.161041 179.532985 168.161041 179.532985 
L 244.159602 264.878 
L 168.161041 179.532985 
z
" style="fill:#cd3333;fill-opacity:0.75;stroke:#000000;stroke-linejoin:miter;stroke-width:0.1;"/>
   </g>
   <g id="patch_82">
    <path d="M 168.161041 179.532985 
C 168.161041 179.532985 168.161041 179.532985 168.161041 179.532985 
L 244.159602 264.878 
L 168.161041 179.532985 
z
" style="fill:#cd3333;fill-opacity:0.791667;stroke:#000000;stroke-linejoin:miter;stroke-width:0.1;"/>
   </g>
   <g id="patch_83">
    <path d="M 168.161041 179.532985 
C 168.161041 179.532985 168.161041 179.532985 168.161041 179.532985 
L 244.159602 264.878 
L 168.161041 179.532985 
z
" style="fill:#cd3333;fill-opacity:0.833333;stroke:#000000;stroke-linejoin:miter;stroke-width:0.1;"/>
   </g>
   <g id="patch_84">
    <path d="M 168.161041 179.532985 
C 168.161041 179.532985 168.161041 179.532985 168.161041 179.532985 
L 244.159602 264.878 
L 168.161041 179.532985 
z
" style="fill:#cd3333;fill-opacity:0.875;stroke:#000000;stroke-linejoin:miter;stroke-width:0.1;"/>
   </g>
   <g id="patch_85">
    <path d="M 168.161041 179.532985 
C 168.161041 179.532985 168.161041 179.532985 168.161041 179.532985 
L 244.159602 264.878 
L 168.161041 179.532985 
z
" style="fill:#cd3333;fill-opacity:0.916667;stroke:#000000;stroke-linejoin:miter;stroke-width:0.1;"/>
   </g>
   <g id="patch_86">
    <path d="M 168.161041 179.532985 
C 164.699938 182.61505 161.429523 185.904807 158.367922 189.384024 
C 155.30632 192.863242 152.459197 196.525481 149.84233 200.350448 
L 244.159602 264.878 
L 168.161041 179.532985 
z
" style="fill:#00ffff;stroke:#000000;stroke-linejoin:miter;stroke-width:0.1;"/>
   </g>
   <g id="patch_87">
    <path d="M 149.84233 200.350448 
C 149.84233 200.350448 149.84233 200.350448 149.84233 200.350448 
L 244.159602 264.878 
L 149.84233 200.350448 
z
" style="fill:#00ffff;fill-opacity:0.958333;stroke:#000000;stroke-linejoin:miter;stroke-width:0.1;"/>
   </g>
   <g id="patch_88">
    <path d="M 149.84233 200.350448 
C 149.84233 200.350448 149.84233 200.350448 149.84233 200.350448 
L 244.159602 264.878 
L 149.84233 200.350448 
z
" style="fill:#00ffff;fill-opacity:0.916667;stroke:#000000;stroke-linejoin:miter;stroke-width:0.1;"/>
   </g>
   <g id="patch_89">
    <path d="M 149.84233 200.350448 
C 149.84233 200.350448 149.84233 200.350448 149.84233 200.350448 
L 244.159602 264.878 
L 149.84233 200.350448 
z
" style="fill:#00ffff;fill-opacity:0.875;stroke:#000000;stroke-linejoin:miter;stroke-width:0.1;"/>
   </g>
   <g id="patch_90">
    <path d="M 149.84233 200.350448 
C 149.84233 200.350448 149.84233 200.350448 149.84233 200.350448 
L 244.159602 264.878 
L 149.84233 200.350448 
z
" style="fill:#00ffff;fill-opacity:0.833333;stroke:#000000;stroke-linejoin:miter;stroke-width:0.1;"/>
   </g>
   <g id="patch_91">
    <path d="M 149.84233 200.350448 
C 149.84233 200.350448 149.84233 200.350448 149.84233 200.350448 
L 244.159602 264.878 
L 149.84233 200.350448 
z
" style="fill:#00ffff;fill-opacity:0.791667;stroke:#000000;stroke-linejoin:miter;stroke-width:0.1;"/>
   </g>
   <g id="patch_92">
    <path d="M 149.84233 200.350448 
C 149.84233 200.350448 149.84233 200.350448 149.84233 200.350448 
L 244.159602 264.878 
L 149.84233 200.350448 
z
" style="fill:#00ffff;fill-opacity:0.75;stroke:#000000;stroke-linejoin:miter;stroke-width:0.1;"/>
   </g>
   <g id="patch_93">
    <path d="M 149.84233 200.350448 
C 149.84233 200.350448 149.84233 200.350448 149.84233 200.350448 
L 244.159602 264.878 
L 149.84233 200.350448 
z
" style="fill:#00ffff;fill-opacity:0.708333;stroke:#000000;stroke-linejoin:miter;stroke-width:0.1;"/>
   </g>
   <g id="patch_94">
    <path d="M 149.84233 200.350448 
C 149.84233 200.350448 149.84233 200.350448 149.84233 200.350448 
L 244.159602 264.878 
L 149.84233 200.350448 
z
" style="fill:#00ffff;fill-opacity:0.666667;stroke:#000000;stroke-linejoin:miter;stroke-width:0.1;"/>
   </g>
   <g id="patch_95">
    <path d="M 149.84233 200.350448 
C 149.84233 200.350448 149.84233 200.350448 149.84233 200.350448 
L 244.159602 264.878 
L 149.84233 200.350448 
z
" style="fill:#00ffff;fill-opacity:0.625;stroke:#000000;stroke-linejoin:miter;stroke-width:0.1;"/>
   </g>
   <g id="patch_96">
    <path d="M 149.84233 200.350448 
C 149.84233 200.350448 149.84233 200.350448 149.84233 200.350448 
L 244.159602 264.878 
L 149.84233 200.350448 
z
" style="fill:#00ffff;fill-opacity:0.583333;stroke:#000000;stroke-linejoin:miter;stroke-width:0.1;"/>
   </g>
   <g id="patch_97">
    <path d="M 149.84233 200.350448 
C 149.84233 200.350448 149.84233 200.350448 149.84233 200.350448 
L 244.159602 264.878 
L 149.84233 200.350448 
z
" style="fill:#00ffff;fill-opacity:0.541667;stroke:#000000;stroke-linejoin:miter;stroke-width:0.1;"/>
   </g>
   <g id="patch_98">
    <path d="M 149.84233 200.350448 
C 148.700008 202.020133 147.602225 203.719857 146.550141 205.447824 
C 145.498057 207.17579 144.492044 208.931389 143.533164 210.712764 
L 244.159602 264.878 
L 149.84233 200.350448 
z
" style="fill:#b8860b;fill-opacity:0.916667;stroke:#000000;stroke-linejoin:miter;stroke-width:0.1;"/>
   </g>
   <g id="patch_99">
    <path d="M 143.533164 210.712764 
C 142.904936 211.879865 142.297061 213.057808 141.709814 214.246057 
C 141.122566 215.434307 140.556036 216.632683 140.01048 217.840642 
L 244.159602 264.878 
L 143.533164 210.712764 
z
" style="fill:#b8860b;fill-opacity:0.958333;stroke:#000000;stroke-linejoin:miter;stroke-width:0.1;"/>
   </g>
   <g id="patch_100">
    <path d="M 140.01048 217.840642 
C 139.33631 219.333373 138.694311 220.840426 138.084927 222.360756 
C 137.475542 223.881086 136.898914 225.414341 136.355441 226.959459 
L 244.159602 264.878 
L 140.01048 217.840642 
z
" style="fill:#b8860b;stroke:#000000;stroke-linejoin:miter;stroke-width:0.1;"/>
   </g>
   <g id="patch_101">
    <path d="M 136.355441 226.959459 
C 136.355441 226.959459 136.355441 226.959459 136.355441 226.959459 
L 244.159602 264.878 
L 136.355441 226.959459 
z
" style="fill:#b8860b;fill-opacity:0.541667;stroke:#000000;stroke-linejoin:miter;stroke-width:0.1;"/>
   </g>
   <g id="patch_102">
    <path d="M 136.355441 226.959459 
C 136.355441 226.959459 136.355441 226.959459 136.355441 226.959459 
L 244.159602 264.878 
L 136.355441 226.959459 
z
" style="fill:#b8860b;fill-opacity:0.583333;stroke:#000000;stroke-linejoin:miter;stroke-width:0.1;"/>
   </g>
   <g id="patch_103">
    <path d="M 136.355441 226.959459 
C 136.355441 226.959459 136.355441 226.959459 136.355441 226.959459 
L 244.159602 264.878 
L 136.355441 226.959459 
z
" style="fill:#b8860b;fill-opacity:0.625;stroke:#000000;stroke-linejoin:miter;stroke-width:0.1;"/>
   </g>
   <g id="patch_104">
    <path d="M 136.355441 226.959459 
C 136.355441 226.959459 136.355441 226.959459 136.355441 226.959459 
L 244.159602 264.878 
L 136.355441 226.959459 
z
" style="fill:#b8860b;fill-opacity:0.666667;stroke:#000000;stroke-linejoin:miter;stroke-width:0.1;"/>
   </g>
   <g id="patch_105">
    <path d="M 136.355441 226.959459 
C 136.355441 226.959459 136.355441 226.959459 136.355441 226.959459 
L 244.159602 264.878 
L 136.355441 226.959459 
z
" style="fill:#b8860b;fill-opacity:0.708333;stroke:#000000;stroke-linejoin:miter;stroke-width:0.1;"/>
   </g>
   <g id="patch_106">
    <path d="M 136.355441 226.959459 
C 136.355441 226.959459 136.355441 226.959459 136.355441 226.959459 
L 244.159602 264.878 
L 136.355441 226.959459 
z
" style="fill:#b8860b;fill-opacity:0.75;stroke:#000000;stroke-linejoin:miter;stroke-width:0.1;"/>
   </g>
   <g id="patch_107">
    <path d="M 136.355441 226.959459 
C 136.355441 226.959459 136.355441 226.959459 136.355441 226.959459 
L 244.159602 264.878 
L 136.355441 226.959459 
z
" style="fill:#b8860b;fill-opacity:0.791667;stroke:#000000;stroke-linejoin:miter;stroke-width:0.1;"/>
   </g>
   <g id="patch_108">
    <path d="M 136.355441 226.959459 
C 136.355441 226.959459 136.355441 226.959459 136.355441 226.959459 
L 244.159602 264.878 
L 136.355441 226.959459 
z
" style="fill:#b8860b;fill-opacity:0.833333;stroke:#000000;stroke-linejoin:miter;stroke-width:0.1;"/>
   </g>
   <g id="patch_109">
    <path d="M 136.355441 226.959459 
C 136.355441 226.959459 136.355441 226.959459 136.355441 226.959459 
L 244.159602 264.878 
L 136.355441 226.959459 
z
" style="fill:#b8860b;fill-opacity:0.875;stroke:#000000;stroke-linejoin:miter;stroke-width:0.1;"/>
   </g>
   <g id="patch_110">
    <path d="M 136.355441 226.959459 
C 134.037915 233.548295 132.32931 240.335744 131.25109 247.23655 
C 130.17287 254.137357 129.729568 261.122504 129.926752 268.104252 
L 244.159602 264.878 
L 136.355441 226.959459 
z
" style="fill:#f5deb3;stroke:#000000;stroke-linejoin:miter;stroke-width:0.1;"/>
   </g>
   <g id="patch_111">
    <path d="M 129.926752 268.104252 
C 129.926752 268.104252 129.926752 268.104252 129.926752 268.104252 
L 244.159602 264.878 
L 129.926752 268.104252 
z
" style="fill:#f5deb3;fill-opacity:0.958333;stroke:#000000;stroke-linejoin:miter;stroke-width:0.1;"/>
   </g>
   <g id="patch_112">
    <path d="M 129.926752 268.104252 
C 129.926752 268.104252 129.926752 268.104252 129.926752 268.104252 
L 244.159602 264.878 
L 129.926752 268.104252 
z
" style="fill:#f5deb3;fill-opacity:0.916667;stroke:#000000;stroke-linejoin:miter;stroke-width:0.1;"/>
   </g>
   <g id="patch_113">
    <path d="M 129.926752 268.104252 
C 129.926752 268.104252 129.926752 268.104252 129.926752 268.104252 
L 244.159602 264.878 
L 129.926752 268.104252 
z
" style="fill:#f5deb3;fill-opacity:0.875;stroke:#000000;stroke-linejoin:miter;stroke-width:0.1;"/>
   </g>
   <g id="patch_114">
    <path d="M 129.926752 268.104252 
C 129.926752 268.104252 129.926752 268.104252 129.926752 268.104252 
L 244.159602 264.878 
L 129.926752 268.104252 
z
" style="fill:#f5deb3;fill-opacity:0.833333;stroke:#000000;stroke-linejoin:miter;stroke-width:0.1;"/>
   </g>
   <g id="patch_115">
    <path d="M 129.926752 268.104252 
C 129.926752 268.104252 129.926752 268.104252 129.926752 268.104252 
L 244.159602 264.878 
L 129.926752 268.104252 
z
" style="fill:#f5deb3;fill-opacity:0.791667;stroke:#000000;stroke-linejoin:miter;stroke-width:0.1;"/>
   </g>
   <g id="patch_116">
    <path d="M 129.926752 268.104252 
C 129.926752 268.104252 129.926752 268.104252 129.926752 268.104252 
L 244.159602 264.878 
L 129.926752 268.104252 
z
" style="fill:#f5deb3;fill-opacity:0.75;stroke:#000000;stroke-linejoin:miter;stroke-width:0.1;"/>
   </g>
   <g id="patch_117">
    <path d="M 129.926752 268.104252 
C 129.926752 268.104252 129.926752 268.104252 129.926752 268.104252 
L 244.159602 264.878 
L 129.926752 268.104252 
z
" style="fill:#f5deb3;fill-opacity:0.708333;stroke:#000000;stroke-linejoin:miter;stroke-width:0.1;"/>
   </g>
   <g id="patch_118">
    <path d="M 129.926752 268.104252 
C 129.926752 268.104252 129.926752 268.104252 129.926752 268.104252 
L 244.159602 264.878 
L 129.926752 268.104252 
z
" style="fill:#f5deb3;fill-opacity:0.666667;stroke:#000000;stroke-linejoin:miter;stroke-width:0.1;"/>
   </g>
   <g id="patch_119">
    <path d="M 129.926752 268.104252 
C 129.926752 268.104252 129.926752 268.104252 129.926752 268.104252 
L 244.159602 264.878 
L 129.926752 268.104252 
z
" style="fill:#f5deb3;fill-opacity:0.625;stroke:#000000;stroke-linejoin:miter;stroke-width:0.1;"/>
   </g>
   <g id="patch_120">
    <path d="M 129.926752 268.104252 
C 129.926752 268.104252 129.926752 268.104252 129.926752 268.104252 
L 244.159602 264.878 
L 129.926752 268.104252 
z
" style="fill:#f5deb3;fill-opacity:0.583333;stroke:#000000;stroke-linejoin:miter;stroke-width:0.1;"/>
   </g>
   <g id="patch_121">
    <path d="M 129.926752 268.104252 
C 129.926752 268.104252 129.926752 268.104252 129.926752 268.104252 
L 244.159602 264.878 
L 129.926752 268.104252 
z
" style="fill:#f5deb3;fill-opacity:0.541667;stroke:#000000;stroke-linejoin:miter;stroke-width:0.1;"/>
   </g>
   <g id="patch_122">
    <path d="M 129.926752 268.104252 
C 130.027481 271.670809 130.295187 275.230693 130.728989 278.772203 
C 131.162792 282.313713 131.762215 285.832965 132.525288 289.318391 
L 244.159602 264.878 
L 129.926752 268.104252 
z
" style="fill:#ff00ff;fill-opacity:0.958333;stroke:#000000;stroke-linejoin:miter;stroke-width:0.1;"/>
   </g>
   <g id="patch_123">
    <path d="M 132.525288 289.318391 
C 133.286057 292.793291 134.208659 296.230775 135.290079 299.619614 
C 136.371499 303.008452 137.610559 306.34495 139.003211 309.618208 
L 244.159602 264.878 
L 132.525288 289.318391 
z
" style="fill:#ff00ff;stroke:#000000;stroke-linejoin:miter;stroke-width:0.1;"/>
   </g>
   <g id="patch_124">
    <path d="M 139.003211 309.618208 
C 139.003211 309.618208 139.003211 309.618208 139.003211 309.618208 
L 244.159602 264.878 
L 139.003211 309.618208 
z
" style="fill:#ff00ff;fill-opacity:0.541667;stroke:#000000;stroke-linejoin:miter;stroke-width:0.1;"/>
   </g>
   <g id="patch_125">
    <path d="M 139.003211 309.618208 
C 139.003211 309.618208 139.003211 309.618208 139.003211 309.618208 
L 244.159602 264.878 
L 139.003211 309.618208 
z
" style="fill:#ff00ff;fill-opacity:0.583333;stroke:#000000;stroke-linejoin:miter;stroke-width:0.1;"/>
   </g>
   <g id="patch_126">
    <path d="M 139.003211 309.618208 
C 139.003211 309.618208 139.003211 309.618208 139.003211 309.618208 
L 244.159602 264.878 
L 139.003211 309.618208 
z
" style="fill:#ff00ff;fill-opacity:0.625;stroke:#000000;stroke-linejoin:miter;stroke-width:0.1;"/>
   </g>
   <g id="patch_127">
    <path d="M 139.003211 309.618208 
C 139.003211 309.618208 139.003211 309.618208 139.003211 309.618208 
L 244.159602 264.878 
L 139.003211 309.618208 
z
" style="fill:#ff00ff;fill-opacity:0.666667;stroke:#000000;stroke-linejoin:miter;stroke-width:0.1;"/>
   </g>
   <g id="patch_128">
    <path d="M 139.003211 309.618208 
C 139.003211 309.618208 139.003211 309.618208 139.003211 309.618208 
L 244.159602 264.878 
L 139.003211 309.618208 
z
" style="fill:#ff00ff;fill-opacity:0.708333;stroke:#000000;stroke-linejoin:miter;stroke-width:0.1;"/>
   </g>
   <g id="patch_129">
    <path d="M 139.003211 309.618208 
C 139.003211 309.618208 139.003211 309.618208 139.003211 309.618208 
L 244.159602 264.878 
L 139.003211 309.618208 
z
" style="fill:#ff00ff;fill-opacity:0.75;stroke:#000000;stroke-linejoin:miter;stroke-width:0.1;"/>
   </g>
   <g id="patch_130">
    <path d="M 139.003211 309.618208 
C 139.003211 309.618208 139.003211 309.618208 139.003211 309.618208 
L 244.159602 264.878 
L 139.003211 309.618208 
z
" style="fill:#ff00ff;fill-opacity:0.791667;stroke:#000000;stroke-linejoin:miter;stroke-width:0.1;"/>
   </g>
   <g id="patch_131">
    <path d="M 139.003211 309.618208 
C 139.003211 309.618208 139.003211 309.618208 139.003211 309.618208 
L 244.159602 264.878 
L 139.003211 309.618208 
z
" style="fill:#ff00ff;fill-opacity:0.833333;stroke:#000000;stroke-linejoin:miter;stroke-width:0.1;"/>
   </g>
   <g id="patch_132">
    <path d="M 139.003211 309.618208 
C 139.003211 309.618208 139.003211 309.618208 139.003211 309.618208 
L 244.159602 264.878 
L 139.003211 309.618208 
z
" style="fill:#ff00ff;fill-opacity:0.875;stroke:#000000;stroke-linejoin:miter;stroke-width:0.1;"/>
   </g>
   <g id="patch_133">
    <path d="M 139.003211 309.618208 
C 139.003211 309.618208 139.003211 309.618208 139.003211 309.618208 
L 244.159602 264.878 
L 139.003211 309.618208 
z
" style="fill:#ff00ff;fill-opacity:0.916667;stroke:#000000;stroke-linejoin:miter;stroke-width:0.1;"/>
   </g>
   <g id="patch_134">
    <path d="M 139.003211 309.618208 
C 140.461847 313.046553 142.087268 316.401515 143.873651 319.671072 
C 145.660033 322.940629 147.605241 326.120871 149.702302 329.2004 
L 244.159602 264.878 
L 139.003211 309.618208 
z
" style="fill:#00ff00;fill-opacity:0.958333;stroke:#000000;stroke-linejoin:miter;stroke-width:0.1;"/>
   </g>
   <g id="patch_135">
    <path d="M 149.702302 329.2004 
C 151.777624 332.248006 153.999224 335.193389 156.359305 338.02621 
C 158.719387 340.859032 161.215185 343.575975 163.83794 346.167503 
L 244.159602 264.878 
L 149.702302 329.2004 
z
" style="fill:#00ff00;stroke:#000000;stroke-linejoin:miter;stroke-width:0.1;"/>
   </g>
   <g id="patch_136">
    <path d="M 163.83794 346.167503 
C 163.83794 346.167503 163.83794 346.167503 163.83794 346.167503 
L 244.159602 264.878 
L 163.83794 346.167503 
z
" style="fill:#00ff00;fill-opacity:0.541667;stroke:#000000;stroke-linejoin:miter;stroke-width:0.1;"/>
   </g>
   <g id="patch_137">
    <path d="M 163.83794 346.167503 
C 163.83794 346.167503 163.83794 346.167503 163.83794 346.167503 
L 244.159602 264.878 
L 163.83794 346.167503 
z
" style="fill:#00ff00;fill-opacity:0.583333;stroke:#000000;stroke-linejoin:miter;stroke-width:0.1;"/>
   </g>
   <g id="patch_138">
    <path d="M 163.83794 346.167503 
C 163.83794 346.167503 163.83794 346.167503 163.83794 346.167503 
L 244.159602 264.878 
L 163.83794 346.167503 
z
" style="fill:#00ff00;fill-opacity:0.625;stroke:#000000;stroke-linejoin:miter;stroke-width:0.1;"/>
   </g>
   <g id="patch_139">
    <path d="M 163.83794 346.167503 
C 163.83794 346.167503 163.83794 346.167503 163.83794 346.167503 
L 244.159602 264.878 
L 163.83794 346.167503 
z
" style="fill:#00ff00;fill-opacity:0.666667;stroke:#000000;stroke-linejoin:miter;stroke-width:0.1;"/>
   </g>
   <g id="patch_140">
    <path d="M 163.83794 346.167503 
C 163.83794 346.167503 163.83794 346.167503 163.83794 346.167503 
L 244.159602 264.878 
L 163.83794 346.167503 
z
" style="fill:#00ff00;fill-opacity:0.708333;stroke:#000000;stroke-linejoin:miter;stroke-width:0.1;"/>
   </g>
   <g id="patch_141">
    <path d="M 163.83794 346.167503 
C 163.83794 346.167503 163.83794 346.167503 163.83794 346.167503 
L 244.159602 264.878 
L 163.83794 346.167503 
z
" style="fill:#00ff00;fill-opacity:0.75;stroke:#000000;stroke-linejoin:miter;stroke-width:0.1;"/>
   </g>
   <g id="patch_142">
    <path d="M 163.83794 346.167503 
C 163.83794 346.167503 163.83794 346.167503 163.83794 346.167503 
L 244.159602 264.878 
L 163.83794 346.167503 
z
" style="fill:#00ff00;fill-opacity:0.791667;stroke:#000000;stroke-linejoin:miter;stroke-width:0.1;"/>
   </g>
   <g id="patch_143">
    <path d="M 163.83794 346.167503 
C 163.83794 346.167503 163.83794 346.167503 163.83794 346.167503 
L 244.159602 264.878 
L 163.83794 346.167503 
z
" style="fill:#00ff00;fill-opacity:0.833333;stroke:#000000;stroke-linejoin:miter;stroke-width:0.1;"/>
   </g>
   <g id="patch_144">
    <path d="M 163.83794 346.167503 
C 163.83794 346.167503 163.83794 346.167503 163.83794 346.167503 
L 244.159602 264.878 
L 163.83794 346.167503 
z
" style="fill:#00ff00;fill-opacity:0.875;stroke:#000000;stroke-linejoin:miter;stroke-width:0.1;"/>
   </g>
   <g id="patch_145">
    <path d="M 163.83794 346.167503 
C 163.83794 346.167503 163.83794 346.167503 163.83794 346.167503 
L 244.159602 264.878 
L 163.83794 346.167503 
z
" style="fill:#00ff00;fill-opacity:0.916667;stroke:#000000;stroke-linejoin:miter;stroke-width:0.1;"/>
   </g>
   <g id="patch_146">
    <path d="M 163.83794 346.167503 
C 169.647286 351.907683 176.055263 357.008613 182.95197 361.382811 
C 189.848677 365.757008 197.194458 369.379321 204.86333 372.187626 
L 244.159602 264.878 
L 163.83794 346.167503 
z
" style="fill:#ffb6c1;stroke:#000000;stroke-linejoin:miter;stroke-width:0.1;"/>
   </g>
   <g id="patch_147">
    <path d="M 204.86333 372.187626 
C 204.86333 372.187626 204.86333 372.187626 204.86333 372.187626 
L 244.159602 264.878 
L 204.86333 372.187626 
z
" style="fill:#ffb6c1;fill-opacity:0.958333;stroke:#000000;stroke-linejoin:miter;stroke-width:0.1;"/>
   </g>
   <g id="patch_148">
    <path d="M 204.86333 372.187626 
C 204.86333 372.187626 204.86333 372.187626 204.86333 372.187626 
L 244.159602 264.878 
L 204.86333 372.187626 
z
" style="fill:#ffb6c1;fill-opacity:0.916667;stroke:#000000;stroke-linejoin:miter;stroke-width:0.1;"/>
   </g>
   <g id="patch_149">
    <path d="M 204.86333 372.187626 
C 204.86333 372.187626 204.86333 372.187626 204.86333 372.187626 
L 244.159602 264.878 
L 204.86333 372.187626 
z
" style="fill:#ffb6c1;fill-opacity:0.875;stroke:#000000;stroke-linejoin:miter;stroke-width:0.1;"/>
   </g>
   <g id="patch_150">
    <path d="M 204.86333 372.187626 
C 204.86333 372.187626 204.86333 372.187626 204.86333 372.187626 
L 244.159602 264.878 
L 204.86333 372.187626 
z
" style="fill:#ffb6c1;fill-opacity:0.833333;stroke:#000000;stroke-linejoin:miter;stroke-width:0.1;"/>
   </g>
   <g id="patch_151">
    <path d="M 204.86333 372.187626 
C 204.86333 372.187626 204.86333 372.187626 204.86333 372.187626 
L 244.159602 264.878 
L 204.86333 372.187626 
z
" style="fill:#ffb6c1;fill-opacity:0.791667;stroke:#000000;stroke-linejoin:miter;stroke-width:0.1;"/>
   </g>
   <g id="patch_152">
    <path d="M 204.86333 372.187626 
C 204.86333 372.187626 204.86333 372.187626 204.86333 372.187626 
L 244.159602 264.878 
L 204.86333 372.187626 
z
" style="fill:#ffb6c1;fill-opacity:0.75;stroke:#000000;stroke-linejoin:miter;stroke-width:0.1;"/>
   </g>
   <g id="patch_153">
    <path d="M 204.86333 372.187626 
C 204.86333 372.187626 204.86333 372.187626 204.86333 372.187626 
L 244.159602 264.878 
L 204.86333 372.187626 
z
" style="fill:#ffb6c1;fill-opacity:0.708333;stroke:#000000;stroke-linejoin:miter;stroke-width:0.1;"/>
   </g>
   <g id="patch_154">
    <path d="M 204.86333 372.187626 
C 204.86333 372.187626 204.86333 372.187626 204.86333 372.187626 
L 244.159602 264.878 
L 204.86333 372.187626 
z
" style="fill:#ffb6c1;fill-opacity:0.666667;stroke:#000000;stroke-linejoin:miter;stroke-width:0.1;"/>
   </g>
   <g id="patch_155">
    <path d="M 204.86333 372.187626 
C 204.86333 372.187626 204.86333 372.187626 204.86333 372.187626 
L 244.159602 264.878 
L 204.86333 372.187626 
z
" style="fill:#ffb6c1;fill-opacity:0.625;stroke:#000000;stroke-linejoin:miter;stroke-width:0.1;"/>
   </g>
   <g id="patch_156">
    <path d="M 204.86333 372.187626 
C 204.86333 372.187626 204.86333 372.187626 204.86333 372.187626 
L 244.159602 264.878 
L 204.86333 372.187626 
z
" style="fill:#ffb6c1;fill-opacity:0.583333;stroke:#000000;stroke-linejoin:miter;stroke-width:0.1;"/>
   </g>
   <g id="patch_157">
    <path d="M 204.86333 372.187626 
C 204.86333 372.187626 204.86333 372.187626 204.86333 372.187626 
L 244.159602 264.878 
L 204.86333 372.187626 
z
" style="fill:#ffb6c1;fill-opacity:0.541667;stroke:#000000;stroke-linejoin:miter;stroke-width:0.1;"/>
   </g>
   <g id="patch_158">
    <path d="M 204.86333 372.187626 
C 211.330176 374.555754 217.997872 376.33447 224.784983 377.502051 
C 231.572095 378.669632 238.450878 379.221305 245.33732 379.150331 
L 244.159602 264.878 
L 204.86333 372.187626 
z
" style="fill:#2e8b57;fill-opacity:0.916667;stroke:#000000;stroke-linejoin:miter;stroke-width:0.1;"/>
   </g>
   <g id="patch_159">
    <path d="M 245.33732 379.150331 
C 246.287628 379.140537 247.237777 379.118889 248.187546 379.085392 
C 249.137314 379.051895 250.086627 379.006551 251.035264 378.949372 
L 244.159602 264.878 
L 245.33732 379.150331 
z
" style="fill:#2e8b57;fill-opacity:0.958333;stroke:#000000;stroke-linejoin:miter;stroke-width:0.1;"/>
   </g>
   <g id="patch_160">
    <path d="M 251.035264 378.949372 
C 252.031284 378.889337 253.026474 378.816259 254.020579 378.730158 
C 255.014685 378.644056 256.00762 378.544938 256.999129 378.432829 
L 244.159602 264.878 
L 251.035264 378.949372 
z
" style="fill:#2e8b57;stroke:#000000;stroke-linejoin:miter;stroke-width:0.1;"/>
   </g>
   <g id="patch_161">
    <path d="M 256.999129 378.432829 
C 256.999129 378.432829 256.999129 378.432829 256.999129 378.432829 
L 244.159602 264.878 
L 256.999129 378.432829 
z
" style="fill:#2e8b57;fill-opacity:0.541667;stroke:#000000;stroke-linejoin:miter;stroke-width:0.1;"/>
   </g>
   <g id="patch_162">
    <path d="M 256.999129 378.432829 
C 256.999129 378.432829 256.999129 378.432829 256.999129 378.432829 
L 244.159602 264.878 
L 256.999129 378.432829 
z
" style="fill:#2e8b57;fill-opacity:0.583333;stroke:#000000;stroke-linejoin:miter;stroke-width:0.1;"/>
   </g>
   <g id="patch_163">
    <path d="M 256.999129 378.432829 
C 256.999129 378.432829 256.999129 378.432829 256.999129 378.432829 
L 244.159602 264.878 
L 256.999129 378.432829 
z
" style="fill:#2e8b57;fill-opacity:0.625;stroke:#000000;stroke-linejoin:miter;stroke-width:0.1;"/>
   </g>
   <g id="patch_164">
    <path d="M 256.999129 378.432829 
C 256.999129 378.432829 256.999129 378.432829 256.999129 378.432829 
L 244.159602 264.878 
L 256.999129 378.432829 
z
" style="fill:#2e8b57;fill-opacity:0.666667;stroke:#000000;stroke-linejoin:miter;stroke-width:0.1;"/>
   </g>
   <g id="patch_165">
    <path d="M 256.999129 378.432829 
C 256.999129 378.432829 256.999129 378.432829 256.999129 378.432829 
L 244.159602 264.878 
L 256.999129 378.432829 
z
" style="fill:#2e8b57;fill-opacity:0.708333;stroke:#000000;stroke-linejoin:miter;stroke-width:0.1;"/>
   </g>
   <g id="patch_166">
    <path d="M 256.999129 378.432829 
C 256.999129 378.432829 256.999129 378.432829 256.999129 378.432829 
L 244.159602 264.878 
L 256.999129 378.432829 
z
" style="fill:#2e8b57;fill-opacity:0.75;stroke:#000000;stroke-linejoin:miter;stroke-width:0.1;"/>
   </g>
   <g id="patch_167">
    <path d="M 256.999129 378.432829 
C 256.999129 378.432829 256.999129 378.432829 256.999129 378.432829 
L 244.159602 264.878 
L 256.999129 378.432829 
z
" style="fill:#2e8b57;fill-opacity:0.791667;stroke:#000000;stroke-linejoin:miter;stroke-width:0.1;"/>
   </g>
   <g id="patch_168">
    <path d="M 256.999129 378.432829 
C 256.999129 378.432829 256.999129 378.432829 256.999129 378.432829 
L 244.159602 264.878 
L 256.999129 378.432829 
z
" style="fill:#2e8b57;fill-opacity:0.833333;stroke:#000000;stroke-linejoin:miter;stroke-width:0.1;"/>
   </g>
   <g id="patch_169">
    <path d="M 256.999129 378.432829 
C 256.999129 378.432829 256.999129 378.432829 256.999129 378.432829 
L 244.159602 264.878 
L 256.999129 378.432829 
z
" style="fill:#2e8b57;fill-opacity:0.875;stroke:#000000;stroke-linejoin:miter;stroke-width:0.1;"/>
   </g>
   <g id="patch_170">
    <path d="M 256.999129 378.432829 
C 268.279229 377.1574 279.306586 374.208277 289.717485 369.682732 
C 300.128384 365.157188 309.807091 359.105529 318.434373 351.727359 
L 244.159602 264.878 
L 256.999129 378.432829 
z
" style="fill:#9fb6cd;fill-opacity:0.666667;stroke:#000000;stroke-linejoin:miter;stroke-width:0.1;"/>
   </g>
   <g id="patch_171">
    <path d="M 318.434373 351.727359 
C 319.264403 351.017505 320.084215 350.295789 320.893555 349.562433 
C 321.702895 348.829077 322.50168 348.084156 323.289664 347.327899 
L 244.159602 264.878 
L 318.434373 351.727359 
z
" style="fill:#9fb6cd;fill-opacity:0.708333;stroke:#000000;stroke-linejoin:miter;stroke-width:0.1;"/>
   </g>
   <g id="patch_172">
    <path d="M 323.289664 347.327899 
C 324.083167 346.566347 324.865635 345.793378 325.636824 345.009236 
C 326.408012 344.225094 327.16784 343.42986 327.916071 342.623782 
L 244.159602 264.878 
L 323.289664 347.327899 
z
" style="fill:#9fb6cd;fill-opacity:0.75;stroke:#000000;stroke-linejoin:miter;stroke-width:0.1;"/>
   </g>
   <g id="patch_173">
    <path d="M 327.916071 342.623782 
C 328.699459 341.779829 329.470046 340.924083 330.227569 340.056838 
C 330.985092 339.189594 331.729463 338.310949 332.460429 337.421205 
L 244.159602 264.878 
L 327.916071 342.623782 
z
" style="fill:#9fb6cd;fill-opacity:0.791667;stroke:#000000;stroke-linejoin:miter;stroke-width:0.1;"/>
   </g>
   <g id="patch_174">
    <path d="M 332.460429 337.421205 
C 333.220334 336.496236 333.965659 335.559383 334.696126 334.610994 
C 335.426594 333.662605 336.142115 332.702796 336.842424 331.731924 
L 244.159602 264.878 
L 332.460429 337.421205 
z
" style="fill:#9fb6cd;fill-opacity:0.833333;stroke:#000000;stroke-linejoin:miter;stroke-width:0.1;"/>
   </g>
   <g id="patch_175">
    <path d="M 336.842424 331.731924 
C 337.672994 330.580464 338.482034 329.413627 339.269123 328.232018 
C 340.056212 327.05041 340.821212 325.854237 341.563726 324.644121 
L 244.159602 264.878 
L 336.842424 331.731924 
z
" style="fill:#9fb6cd;fill-opacity:0.875;stroke:#000000;stroke-linejoin:miter;stroke-width:0.1;"/>
   </g>
   <g id="patch_176">
    <path d="M 341.563726 324.644121 
C 342.487215 323.139061 343.375696 321.612798 344.228454 320.066563 
C 345.081212 318.520328 345.898017 316.954536 346.678212 315.370448 
L 244.159602 264.878 
L 341.563726 324.644121 
z
" style="fill:#9fb6cd;fill-opacity:0.916667;stroke:#000000;stroke-linejoin:miter;stroke-width:0.1;"/>
   </g>
   <g id="patch_177">
    <path d="M 346.678212 315.370448 
C 347.472261 313.75823 348.228169 312.127506 348.945305 310.479635 
C 349.662441 308.831764 350.340605 307.167206 350.979232 305.48735 
L 244.159602 264.878 
L 346.678212 315.370448 
z
" style="fill:#9fb6cd;fill-opacity:0.958333;stroke:#000000;stroke-linejoin:miter;stroke-width:0.1;"/>
   </g>
   <g id="patch_178">
    <path d="M 350.979232 305.48735 
C 351.939709 302.960892 352.810252 300.401154 353.589217 297.812965 
C 354.368183 295.224777 355.055081 292.609767 355.648615 289.97287 
L 244.159602 264.878 
L 350.979232 305.48735 
z
" style="fill:#9fb6cd;stroke:#000000;stroke-linejoin:miter;stroke-width:0.1;"/>
   </g>
   <g id="patch_179">
    <path d="M 355.648615 289.97287 
C 355.648615 289.97287 355.648615 289.97287 355.648615 289.97287 
L 244.159602 264.878 
L 355.648615 289.97287 
z
" style="fill:#9fb6cd;fill-opacity:0.541667;stroke:#000000;stroke-linejoin:miter;stroke-width:0.1;"/>
   </g>
   <g id="patch_180">
    <path d="M 355.648615 289.97287 
C 355.648615 289.97287 355.648615 289.97287 355.648615 289.97287 
L 244.159602 264.878 
L 355.648615 289.97287 
z
" style="fill:#9fb6cd;fill-opacity:0.583333;stroke:#000000;stroke-linejoin:miter;stroke-width:0.1;"/>
   </g>
   <g id="patch_181">
    <path d="M 355.648615 289.97287 
C 355.648615 289.97287 355.648615 289.97287 355.648615 289.97287 
L 244.159602 264.878 
L 355.648615 289.97287 
z
" style="fill:#9fb6cd;fill-opacity:0.625;stroke:#000000;stroke-linejoin:miter;stroke-width:0.1;"/>
   </g>
   <g id="patch_182">
    <path d="M 355.648615 289.97287 
C 355.902789 288.843651 356.139793 287.710636 356.359543 286.574216 
C 356.579294 285.437797 356.781767 284.298104 356.966891 283.155533 
L 244.159602 264.878 
L 355.648615 289.97287 
z
" style="fill:#da70d6;fill-opacity:0.541667;stroke:#000000;stroke-linejoin:miter;stroke-width:0.1;"/>
   </g>
   <g id="patch_183">
    <path d="M 356.966891 283.155533 
C 357.127093 282.166781 357.274288 281.175966 357.408439 280.183344 
C 357.54259 279.190722 357.663684 278.19638 357.771691 277.200574 
L 244.159602 264.878 
L 356.966891 283.155533 
z
" style="fill:#da70d6;fill-opacity:0.583333;stroke:#000000;stroke-linejoin:miter;stroke-width:0.1;"/>
   </g>
   <g id="patch_184">
    <path d="M 357.771691 277.200574 
C 357.880124 276.200843 357.975356 275.199724 358.057363 274.197478 
C 358.13937 273.195233 358.208144 272.191949 358.263668 271.187888 
L 244.159602 264.878 
L 357.771691 277.200574 
z
" style="fill:#da70d6;fill-opacity:0.625;stroke:#000000;stroke-linejoin:miter;stroke-width:0.1;"/>
   </g>
   <g id="patch_185">
    <path d="M 358.263668 271.187888 
C 358.353967 269.554979 358.409204 267.920319 358.429339 266.285039 
C 358.449475 264.649759 358.434505 263.014235 358.384441 261.379597 
L 244.159602 264.878 
L 358.263668 271.187888 
z
" style="fill:#da70d6;fill-opacity:0.666667;stroke:#000000;stroke-linejoin:miter;stroke-width:0.1;"/>
   </g>
   <g id="patch_186">
    <path d="M 358.384441 261.379597 
C 358.322658 259.362349 358.207448 257.347091 358.038932 255.335944 
C 357.870416 253.324798 357.648654 251.318468 357.373878 249.319066 
L 244.159602 264.878 
L 358.384441 261.379597 
z
" style="fill:#da70d6;fill-opacity:0.708333;stroke:#000000;stroke-linejoin:miter;stroke-width:0.1;"/>
   </g>
   <g id="patch_187">
    <path d="M 357.373878 249.319066 
C 356.941917 246.175913 356.379249 243.05211 355.687337 239.955779 
C 354.995424 236.859449 354.174867 233.793275 353.227798 230.765228 
L 244.159602 264.878 
L 357.373878 249.319066 
z
" style="fill:#da70d6;fill-opacity:0.75;stroke:#000000;stroke-linejoin:miter;stroke-width:0.1;"/>
   </g>
   <g id="patch_188">
    <path d="M 353.227798 230.765228 
C 352.147457 227.31107 350.903637 223.910183 349.500544 220.574067 
C 348.097452 217.23795 346.536671 213.97037 344.823478 210.782375 
L 244.159602 264.878 
L 353.227798 230.765228 
z
" style="fill:#da70d6;fill-opacity:0.791667;stroke:#000000;stroke-linejoin:miter;stroke-width:0.1;"/>
   </g>
   <g id="patch_189">
    <path d="M 344.823478 210.782375 
C 343.078117 207.534518 341.176592 204.373032 339.125578 201.309014 
C 337.074565 198.244996 334.876464 195.282035 332.538992 192.430529 
L 244.159602 264.878 
L 344.823478 210.782375 
z
" style="fill:#da70d6;fill-opacity:0.833333;stroke:#000000;stroke-linejoin:miter;stroke-width:0.1;"/>
   </g>
   <g id="patch_190">
    <path d="M 332.538992 192.430529 
C 330.061182 189.407824 327.429931 186.514225 324.655616 183.761143 
C 321.8813 181.008061 318.967571 178.39912 315.925918 175.944606 
L 244.159602 264.878 
L 332.538992 192.430529 
z
" style="fill:#da70d6;fill-opacity:0.875;stroke:#000000;stroke-linejoin:miter;stroke-width:0.1;"/>
   </g>
   <g id="patch_191">
    <path d="M 315.925918 175.944606 
C 312.872537 173.480628 309.694285 171.175533 306.403794 169.038482 
C 303.113302 166.90143 299.714934 164.935256 296.222194 163.147773 
L 244.159602 264.878 
L 315.925918 175.944606 
z
" style="fill:#da70d6;fill-opacity:0.916667;stroke:#000000;stroke-linejoin:miter;stroke-width:0.1;"/>
   </g>
   <g id="patch_192">
    <path d="M 296.222194 163.147773 
C 292.223646 161.101431 288.107926 159.292615 283.896459 157.730742 
C 279.684993 156.168869 275.385102 154.856653 271.019172 153.800927 
L 244.159602 264.878 
L 296.222194 163.147773 
z
" style="fill:#da70d6;fill-opacity:0.958333;stroke:#000000;stroke-linejoin:miter;stroke-width:0.1;"/>
   </g>
   <g id="patch_193">
    <path d="M 271.019172 153.800927 
C 266.625605 152.738517 262.172872 151.93772 257.684447 151.402755 
C 253.196022 150.86779 248.679809 150.599601 244.159616 150.5996 
L 244.159602 264.878 
L 271.019172 153.800927 
z
" style="fill:#da70d6;stroke:#000000;stroke-linejoin:miter;stroke-width:0.1;"/>
   </g>
   <g id="patch_194">
    <path d="M 244.159602 164.8844 
C 243.292731 164.8844 242.425896 164.895673 241.559318 164.918215 
C 240.69274 164.940758 239.826492 164.974568 238.960793 165.019638 
L 244.159602 264.878 
L 244.159602 164.8844 
z
" style="fill:#7fffd4;stroke:#000000;stroke-linejoin:miter;stroke-width:0.1;"/>
   </g>
   <g id="patch_195">
    <path d="M 238.960793 165.019638 
C 237.887058 165.075539 236.814294 165.148754 235.74292 165.239255 
C 234.671546 165.329756 233.601701 165.437531 232.533804 165.562539 
L 244.159602 264.878 
L 238.960793 165.019638 
z
" style="fill:#ff1493;stroke:#000000;stroke-linejoin:miter;stroke-width:0.1;"/>
   </g>
   <g id="patch_196">
    <path d="M 232.533804 165.562539 
C 231.356363 165.700369 230.181467 165.859127 229.009672 166.038738 
C 227.837877 166.218349 226.669369 166.418784 225.504702 166.639948 
L 244.159602 264.878 
L 232.533804 165.562539 
z
" style="fill:#00bfff;stroke:#000000;stroke-linejoin:miter;stroke-width:0.1;"/>
   </g>
   <g id="patch_197">
    <path d="M 225.504702 166.639948 
C 223.728659 166.97721 221.962089 167.362573 220.206939 167.795612 
C 218.45179 168.228652 216.708706 168.709209 214.979611 169.236753 
L 244.159602 264.878 
L 225.504702 166.639948 
z
" style="fill:#ff7f50;stroke:#000000;stroke-linejoin:miter;stroke-width:0.1;"/>
   </g>
   <g id="patch_198">
    <path d="M 214.979611 169.236753 
C 213.04681 169.826447 211.132329 170.474596 209.238805 171.180305 
C 207.345282 171.886015 205.473586 172.648961 203.626296 173.468093 
L 244.159602 264.878 
L 214.979611 169.236753 
z
" style="fill:#ffff00;stroke:#000000;stroke-linejoin:miter;stroke-width:0.1;"/>
   </g>
   <g id="patch_199">
    <path d="M 203.626296 173.468093 
C 201.739497 174.304744 199.879054 175.199613 198.047642 176.151413 
C 196.216229 177.103214 194.414725 178.11149 192.645718 179.174792 
L 244.159602 264.878 
L 203.626296 173.468093 
z
" style="fill:#9acd32;stroke:#000000;stroke-linejoin:miter;stroke-width:0.1;"/>
   </g>
   <g id="patch_200">
    <path d="M 192.645718 179.174792 
C 189.983782 180.77481 187.397836 182.497979 184.89629 184.338693 
C 182.394745 186.179408 179.980316 188.13567 177.660856 190.201117 
L 244.159602 264.878 
L 192.645718 179.174792 
z
" style="fill:#cd3333;stroke:#000000;stroke-linejoin:miter;stroke-width:0.1;"/>
   </g>
   <g id="patch_201">
    <path d="M 177.660856 190.201117 
C 174.632391 192.897923 171.770779 195.776461 169.091877 198.820776 
C 166.412976 201.865092 163.921743 205.069551 161.631985 208.416397 
L 244.159602 264.878 
L 177.660856 190.201117 
z
" style="fill:#00ffff;stroke:#000000;stroke-linejoin:miter;stroke-width:0.1;"/>
   </g>
   <g id="patch_202">
    <path d="M 161.631985 208.416397 
C 159.167575 212.018525 156.941643 215.778139 154.968473 219.671113 
C 152.995304 223.564086 151.279127 227.582073 149.830958 231.699286 
L 244.159602 264.878 
L 161.631985 208.416397 
z
" style="fill:#b8860b;stroke:#000000;stroke-linejoin:miter;stroke-width:0.1;"/>
   </g>
   <g id="patch_203">
    <path d="M 149.830958 231.699286 
C 147.803123 237.464518 146.308094 243.403537 145.364652 249.441743 
C 144.421211 255.479948 144.033322 261.591953 144.205858 267.700983 
L 244.159602 264.878 
L 149.830958 231.699286 
z
" style="fill:#f5deb3;stroke:#000000;stroke-linejoin:miter;stroke-width:0.1;"/>
   </g>
   <g id="patch_204">
    <path d="M 144.205858 267.700983 
C 144.381966 273.936435 145.14117 280.14175 146.473538 286.235736 
C 147.805905 292.329723 149.7056 298.285686 152.147765 304.025695 
L 244.159602 264.878 
L 144.205858 267.700983 
z
" style="fill:#ff00ff;stroke:#000000;stroke-linejoin:miter;stroke-width:0.1;"/>
   </g>
   <g id="patch_205">
    <path d="M 152.147765 304.025695 
C 154.688648 309.997727 157.804929 315.708224 161.452484 321.076333 
C 165.100039 326.444442 169.261571 331.444706 173.878158 336.006326 
L 244.159602 264.878 
L 152.147765 304.025695 
z
" style="fill:#00ff00;stroke:#000000;stroke-linejoin:miter;stroke-width:0.1;"/>
   </g>
   <g id="patch_206">
    <path d="M 173.878158 336.006326 
C 178.961337 341.028982 184.568318 345.492296 190.602938 349.319719 
C 196.637558 353.147141 203.065118 356.316664 209.775382 358.773929 
L 244.159602 264.878 
L 173.878158 336.006326 
z
" style="fill:#ffb6c1;stroke:#000000;stroke-linejoin:miter;stroke-width:0.1;"/>
   </g>
   <g id="patch_207">
    <path d="M 209.775382 358.773929 
C 217.038833 361.433768 224.586448 363.241836 232.266688 364.161829 
C 239.946927 365.081822 247.708044 365.107542 255.394213 364.238473 
L 244.159602 264.878 
L 209.775382 358.773929 
z
" style="fill:#2e8b57;stroke:#000000;stroke-linejoin:miter;stroke-width:0.1;"/>
   </g>
   <g id="patch_208">
    <path d="M 255.394213 364.238473 
C 276.037584 361.904343 295.449229 353.19386 310.916374 339.324312 
C 326.383519 325.454764 337.150452 307.103807 341.712495 286.835983 
L 244.159602 264.878 
L 255.394213 364.238473 
z
" style="fill:#9fb6cd;stroke:#000000;stroke-linejoin:miter;stroke-width:0.1;"/>
   </g>
   <g id="patch_209">
    <path d="M 341.712495 286.835983 
C 345.005564 272.205842 344.965685 257.020584 341.595819 242.407941 
C 338.225954 227.795298 331.611641 214.12619 322.244092 202.415752 
C 312.876543 190.705314 300.993539 181.250798 287.477571 174.754343 
C 273.961603 168.257888 259.155752 164.884396 244.159575 164.8844 
L 244.159602 264.878 
L 341.712495 286.835983 
z
" style="fill:#da70d6;stroke:#000000;stroke-linejoin:miter;stroke-width:0.1;"/>
   </g>
   <g id="matplotlib.axis_1"/>
   <g id="matplotlib.axis_2"/>
   <g id="text_1">
    <text style="font-family:Arial;font-size:6.5px;font-style:normal;font-weight:normal;" transform="translate(234.75146 85.013425)rotate(-271.490116)">transferase activity</text>
   </g>
   <g id="text_2">
    <text style="font-family:Arial;font-size:6.5px;font-style:normal;font-weight:normal;" transform="translate(224.746416 89.827672)rotate(-274.828425)">hydrolase activity</text>
   </g>
   <g id="text_3">
    <text style="font-family:Arial;font-size:6.5px;font-style:normal;font-weight:normal;" transform="translate(208.96777 65.079951)rotate(-278.714384)">structural molecule activity</text>
   </g>
   <g id="text_4">
    <text style="font-family:Arial;font-size:6.5px;font-style:normal;font-weight:normal;" transform="translate(201.729223 83.184695)rotate(-281.792951)">additional categories</text>
   </g>
   <g id="text_5">
    <text style="font-family:Arial;font-size:6.5px;font-style:normal;font-weight:normal;" transform="translate(193.868165 92.418522)rotate(-284.900306)">coenzyme binding</text>
   </g>
   <g id="text_6">
    <text style="font-family:Arial;font-size:6.5px;font-style:normal;font-weight:normal;" transform="translate(162.719634 57.582213)rotate(-290.440243)">macromolecular complex binding</text>
   </g>
   <g id="text_7">
    <text style="font-family:Arial;font-size:6.5px;font-style:normal;font-weight:normal;" transform="translate(151.740675 94.362277)rotate(-297.46128)">oxidoreductase activity</text>
   </g>
   <g id="text_8">
    <text style="font-family:Arial;font-size:6.5px;font-style:normal;font-weight:normal;" transform="translate(134.717264 111.815401)rotate(-304.744122)">additional categories</text>
   </g>
   <g id="text_9">
    <text style="font-family:Arial;font-size:6.5px;font-style:normal;font-weight:normal;" transform="translate(69.641119 60.847431)rotate(-310.081966)">hydrogen ion transmembrane transporter activity</text>
   </g>
   <g id="text_10">
    <text style="font-family:Arial;font-size:6.5px;font-style:normal;font-weight:normal;" transform="translate(112.820241 150.98111)rotate(-318.65324)">catalytic activity</text>
   </g>
   <g id="text_11">
    <text style="font-family:Arial;font-size:6.5px;font-style:normal;font-weight:normal;" transform="translate(83.446627 167.33149)rotate(-328.664574)">additional categories</text>
   </g>
   <g id="text_12">
    <text style="font-family:Arial;font-size:6.5px;font-style:normal;font-weight:normal;" transform="translate(89.254944 188.114523)rotate(-333.700852)">ATPase activity</text>
   </g>
   <g id="text_13">
    <text style="font-family:Arial;font-size:6.5px;font-style:normal;font-weight:normal;" transform="translate(7.708981 169.52697)rotate(-338.157917)">hydrolase activity, acting on acid anhydrides</text>
   </g>
   <g id="text_14">
    <text style="font-family:Arial;font-size:6.5px;font-style:normal;font-weight:normal;" transform="translate(77.113147 237.538312)rotate(-351.119591)">protein binding</text>
   </g>
   <g id="text_15">
    <text style="font-family:Arial;font-size:6.5px;font-style:normal;font-weight:normal;" transform="translate(60.042672 292.028313)rotate(-6.983416)">additional categories</text>
   </g>
   <g id="text_16">
    <text style="font-family:Arial;font-size:6.5px;font-style:normal;font-weight:normal;" transform="translate(89.227824 318.6183)rotate(-17.698527)">RNA binding</text>
   </g>
   <g id="text_17">
    <text style="font-family:Arial;font-size:6.5px;font-style:normal;font-weight:normal;" transform="translate(80.869782 357.818919)rotate(-28.650797)">additional categories</text>
   </g>
   <g id="text_18">
    <text style="font-family:Arial;font-size:6.5px;font-style:normal;font-weight:normal;" transform="translate(106.445253 382.455666)rotate(-39.798367)">nucleotide binding</text>
   </g>
   <g id="text_19">
    <text style="font-family:Arial;font-size:6.5px;font-style:normal;font-weight:normal;" transform="translate(164.448937 391.226586)rotate(-57.615317)">binding</text>
   </g>
   <g id="text_20">
    <text style="font-family:Arial;font-size:6.5px;font-style:normal;font-weight:normal;" transform="translate(211.39151 448.309391)rotate(-80.238997)">additional categories</text>
   </g>
   <g id="text_21">
    <text style="font-family:Arial;font-size:6.5px;font-style:normal;font-weight:normal;" transform="translate(249.957537 390.672912)rotate(-272.019909)">oxidoreductase activity, acting on NAD(P)H</text>
   </g>
   <g id="text_22">
    <text style="font-family:Arial;font-size:6.5px;font-style:normal;font-weight:normal;" transform="translate(256.369621 390.523676)rotate(-274.950156)">NADH dehydrogenase (ubiquinone) activity</text>
   </g>
   <g id="text_23">
    <text style="font-family:Arial;font-size:6.5px;font-style:normal;font-weight:normal;" transform="translate(295.52791 382.017989)rotate(-293.494248)">additional categories</text>
   </g>
   <g id="text_24">
    <text style="font-family:Arial;font-size:6.5px;font-style:normal;font-weight:normal;" transform="translate(329.580722 361.15492)rotate(-312.18024)">cell adhesion molecule binding</text>
   </g>
   <g id="text_25">
    <text style="font-family:Arial;font-size:6.5px;font-style:normal;font-weight:normal;" transform="translate(334.743811 356.339515)rotate(-315.477187)">protein dimerization activity</text>
   </g>
   <g id="text_26">
    <text style="font-family:Arial;font-size:6.5px;font-style:normal;font-weight:normal;" transform="translate(339.734345 351.078778)rotate(-318.863365)">kinase binding</text>
   </g>
   <g id="text_27">
    <text style="font-family:Arial;font-size:6.5px;font-style:normal;font-weight:normal;" transform="translate(344.584565 345.270276)rotate(-322.395836)">actin binding</text>
   </g>
   <g id="text_28">
    <text style="font-family:Arial;font-size:6.5px;font-style:normal;font-weight:normal;" transform="translate(349.538497 338.439582)rotate(-326.331762)">identical protein binding</text>
   </g>
   <g id="text_29">
    <text style="font-family:Arial;font-size:6.5px;font-style:normal;font-weight:normal;" transform="translate(354.896011 329.659489)rotate(-331.123005)">protein complex binding</text>
   </g>
   <g id="text_30">
    <text style="font-family:Arial;font-size:6.5px;font-style:normal;font-weight:normal;" transform="translate(359.96978 319.305904)rotate(-336.481832)">cytoskeletal protein binding</text>
   </g>
   <g id="text_31">
    <text style="font-family:Arial;font-size:6.5px;font-style:normal;font-weight:normal;" transform="translate(364.926449 305.561633)rotate(-343.249813)">enzyme binding</text>
   </g>
   <g id="text_32">
    <text style="font-family:Arial;font-size:6.5px;font-style:normal;font-weight:normal;" transform="translate(367.839267 293.311796)rotate(-349.055734)">additional categories</text>
   </g>
   <g id="text_33">
    <text style="font-family:Arial;font-size:6.5px;font-style:normal;font-weight:normal;" transform="translate(368.916546 286.32454)rotate(-352.303229)">cation binding</text>
   </g>
   <g id="text_34">
    <text style="font-family:Arial;font-size:6.5px;font-style:normal;font-weight:normal;" transform="translate(369.558704 279.766507)rotate(-355.322297)">metal ion binding</text>
   </g>
   <g id="text_35">
    <text style="font-family:Arial;font-size:6.5px;font-style:normal;font-weight:normal;" transform="translate(369.873157 271.077968)rotate(-359.294535)">nucleic acid binding</text>
   </g>
   <g id="text_36">
    <text style="font-family:Arial;font-size:6.5px;font-style:normal;font-weight:normal;" transform="translate(369.821962 253.018469)rotate(-4.789679)">cofactor binding</text>
   </g>
   <g id="text_37">
    <text style="font-family:Arial;font-size:6.5px;font-style:normal;font-weight:normal;" transform="translate(367.85476 236.128439)rotate(-12.596486)">carbohydrate derivative binding</text>
   </g>
   <g id="text_38">
    <text style="font-family:Arial;font-size:6.5px;font-style:normal;font-weight:normal;" transform="translate(361.83837 214.882618)rotate(-22.810482)">anion binding</text>
   </g>
   <g id="text_39">
    <text style="font-family:Arial;font-size:6.5px;font-style:normal;font-weight:normal;" transform="translate(351.210239 193.815261)rotate(-33.797836)">nucleoside phosphate binding</text>
   </g>
   <g id="text_40">
    <text style="font-family:Arial;font-size:6.5px;font-style:normal;font-weight:normal;" transform="translate(336.0077 174.685826)rotate(-45.220103)">small molecule binding</text>
   </g>
   <g id="text_41">
    <text style="font-family:Arial;font-size:6.5px;font-style:normal;font-weight:normal;" transform="translate(316.530095 158.709394)rotate(-56.997779)">ion binding</text>
   </g>
   <g id="text_42">
    <text style="font-family:Arial;font-size:6.5px;font-style:normal;font-weight:normal;" transform="translate(292.232395 146.540319)rotate(-69.652092)">organic cyclic compound binding</text>
   </g>
   <g id="text_43">
    <text style="font-family:Arial;font-size:6.5px;font-style:normal;font-weight:normal;" transform="translate(263.656811 139.893322)rotate(-83.203116)">heterocyclic compound binding</text>
   </g>
   <g id="text_44">
    <text style="font-family:Arial;font-size:6.5px;font-style:normal;font-weight:normal;" transform="translate(178.23405 208.600392)rotate(-318.653244)">GO9</text>
   </g>
   <g id="text_45">
    <text style="font-family:Arial;font-size:6.5px;font-style:normal;font-weight:normal;" transform="translate(167.37908 225.875295)rotate(-333.121643)">GO8</text>
   </g>
   <g id="text_46">
    <text style="font-family:Arial;font-size:6.5px;font-style:normal;font-weight:normal;" transform="translate(160.723275 250.677288)rotate(-351.119598)">GO7</text>
   </g>
   <g id="text_47">
    <text style="font-family:Arial;font-size:6.5px;font-style:normal;font-weight:normal;" transform="translate(162.094009 287.305414)rotate(-12.33288)">GO6</text>
   </g>
   <g id="text_48">
    <text style="font-family:Arial;font-size:6.5px;font-style:normal;font-weight:normal;" transform="translate(174.185313 315.779466)rotate(-34.195561)">GO5</text>
   </g>
   <g id="text_49">
    <text style="font-family:Arial;font-size:6.5px;font-style:normal;font-weight:normal;" transform="translate(198.227236 338.070485)rotate(-57.615327)">GO4</text>
   </g>
   <g id="text_50">
    <text style="font-family:Arial;font-size:6.5px;font-style:normal;font-weight:normal;" transform="translate(232.919311 348.558784)rotate(-83.169257)">GO3</text>
   </g>
   <g id="text_51">
    <text style="font-family:Arial;font-size:6.5px;font-style:normal;font-weight:normal;" transform="translate(291.851157 320.096528)rotate(-311.882905)">GO2</text>
   </g>
   <g id="text_52">
    <text style="font-family:Arial;font-size:6.5px;font-style:normal;font-weight:normal;" transform="translate(301.725036 220.145608)rotate(-38.657417)">GO1</text>
   </g>
   <g id="legend_1">
    <g id="text_53">
     <text style="font-family:Arial;font-size:6.5px;font-style:normal;font-weight:normal;text-anchor:start;" transform="rotate(-0, 603.100461, 14.531797)" x="603.100461" y="14.531797">Name &amp; Proportion of Molecular function (inner ring)</text>
    </g>
    <g id="patch_210">
     <path d="M 589.849602 23.885703 
L 602.849602 23.885703 
L 602.849602 19.335703 
L 589.849602 19.335703 
z
" style="fill:#da70d6;stroke:#000000;stroke-linejoin:miter;stroke-width:0.1;"/>
    </g>
    <g id="text_54">
     <text style="font-family:Arial;font-size:6.5px;font-style:normal;font-weight:normal;text-anchor:start;" transform="rotate(-0, 608.049602, 23.885703)" x="608.049602" y="23.885703">GO1 heparin binding, 28.5%</text>
    </g>
    <g id="patch_211">
     <path d="M 589.849602 33.239609 
L 602.849602 33.239609 
L 602.849602 28.689609 
L 589.849602 28.689609 
z
" style="fill:#9fb6cd;stroke:#000000;stroke-linejoin:miter;stroke-width:0.1;"/>
    </g>
    <g id="text_55">
     <text style="font-family:Arial;font-size:6.5px;font-style:normal;font-weight:normal;text-anchor:start;" transform="rotate(-0, 608.049602, 33.239609)" x="608.049602" y="33.239609">GO2 enzyme binding, 19.7%</text>
    </g>
    <g id="patch_212">
     <path d="M 589.849602 42.593516 
L 602.849602 42.593516 
L 602.849602 38.043516 
L 589.849602 38.043516 
z
" style="fill:#2e8b57;stroke:#000000;stroke-linejoin:miter;stroke-width:0.1;"/>
    </g>
    <g id="text_56">
     <text style="font-family:Arial;font-size:6.5px;font-style:normal;font-weight:normal;text-anchor:start;" transform="rotate(-0, 608.049602, 42.593516)" x="608.049602" y="42.593516">GO3 oxidoreductase activity, acting on NAD(P)H, 7.4%</text>
    </g>
    <g id="patch_213">
     <path d="M 589.849602 51.947422 
L 602.849602 51.947422 
L 602.849602 47.397422 
L 589.849602 47.397422 
z
" style="fill:#ffb6c1;stroke:#000000;stroke-linejoin:miter;stroke-width:0.1;"/>
    </g>
    <g id="text_57">
     <text style="font-family:Arial;font-size:6.5px;font-style:normal;font-weight:normal;text-anchor:start;" transform="rotate(-0, 608.049602, 51.947422)" x="608.049602" y="51.947422">GO4 binding, 6.8%</text>
    </g>
    <g id="patch_214">
     <path d="M 589.849602 61.301328 
L 602.849602 61.301328 
L 602.849602 56.751328 
L 589.849602 56.751328 
z
" style="fill:#00ff00;stroke:#000000;stroke-linejoin:miter;stroke-width:0.1;"/>
    </g>
    <g id="text_58">
     <text style="font-family:Arial;font-size:6.5px;font-style:normal;font-weight:normal;text-anchor:start;" transform="rotate(-0, 608.049602, 61.301328)" x="608.049602" y="61.301328">GO5 vitamin binding, 6.2%</text>
    </g>
    <g id="patch_215">
     <path d="M 589.849602 70.655234 
L 602.849602 70.655234 
L 602.849602 66.105234 
L 589.849602 66.105234 
z
" style="fill:#ff00ff;stroke:#000000;stroke-linejoin:miter;stroke-width:0.1;"/>
    </g>
    <g id="text_59">
     <text style="font-family:Arial;font-size:6.5px;font-style:normal;font-weight:normal;text-anchor:start;" transform="rotate(-0, 608.049602, 70.655234)" x="608.049602" y="70.655234">GO6 translation factor activity, RNA binding, 6.0%</text>
    </g>
    <g id="patch_216">
     <path d="M 589.849602 80.009141 
L 602.849602 80.009141 
L 602.849602 75.459141 
L 589.849602 75.459141 
z
" style="fill:#f5deb3;stroke:#000000;stroke-linejoin:miter;stroke-width:0.1;"/>
    </g>
    <g id="text_60">
     <text style="font-family:Arial;font-size:6.5px;font-style:normal;font-weight:normal;text-anchor:start;" transform="rotate(-0, 608.049602, 80.009141)" x="608.049602" y="80.009141">GO7 protein binding, 5.8%</text>
    </g>
    <g id="patch_217">
     <path d="M 589.849602 89.363047 
L 602.849602 89.363047 
L 602.849602 84.813047 
L 589.849602 84.813047 
z
" style="fill:#b8860b;stroke:#000000;stroke-linejoin:miter;stroke-width:0.1;"/>
    </g>
    <g id="text_61">
     <text style="font-family:Arial;font-size:6.5px;font-style:normal;font-weight:normal;text-anchor:start;" transform="rotate(-0, 608.049602, 89.363047)" x="608.049602" y="89.363047">GO8 ATPase activity, 4.2%</text>
    </g>
    <g id="patch_218">
     <path d="M 589.849602 98.716953 
L 602.849602 98.716953 
L 602.849602 94.166953 
L 589.849602 94.166953 
z
" style="fill:#00ffff;stroke:#000000;stroke-linejoin:miter;stroke-width:0.1;"/>
    </g>
    <g id="text_62">
     <text style="font-family:Arial;font-size:6.5px;font-style:normal;font-weight:normal;text-anchor:start;" transform="rotate(-0, 608.049602, 98.716953)" x="608.049602" y="98.716953">GO9 catalytic activity, 3.9%</text>
    </g>
    <g id="patch_219">
     <path d="M 589.849602 108.066797 
L 602.849602 108.066797 
L 602.849602 103.516797 
L 589.849602 103.516797 
z
" style="fill:#cd3333;stroke:#000000;stroke-linejoin:miter;stroke-width:0.1;"/>
    </g>
    <g id="text_63">
     <text style="font-family:Arial;font-size:6.5px;font-style:normal;font-weight:normal;text-anchor:start;" transform="rotate(-0, 608.049602, 108.066797)" x="608.049602" y="108.066797">hydrogen ion transmembrane transporter activity, 3.0%</text>
    </g>
    <g id="patch_220">
     <path d="M 589.849602 117.416641 
L 602.849602 117.416641 
L 602.849602 112.866641 
L 589.849602 112.866641 
z
" style="fill:#9acd32;stroke:#000000;stroke-linejoin:miter;stroke-width:0.1;"/>
    </g>
    <g id="text_64">
     <text style="font-family:Arial;font-size:6.5px;font-style:normal;font-weight:normal;text-anchor:start;" transform="rotate(-0, 608.049602, 117.416641)" x="608.049602" y="117.416641">oxidoreductase activity, 2.0%</text>
    </g>
    <g id="patch_221">
     <path d="M 589.849602 126.766484 
L 602.849602 126.766484 
L 602.849602 122.216484 
L 589.849602 122.216484 
z
" style="fill:#ffff00;stroke:#000000;stroke-linejoin:miter;stroke-width:0.1;"/>
    </g>
    <g id="text_65">
     <text style="font-family:Arial;font-size:6.5px;font-style:normal;font-weight:normal;text-anchor:start;" transform="rotate(-0, 608.049602, 126.766484)" x="608.049602" y="126.766484">macromolecular complex binding, 1.9%</text>
    </g>
    <g id="patch_222">
     <path d="M 589.849602 136.116328 
L 602.849602 136.116328 
L 602.849602 131.566328 
L 589.849602 131.566328 
z
" style="fill:#ff7f50;stroke:#000000;stroke-linejoin:miter;stroke-width:0.1;"/>
    </g>
    <g id="text_66">
     <text style="font-family:Arial;font-size:6.5px;font-style:normal;font-weight:normal;text-anchor:start;" transform="rotate(-0, 608.049602, 136.116328)" x="608.049602" y="136.116328">coenzyme binding, 1.7%</text>
    </g>
    <g id="patch_223">
     <path d="M 589.849602 145.466172 
L 602.849602 145.466172 
L 602.849602 140.916172 
L 589.849602 140.916172 
z
" style="fill:#00bfff;stroke:#000000;stroke-linejoin:miter;stroke-width:0.1;"/>
    </g>
    <g id="text_67">
     <text style="font-family:Arial;font-size:6.5px;font-style:normal;font-weight:normal;text-anchor:start;" transform="rotate(-0, 608.049602, 145.466172)" x="608.049602" y="145.466172">structural molecule activity, 1.1%</text>
    </g>
    <g id="patch_224">
     <path d="M 589.849602 154.816016 
L 602.849602 154.816016 
L 602.849602 150.266016 
L 589.849602 150.266016 
z
" style="fill:#ff1493;stroke:#000000;stroke-linejoin:miter;stroke-width:0.1;"/>
    </g>
    <g id="text_68">
     <text style="font-family:Arial;font-size:6.5px;font-style:normal;font-weight:normal;text-anchor:start;" transform="rotate(-0, 608.049602, 154.816016)" x="608.049602" y="154.816016">hydrolase activity, 1.0%</text>
    </g>
    <g id="patch_225">
     <path d="M 589.849602 164.165859 
L 602.849602 164.165859 
L 602.849602 159.615859 
L 589.849602 159.615859 
z
" style="fill:#7fffd4;stroke:#000000;stroke-linejoin:miter;stroke-width:0.1;"/>
    </g>
    <g id="text_69">
     <text style="font-family:Arial;font-size:6.5px;font-style:normal;font-weight:normal;text-anchor:start;" transform="rotate(-0, 608.049602, 164.165859)" x="608.049602" y="164.165859">transferase activity, 0.8%</text>
    </g>
   </g>
  </g>
 </g>
</svg>
