<?xml version="1.0" encoding="utf-8" standalone="no"?>
<!DOCTYPE svg PUBLIC "-//W3C//DTD SVG 1.1//EN"
  "http://www.w3.org/Graphics/SVG/1.1/DTD/svg11.dtd">
<!-- Created with matplotlib (http://matplotlib.org/) -->
<svg height="535pt" version="1.1" viewBox="0 0 812 535" width="812pt" xmlns="http://www.w3.org/2000/svg" xmlns:xlink="http://www.w3.org/1999/xlink">
 <defs>
  <style type="text/css">
*{stroke-linecap:butt;stroke-linejoin:round;}
  </style>
 </defs>
 <g id="figure_1">
  <g id="patch_1">
   <path d="M 0 535.599129 
L 812.073944 535.599129 
L 812.073944 0 
L 0 0 
z
" style="fill:#ffffff;"/>
  </g>
  <g id="axes_1">
   <g id="patch_2">
    <path d="M 268.58871 156.731381 
C 267.611611 156.731381 266.634552 156.743913 265.657774 156.768973 
C 264.680996 156.794033 263.70458 156.831619 262.728767 156.881722 
L 268.58871 271.009781 
L 268.58871 156.731381 
z
" style="fill:#7fffd4;stroke:#000000;stroke-linejoin:miter;stroke-width:0.1;"/>
   </g>
   <g id="patch_3">
    <path d="M 262.728767 156.881722 
C 262.728767 156.881722 262.728767 156.881722 262.728767 156.881722 
L 268.58871 271.009781 
L 262.728767 156.881722 
z
" style="fill:#7fffd4;fill-opacity:0.9375;stroke:#000000;stroke-linejoin:miter;stroke-width:0.1;"/>
   </g>
   <g id="patch_4">
    <path d="M 262.728767 156.881722 
C 262.728767 156.881722 262.728767 156.881722 262.728767 156.881722 
L 268.58871 271.009781 
L 262.728767 156.881722 
z
" style="fill:#7fffd4;fill-opacity:0.875;stroke:#000000;stroke-linejoin:miter;stroke-width:0.1;"/>
   </g>
   <g id="patch_5">
    <path d="M 262.728767 156.881722 
C 262.728767 156.881722 262.728767 156.881722 262.728767 156.881722 
L 268.58871 271.009781 
L 262.728767 156.881722 
z
" style="fill:#7fffd4;fill-opacity:0.8125;stroke:#000000;stroke-linejoin:miter;stroke-width:0.1;"/>
   </g>
   <g id="patch_6">
    <path d="M 262.728767 156.881722 
C 262.728767 156.881722 262.728767 156.881722 262.728767 156.881722 
L 268.58871 271.009781 
L 262.728767 156.881722 
z
" style="fill:#7fffd4;fill-opacity:0.75;stroke:#000000;stroke-linejoin:miter;stroke-width:0.1;"/>
   </g>
   <g id="patch_7">
    <path d="M 262.728767 156.881722 
C 262.728767 156.881722 262.728767 156.881722 262.728767 156.881722 
L 268.58871 271.009781 
L 262.728767 156.881722 
z
" style="fill:#7fffd4;fill-opacity:0.6875;stroke:#000000;stroke-linejoin:miter;stroke-width:0.1;"/>
   </g>
   <g id="patch_8">
    <path d="M 262.728767 156.881722 
C 262.728767 156.881722 262.728767 156.881722 262.728767 156.881722 
L 268.58871 271.009781 
L 262.728767 156.881722 
z
" style="fill:#7fffd4;fill-opacity:0.625;stroke:#000000;stroke-linejoin:miter;stroke-width:0.1;"/>
   </g>
   <g id="patch_9">
    <path d="M 262.728767 156.881722 
C 262.728767 156.881722 262.728767 156.881722 262.728767 156.881722 
L 268.58871 271.009781 
L 262.728767 156.881722 
z
" style="fill:#7fffd4;fill-opacity:0.5625;stroke:#000000;stroke-linejoin:miter;stroke-width:0.1;"/>
   </g>
   <g id="patch_10">
    <path d="M 262.728767 156.881722 
C 261.385801 156.950677 260.044158 157.043331 258.704463 157.159641 
C 257.364767 157.275951 256.02723 157.415898 254.692474 157.579418 
L 268.58871 271.009781 
L 262.728767 156.881722 
z
" style="fill:#ff1493;stroke:#000000;stroke-linejoin:miter;stroke-width:0.1;"/>
   </g>
   <g id="patch_11">
    <path d="M 254.692474 157.579418 
C 254.692474 157.579418 254.692474 157.579418 254.692474 157.579418 
L 268.58871 271.009781 
L 254.692474 157.579418 
z
" style="fill:#ff1493;fill-opacity:0.9375;stroke:#000000;stroke-linejoin:miter;stroke-width:0.1;"/>
   </g>
   <g id="patch_12">
    <path d="M 254.692474 157.579418 
C 254.692474 157.579418 254.692474 157.579418 254.692474 157.579418 
L 268.58871 271.009781 
L 254.692474 157.579418 
z
" style="fill:#ff1493;fill-opacity:0.875;stroke:#000000;stroke-linejoin:miter;stroke-width:0.1;"/>
   </g>
   <g id="patch_13">
    <path d="M 254.692474 157.579418 
C 254.692474 157.579418 254.692474 157.579418 254.692474 157.579418 
L 268.58871 271.009781 
L 254.692474 157.579418 
z
" style="fill:#ff1493;fill-opacity:0.8125;stroke:#000000;stroke-linejoin:miter;stroke-width:0.1;"/>
   </g>
   <g id="patch_14">
    <path d="M 254.692474 157.579418 
C 254.692474 157.579418 254.692474 157.579418 254.692474 157.579418 
L 268.58871 271.009781 
L 254.692474 157.579418 
z
" style="fill:#ff1493;fill-opacity:0.75;stroke:#000000;stroke-linejoin:miter;stroke-width:0.1;"/>
   </g>
   <g id="patch_15">
    <path d="M 254.692474 157.579418 
C 254.692474 157.579418 254.692474 157.579418 254.692474 157.579418 
L 268.58871 271.009781 
L 254.692474 157.579418 
z
" style="fill:#ff1493;fill-opacity:0.6875;stroke:#000000;stroke-linejoin:miter;stroke-width:0.1;"/>
   </g>
   <g id="patch_16">
    <path d="M 254.692474 157.579418 
C 254.692474 157.579418 254.692474 157.579418 254.692474 157.579418 
L 268.58871 271.009781 
L 254.692474 157.579418 
z
" style="fill:#ff1493;fill-opacity:0.625;stroke:#000000;stroke-linejoin:miter;stroke-width:0.1;"/>
   </g>
   <g id="patch_17">
    <path d="M 254.692474 157.579418 
C 254.692474 157.579418 254.692474 157.579418 254.692474 157.579418 
L 268.58871 271.009781 
L 254.692474 157.579418 
z
" style="fill:#ff1493;fill-opacity:0.5625;stroke:#000000;stroke-linejoin:miter;stroke-width:0.1;"/>
   </g>
   <g id="patch_18">
    <path d="M 254.692474 157.579418 
C 253.259239 157.755002 251.829461 157.957734 250.40391 158.187506 
C 248.978359 158.417278 247.55729 158.674047 246.14147 158.957677 
L 268.58871 271.009781 
L 254.692474 157.579418 
z
" style="fill:#00bfff;stroke:#000000;stroke-linejoin:miter;stroke-width:0.1;"/>
   </g>
   <g id="patch_19">
    <path d="M 246.14147 158.957677 
C 246.14147 158.957677 246.14147 158.957677 246.14147 158.957677 
L 268.58871 271.009781 
L 246.14147 158.957677 
z
" style="fill:#00bfff;fill-opacity:0.9375;stroke:#000000;stroke-linejoin:miter;stroke-width:0.1;"/>
   </g>
   <g id="patch_20">
    <path d="M 246.14147 158.957677 
C 246.14147 158.957677 246.14147 158.957677 246.14147 158.957677 
L 268.58871 271.009781 
L 246.14147 158.957677 
z
" style="fill:#00bfff;fill-opacity:0.875;stroke:#000000;stroke-linejoin:miter;stroke-width:0.1;"/>
   </g>
   <g id="patch_21">
    <path d="M 246.14147 158.957677 
C 246.14147 158.957677 246.14147 158.957677 246.14147 158.957677 
L 268.58871 271.009781 
L 246.14147 158.957677 
z
" style="fill:#00bfff;fill-opacity:0.8125;stroke:#000000;stroke-linejoin:miter;stroke-width:0.1;"/>
   </g>
   <g id="patch_22">
    <path d="M 246.14147 158.957677 
C 246.14147 158.957677 246.14147 158.957677 246.14147 158.957677 
L 268.58871 271.009781 
L 246.14147 158.957677 
z
" style="fill:#00bfff;fill-opacity:0.75;stroke:#000000;stroke-linejoin:miter;stroke-width:0.1;"/>
   </g>
   <g id="patch_23">
    <path d="M 246.14147 158.957677 
C 246.14147 158.957677 246.14147 158.957677 246.14147 158.957677 
L 268.58871 271.009781 
L 246.14147 158.957677 
z
" style="fill:#00bfff;fill-opacity:0.6875;stroke:#000000;stroke-linejoin:miter;stroke-width:0.1;"/>
   </g>
   <g id="patch_24">
    <path d="M 246.14147 158.957677 
C 246.14147 158.957677 246.14147 158.957677 246.14147 158.957677 
L 268.58871 271.009781 
L 246.14147 158.957677 
z
" style="fill:#00bfff;fill-opacity:0.625;stroke:#000000;stroke-linejoin:miter;stroke-width:0.1;"/>
   </g>
   <g id="patch_25">
    <path d="M 246.14147 158.957677 
C 246.14147 158.957677 246.14147 158.957677 246.14147 158.957677 
L 268.58871 271.009781 
L 246.14147 158.957677 
z
" style="fill:#00bfff;fill-opacity:0.5625;stroke:#000000;stroke-linejoin:miter;stroke-width:0.1;"/>
   </g>
   <g id="patch_26">
    <path d="M 246.14147 158.957677 
C 244.324913 159.321585 242.517474 159.729614 240.720755 160.181401 
C 238.924037 160.633188 237.138571 161.128601 235.36594 161.667199 
L 268.58871 271.009781 
L 246.14147 158.957677 
z
" style="fill:#ff7f50;stroke:#000000;stroke-linejoin:miter;stroke-width:0.1;"/>
   </g>
   <g id="patch_27">
    <path d="M 235.36594 161.667199 
C 235.36594 161.667199 235.36594 161.667199 235.36594 161.667199 
L 268.58871 271.009781 
L 235.36594 161.667199 
z
" style="fill:#ff7f50;fill-opacity:0.9375;stroke:#000000;stroke-linejoin:miter;stroke-width:0.1;"/>
   </g>
   <g id="patch_28">
    <path d="M 235.36594 161.667199 
C 235.36594 161.667199 235.36594 161.667199 235.36594 161.667199 
L 268.58871 271.009781 
L 235.36594 161.667199 
z
" style="fill:#ff7f50;fill-opacity:0.875;stroke:#000000;stroke-linejoin:miter;stroke-width:0.1;"/>
   </g>
   <g id="patch_29">
    <path d="M 235.36594 161.667199 
C 235.36594 161.667199 235.36594 161.667199 235.36594 161.667199 
L 268.58871 271.009781 
L 235.36594 161.667199 
z
" style="fill:#ff7f50;fill-opacity:0.8125;stroke:#000000;stroke-linejoin:miter;stroke-width:0.1;"/>
   </g>
   <g id="patch_30">
    <path d="M 235.36594 161.667199 
C 235.36594 161.667199 235.36594 161.667199 235.36594 161.667199 
L 268.58871 271.009781 
L 235.36594 161.667199 
z
" style="fill:#ff7f50;fill-opacity:0.75;stroke:#000000;stroke-linejoin:miter;stroke-width:0.1;"/>
   </g>
   <g id="patch_31">
    <path d="M 235.36594 161.667199 
C 235.36594 161.667199 235.36594 161.667199 235.36594 161.667199 
L 268.58871 271.009781 
L 235.36594 161.667199 
z
" style="fill:#ff7f50;fill-opacity:0.6875;stroke:#000000;stroke-linejoin:miter;stroke-width:0.1;"/>
   </g>
   <g id="patch_32">
    <path d="M 235.36594 161.667199 
C 235.36594 161.667199 235.36594 161.667199 235.36594 161.667199 
L 268.58871 271.009781 
L 235.36594 161.667199 
z
" style="fill:#ff7f50;fill-opacity:0.625;stroke:#000000;stroke-linejoin:miter;stroke-width:0.1;"/>
   </g>
   <g id="patch_33">
    <path d="M 235.36594 161.667199 
C 235.36594 161.667199 235.36594 161.667199 235.36594 161.667199 
L 268.58871 271.009781 
L 235.36594 161.667199 
z
" style="fill:#ff7f50;fill-opacity:0.5625;stroke:#000000;stroke-linejoin:miter;stroke-width:0.1;"/>
   </g>
   <g id="patch_34">
    <path d="M 235.36594 161.667199 
C 233.583177 162.208875 231.813929 162.794071 230.059782 163.422261 
C 228.305635 164.050451 226.567114 164.721448 224.845777 165.434649 
L 268.58871 271.009781 
L 235.36594 161.667199 
z
" style="fill:#ffff00;stroke:#000000;stroke-linejoin:miter;stroke-width:0.1;"/>
   </g>
   <g id="patch_35">
    <path d="M 224.845777 165.434649 
C 224.845777 165.434649 224.845777 165.434649 224.845777 165.434649 
L 268.58871 271.009781 
L 224.845777 165.434649 
z
" style="fill:#ffff00;fill-opacity:0.9375;stroke:#000000;stroke-linejoin:miter;stroke-width:0.1;"/>
   </g>
   <g id="patch_36">
    <path d="M 224.845777 165.434649 
C 224.845777 165.434649 224.845777 165.434649 224.845777 165.434649 
L 268.58871 271.009781 
L 224.845777 165.434649 
z
" style="fill:#ffff00;fill-opacity:0.875;stroke:#000000;stroke-linejoin:miter;stroke-width:0.1;"/>
   </g>
   <g id="patch_37">
    <path d="M 224.845777 165.434649 
C 224.845777 165.434649 224.845777 165.434649 224.845777 165.434649 
L 268.58871 271.009781 
L 224.845777 165.434649 
z
" style="fill:#ffff00;fill-opacity:0.8125;stroke:#000000;stroke-linejoin:miter;stroke-width:0.1;"/>
   </g>
   <g id="patch_38">
    <path d="M 224.845777 165.434649 
C 224.845777 165.434649 224.845777 165.434649 224.845777 165.434649 
L 268.58871 271.009781 
L 224.845777 165.434649 
z
" style="fill:#ffff00;fill-opacity:0.75;stroke:#000000;stroke-linejoin:miter;stroke-width:0.1;"/>
   </g>
   <g id="patch_39">
    <path d="M 224.845777 165.434649 
C 224.845777 165.434649 224.845777 165.434649 224.845777 165.434649 
L 268.58871 271.009781 
L 224.845777 165.434649 
z
" style="fill:#ffff00;fill-opacity:0.6875;stroke:#000000;stroke-linejoin:miter;stroke-width:0.1;"/>
   </g>
   <g id="patch_40">
    <path d="M 224.845777 165.434649 
C 224.845777 165.434649 224.845777 165.434649 224.845777 165.434649 
L 268.58871 271.009781 
L 224.845777 165.434649 
z
" style="fill:#ffff00;fill-opacity:0.625;stroke:#000000;stroke-linejoin:miter;stroke-width:0.1;"/>
   </g>
   <g id="patch_41">
    <path d="M 224.845777 165.434649 
C 224.845777 165.434649 224.845777 165.434649 224.845777 165.434649 
L 268.58871 271.009781 
L 224.845777 165.434649 
z
" style="fill:#ffff00;fill-opacity:0.5625;stroke:#000000;stroke-linejoin:miter;stroke-width:0.1;"/>
   </g>
   <g id="patch_42">
    <path d="M 224.845777 165.434649 
C 222.507538 166.403451 220.202129 167.449666 217.933365 168.571562 
C 215.6646 169.693458 213.433733 170.890416 211.244455 172.160456 
L 268.58871 271.009781 
L 224.845777 165.434649 
z
" style="fill:#9acd32;stroke:#000000;stroke-linejoin:miter;stroke-width:0.1;"/>
   </g>
   <g id="patch_43">
    <path d="M 211.244455 172.160456 
C 211.244455 172.160456 211.244455 172.160456 211.244455 172.160456 
L 268.58871 271.009781 
L 211.244455 172.160456 
z
" style="fill:#9acd32;fill-opacity:0.9375;stroke:#000000;stroke-linejoin:miter;stroke-width:0.1;"/>
   </g>
   <g id="patch_44">
    <path d="M 211.244455 172.160456 
C 211.244455 172.160456 211.244455 172.160456 211.244455 172.160456 
L 268.58871 271.009781 
L 211.244455 172.160456 
z
" style="fill:#9acd32;fill-opacity:0.875;stroke:#000000;stroke-linejoin:miter;stroke-width:0.1;"/>
   </g>
   <g id="patch_45">
    <path d="M 211.244455 172.160456 
C 211.244455 172.160456 211.244455 172.160456 211.244455 172.160456 
L 268.58871 271.009781 
L 211.244455 172.160456 
z
" style="fill:#9acd32;fill-opacity:0.8125;stroke:#000000;stroke-linejoin:miter;stroke-width:0.1;"/>
   </g>
   <g id="patch_46">
    <path d="M 211.244455 172.160456 
C 211.244455 172.160456 211.244455 172.160456 211.244455 172.160456 
L 268.58871 271.009781 
L 211.244455 172.160456 
z
" style="fill:#9acd32;fill-opacity:0.75;stroke:#000000;stroke-linejoin:miter;stroke-width:0.1;"/>
   </g>
   <g id="patch_47">
    <path d="M 211.244455 172.160456 
C 211.244455 172.160456 211.244455 172.160456 211.244455 172.160456 
L 268.58871 271.009781 
L 211.244455 172.160456 
z
" style="fill:#9acd32;fill-opacity:0.6875;stroke:#000000;stroke-linejoin:miter;stroke-width:0.1;"/>
   </g>
   <g id="patch_48">
    <path d="M 211.244455 172.160456 
C 211.244455 172.160456 211.244455 172.160456 211.244455 172.160456 
L 268.58871 271.009781 
L 211.244455 172.160456 
z
" style="fill:#9acd32;fill-opacity:0.625;stroke:#000000;stroke-linejoin:miter;stroke-width:0.1;"/>
   </g>
   <g id="patch_49">
    <path d="M 211.244455 172.160456 
C 211.244455 172.160456 211.244455 172.160456 211.244455 172.160456 
L 268.58871 271.009781 
L 211.244455 172.160456 
z
" style="fill:#9acd32;fill-opacity:0.5625;stroke:#000000;stroke-linejoin:miter;stroke-width:0.1;"/>
   </g>
   <g id="patch_50">
    <path d="M 211.244455 172.160456 
C 208.892398 173.524926 206.589791 174.972909 204.34103 176.501642 
C 202.09227 178.030374 199.898788 179.638881 197.764775 181.324091 
L 268.58871 271.009781 
L 211.244455 172.160456 
z
" style="fill:#cd3333;stroke:#000000;stroke-linejoin:miter;stroke-width:0.1;"/>
   </g>
   <g id="patch_51">
    <path d="M 197.764775 181.324091 
C 197.764775 181.324091 197.764775 181.324091 197.764775 181.324091 
L 268.58871 271.009781 
L 197.764775 181.324091 
z
" style="fill:#cd3333;fill-opacity:0.9375;stroke:#000000;stroke-linejoin:miter;stroke-width:0.1;"/>
   </g>
   <g id="patch_52">
    <path d="M 197.764775 181.324091 
C 197.764775 181.324091 197.764775 181.324091 197.764775 181.324091 
L 268.58871 271.009781 
L 197.764775 181.324091 
z
" style="fill:#cd3333;fill-opacity:0.875;stroke:#000000;stroke-linejoin:miter;stroke-width:0.1;"/>
   </g>
   <g id="patch_53">
    <path d="M 197.764775 181.324091 
C 197.764775 181.324091 197.764775 181.324091 197.764775 181.324091 
L 268.58871 271.009781 
L 197.764775 181.324091 
z
" style="fill:#cd3333;fill-opacity:0.8125;stroke:#000000;stroke-linejoin:miter;stroke-width:0.1;"/>
   </g>
   <g id="patch_54">
    <path d="M 197.764775 181.324091 
C 197.764775 181.324091 197.764775 181.324091 197.764775 181.324091 
L 268.58871 271.009781 
L 197.764775 181.324091 
z
" style="fill:#cd3333;fill-opacity:0.75;stroke:#000000;stroke-linejoin:miter;stroke-width:0.1;"/>
   </g>
   <g id="patch_55">
    <path d="M 197.764775 181.324091 
C 197.764775 181.324091 197.764775 181.324091 197.764775 181.324091 
L 268.58871 271.009781 
L 197.764775 181.324091 
z
" style="fill:#cd3333;fill-opacity:0.6875;stroke:#000000;stroke-linejoin:miter;stroke-width:0.1;"/>
   </g>
   <g id="patch_56">
    <path d="M 197.764775 181.324091 
C 197.764775 181.324091 197.764775 181.324091 197.764775 181.324091 
L 268.58871 271.009781 
L 197.764775 181.324091 
z
" style="fill:#cd3333;fill-opacity:0.625;stroke:#000000;stroke-linejoin:miter;stroke-width:0.1;"/>
   </g>
   <g id="patch_57">
    <path d="M 197.764775 181.324091 
C 197.764775 181.324091 197.764775 181.324091 197.764775 181.324091 
L 268.58871 271.009781 
L 197.764775 181.324091 
z
" style="fill:#cd3333;fill-opacity:0.5625;stroke:#000000;stroke-linejoin:miter;stroke-width:0.1;"/>
   </g>
   <g id="patch_58">
    <path d="M 197.764775 181.324091 
C 197.183629 181.783016 196.606958 182.247579 196.034843 182.717714 
C 195.462728 183.187849 194.895196 183.663533 194.332328 184.144699 
L 268.58871 271.009781 
L 197.764775 181.324091 
z
" style="fill:#00ffff;fill-opacity:0.875;stroke:#000000;stroke-linejoin:miter;stroke-width:0.1;"/>
   </g>
   <g id="patch_59">
    <path d="M 194.332328 184.144699 
C 193.256484 185.064382 192.197818 186.003972 191.156879 186.962983 
C 190.11594 187.921994 189.092907 188.900261 188.08831 189.897277 
L 268.58871 271.009781 
L 194.332328 184.144699 
z
" style="fill:#00ffff;fill-opacity:0.9375;stroke:#000000;stroke-linejoin:miter;stroke-width:0.1;"/>
   </g>
   <g id="patch_60">
    <path d="M 188.08831 189.897277 
C 186.892363 191.084199 185.722812 192.297426 184.580516 193.536069 
C 183.43822 194.774711 182.323458 196.038466 181.237048 197.326405 
L 268.58871 271.009781 
L 188.08831 189.897277 
z
" style="fill:#00ffff;stroke:#000000;stroke-linejoin:miter;stroke-width:0.1;"/>
   </g>
   <g id="patch_61">
    <path d="M 181.237048 197.326405 
C 181.237048 197.326405 181.237048 197.326405 181.237048 197.326405 
L 268.58871 271.009781 
L 181.237048 197.326405 
z
" style="fill:#00ffff;fill-opacity:0.5625;stroke:#000000;stroke-linejoin:miter;stroke-width:0.1;"/>
   </g>
   <g id="patch_62">
    <path d="M 181.237048 197.326405 
C 181.237048 197.326405 181.237048 197.326405 181.237048 197.326405 
L 268.58871 271.009781 
L 181.237048 197.326405 
z
" style="fill:#00ffff;fill-opacity:0.625;stroke:#000000;stroke-linejoin:miter;stroke-width:0.1;"/>
   </g>
   <g id="patch_63">
    <path d="M 181.237048 197.326405 
C 181.237048 197.326405 181.237048 197.326405 181.237048 197.326405 
L 268.58871 271.009781 
L 181.237048 197.326405 
z
" style="fill:#00ffff;fill-opacity:0.6875;stroke:#000000;stroke-linejoin:miter;stroke-width:0.1;"/>
   </g>
   <g id="patch_64">
    <path d="M 181.237048 197.326405 
C 181.237048 197.326405 181.237048 197.326405 181.237048 197.326405 
L 268.58871 271.009781 
L 181.237048 197.326405 
z
" style="fill:#00ffff;fill-opacity:0.75;stroke:#000000;stroke-linejoin:miter;stroke-width:0.1;"/>
   </g>
   <g id="patch_65">
    <path d="M 181.237048 197.326405 
C 181.237048 197.326405 181.237048 197.326405 181.237048 197.326405 
L 268.58871 271.009781 
L 181.237048 197.326405 
z
" style="fill:#00ffff;fill-opacity:0.8125;stroke:#000000;stroke-linejoin:miter;stroke-width:0.1;"/>
   </g>
   <g id="patch_66">
    <path d="M 181.237048 197.326405 
C 177.219231 202.089529 173.597722 207.173309 170.408759 212.526878 
C 167.219795 217.880448 164.474047 223.485893 162.198989 229.287126 
L 268.58871 271.009781 
L 181.237048 197.326405 
z
" style="fill:#b8860b;fill-opacity:0.9375;stroke:#000000;stroke-linejoin:miter;stroke-width:0.1;"/>
   </g>
   <g id="patch_67">
    <path d="M 162.198989 229.287126 
C 161.781755 230.351042 161.380503 231.421157 160.99537 232.497109 
C 160.610236 233.573061 160.241264 234.65473 159.888578 235.74175 
L 268.58871 271.009781 
L 162.198989 229.287126 
z
" style="fill:#b8860b;stroke:#000000;stroke-linejoin:miter;stroke-width:0.1;"/>
   </g>
   <g id="patch_68">
    <path d="M 159.888578 235.74175 
C 159.888578 235.74175 159.888578 235.74175 159.888578 235.74175 
L 268.58871 271.009781 
L 159.888578 235.74175 
z
" style="fill:#b8860b;fill-opacity:0.5625;stroke:#000000;stroke-linejoin:miter;stroke-width:0.1;"/>
   </g>
   <g id="patch_69">
    <path d="M 159.888578 235.74175 
C 159.888578 235.74175 159.888578 235.74175 159.888578 235.74175 
L 268.58871 271.009781 
L 159.888578 235.74175 
z
" style="fill:#b8860b;fill-opacity:0.625;stroke:#000000;stroke-linejoin:miter;stroke-width:0.1;"/>
   </g>
   <g id="patch_70">
    <path d="M 159.888578 235.74175 
C 159.888578 235.74175 159.888578 235.74175 159.888578 235.74175 
L 268.58871 271.009781 
L 159.888578 235.74175 
z
" style="fill:#b8860b;fill-opacity:0.6875;stroke:#000000;stroke-linejoin:miter;stroke-width:0.1;"/>
   </g>
   <g id="patch_71">
    <path d="M 159.888578 235.74175 
C 159.888578 235.74175 159.888578 235.74175 159.888578 235.74175 
L 268.58871 271.009781 
L 159.888578 235.74175 
z
" style="fill:#b8860b;fill-opacity:0.75;stroke:#000000;stroke-linejoin:miter;stroke-width:0.1;"/>
   </g>
   <g id="patch_72">
    <path d="M 159.888578 235.74175 
C 159.888578 235.74175 159.888578 235.74175 159.888578 235.74175 
L 268.58871 271.009781 
L 159.888578 235.74175 
z
" style="fill:#b8860b;fill-opacity:0.8125;stroke:#000000;stroke-linejoin:miter;stroke-width:0.1;"/>
   </g>
   <g id="patch_73">
    <path d="M 159.888578 235.74175 
C 159.888578 235.74175 159.888578 235.74175 159.888578 235.74175 
L 268.58871 271.009781 
L 159.888578 235.74175 
z
" style="fill:#b8860b;fill-opacity:0.875;stroke:#000000;stroke-linejoin:miter;stroke-width:0.1;"/>
   </g>
   <g id="patch_74">
    <path d="M 159.888578 235.74175 
C 158.864407 238.898363 157.978222 242.098091 157.232543 245.331835 
C 156.486865 248.565578 155.8824 251.830269 155.420869 255.116623 
L 268.58871 271.009781 
L 159.888578 235.74175 
z
" style="fill:#f5deb3;fill-opacity:0.6875;stroke:#000000;stroke-linejoin:miter;stroke-width:0.1;"/>
   </g>
   <g id="patch_75">
    <path d="M 155.420869 255.116623 
C 155.257049 256.28311 155.111274 257.452061 154.983597 258.623056 
C 154.855919 259.79405 154.746355 260.966949 154.654943 262.141331 
L 268.58871 271.009781 
L 155.420869 255.116623 
z
" style="fill:#f5deb3;fill-opacity:0.75;stroke:#000000;stroke-linejoin:miter;stroke-width:0.1;"/>
   </g>
   <g id="patch_76">
    <path d="M 154.654943 262.141331 
C 154.555746 263.415721 154.477938 264.691685 154.421551 265.968686 
C 154.365165 267.245686 154.330208 268.523542 154.316695 269.801716 
L 268.58871 271.009781 
L 154.654943 262.141331 
z
" style="fill:#f5deb3;fill-opacity:0.8125;stroke:#000000;stroke-linejoin:miter;stroke-width:0.1;"/>
   </g>
   <g id="patch_77">
    <path d="M 154.316695 269.801716 
C 154.302586 271.136322 154.311859 272.471073 154.344509 273.805355 
C 154.377159 275.139637 154.433181 276.473244 154.512551 277.805563 
L 268.58871 271.009781 
L 154.316695 269.801716 
z
" style="fill:#f5deb3;fill-opacity:0.875;stroke:#000000;stroke-linejoin:miter;stroke-width:0.1;"/>
   </g>
   <g id="patch_78">
    <path d="M 154.512551 277.805563 
C 154.593683 279.167474 154.699198 280.527823 154.829044 281.885956 
C 154.958891 283.244089 155.113048 284.599787 155.291442 285.9524 
L 268.58871 271.009781 
L 154.512551 277.805563 
z
" style="fill:#f5deb3;fill-opacity:0.9375;stroke:#000000;stroke-linejoin:miter;stroke-width:0.1;"/>
   </g>
   <g id="patch_79">
    <path d="M 155.291442 285.9524 
C 155.553426 287.9388 155.867604 289.917968 156.233652 291.887849 
C 156.5997 293.85773 157.01749 295.817644 157.48659 297.765558 
L 268.58871 271.009781 
L 155.291442 285.9524 
z
" style="fill:#f5deb3;stroke:#000000;stroke-linejoin:miter;stroke-width:0.1;"/>
   </g>
   <g id="patch_80">
    <path d="M 157.48659 297.765558 
C 157.48659 297.765558 157.48659 297.765558 157.48659 297.765558 
L 268.58871 271.009781 
L 157.48659 297.765558 
z
" style="fill:#f5deb3;fill-opacity:0.5625;stroke:#000000;stroke-linejoin:miter;stroke-width:0.1;"/>
   </g>
   <g id="patch_81">
    <path d="M 157.48659 297.765558 
C 157.48659 297.765558 157.48659 297.765558 157.48659 297.765558 
L 268.58871 271.009781 
L 157.48659 297.765558 
z
" style="fill:#f5deb3;fill-opacity:0.625;stroke:#000000;stroke-linejoin:miter;stroke-width:0.1;"/>
   </g>
   <g id="patch_82">
    <path d="M 157.48659 297.765558 
C 159.472652 306.012588 162.37081 314.012901 166.12746 321.618525 
C 169.88411 329.22415 174.475949 336.387903 179.818044 342.977285 
L 268.58871 271.009781 
L 157.48659 297.765558 
z
" style="fill:#ff00ff;fill-opacity:0.8125;stroke:#000000;stroke-linejoin:miter;stroke-width:0.1;"/>
   </g>
   <g id="patch_83">
    <path d="M 179.818044 342.977285 
C 180.448351 343.754758 181.088845 344.523917 181.73936 345.284563 
C 182.389875 346.045208 183.050355 346.797275 183.720628 347.540568 
L 268.58871 271.009781 
L 179.818044 342.977285 
z
" style="fill:#ff00ff;fill-opacity:0.875;stroke:#000000;stroke-linejoin:miter;stroke-width:0.1;"/>
   </g>
   <g id="patch_84">
    <path d="M 183.720628 347.540568 
C 184.410085 348.305135 185.109842 349.060349 185.819707 349.806005 
C 186.529573 350.551661 187.249482 351.28769 187.979238 352.013891 
L 268.58871 271.009781 
L 183.720628 347.540568 
z
" style="fill:#ff00ff;fill-opacity:0.9375;stroke:#000000;stroke-linejoin:miter;stroke-width:0.1;"/>
   </g>
   <g id="patch_85">
    <path d="M 187.979238 352.013891 
C 189.078003 353.107303 190.198901 354.178245 191.341237 355.226054 
C 192.483573 356.273863 193.647109 357.29832 194.831124 358.298791 
L 268.58871 271.009781 
L 187.979238 352.013891 
z
" style="fill:#ff00ff;stroke:#000000;stroke-linejoin:miter;stroke-width:0.1;"/>
   </g>
   <g id="patch_86">
    <path d="M 194.831124 358.298791 
C 194.831124 358.298791 194.831124 358.298791 194.831124 358.298791 
L 268.58871 271.009781 
L 194.831124 358.298791 
z
" style="fill:#ff00ff;fill-opacity:0.5625;stroke:#000000;stroke-linejoin:miter;stroke-width:0.1;"/>
   </g>
   <g id="patch_87">
    <path d="M 194.831124 358.298791 
C 194.831124 358.298791 194.831124 358.298791 194.831124 358.298791 
L 268.58871 271.009781 
L 194.831124 358.298791 
z
" style="fill:#ff00ff;fill-opacity:0.625;stroke:#000000;stroke-linejoin:miter;stroke-width:0.1;"/>
   </g>
   <g id="patch_88">
    <path d="M 194.831124 358.298791 
C 194.831124 358.298791 194.831124 358.298791 194.831124 358.298791 
L 268.58871 271.009781 
L 194.831124 358.298791 
z
" style="fill:#ff00ff;fill-opacity:0.6875;stroke:#000000;stroke-linejoin:miter;stroke-width:0.1;"/>
   </g>
   <g id="patch_89">
    <path d="M 194.831124 358.298791 
C 194.831124 358.298791 194.831124 358.298791 194.831124 358.298791 
L 268.58871 271.009781 
L 194.831124 358.298791 
z
" style="fill:#ff00ff;fill-opacity:0.75;stroke:#000000;stroke-linejoin:miter;stroke-width:0.1;"/>
   </g>
   <g id="patch_90">
    <path d="M 194.831124 358.298791 
C 195.645359 358.986805 196.469181 359.663391 197.302348 360.328353 
C 198.135515 360.993315 198.977945 361.646586 199.829391 362.287975 
L 268.58871 271.009781 
L 194.831124 358.298791 
z
" style="fill:#00ff00;fill-opacity:0.6875;stroke:#000000;stroke-linejoin:miter;stroke-width:0.1;"/>
   </g>
   <g id="patch_91">
    <path d="M 199.829391 362.287975 
C 201.400169 363.471233 203.001229 364.613748 204.630971 365.714376 
C 206.260713 366.815005 207.918595 367.873382 209.602958 368.88845 
L 268.58871 271.009781 
L 199.829391 362.287975 
z
" style="fill:#00ff00;fill-opacity:0.75;stroke:#000000;stroke-linejoin:miter;stroke-width:0.1;"/>
   </g>
   <g id="patch_92">
    <path d="M 209.602958 368.88845 
C 211.521612 370.04471 213.473849 371.144306 215.457139 372.18581 
C 217.440429 373.227315 219.453914 374.210279 221.494984 375.133427 
L 268.58871 271.009781 
L 209.602958 368.88845 
z
" style="fill:#00ff00;fill-opacity:0.8125;stroke:#000000;stroke-linejoin:miter;stroke-width:0.1;"/>
   </g>
   <g id="patch_93">
    <path d="M 221.494984 375.133427 
C 223.570833 376.072306 225.674294 376.948897 227.802547 377.762025 
C 229.9308 378.575154 232.082894 379.324456 234.255942 380.008927 
L 268.58871 271.009781 
L 221.494984 375.133427 
z
" style="fill:#00ff00;fill-opacity:0.875;stroke:#000000;stroke-linejoin:miter;stroke-width:0.1;"/>
   </g>
   <g id="patch_94">
    <path d="M 234.255942 380.008927 
C 236.621631 380.754076 239.010952 381.422012 241.420108 382.011672 
C 243.829264 382.601332 246.256978 383.112405 248.699393 383.544077 
L 268.58871 271.009781 
L 234.255942 380.008927 
z
" style="fill:#00ff00;fill-opacity:0.9375;stroke:#000000;stroke-linejoin:miter;stroke-width:0.1;"/>
   </g>
   <g id="patch_95">
    <path d="M 248.699393 383.544077 
C 251.179032 383.982329 253.672478 384.338504 256.175648 384.61202 
C 258.678818 384.885535 261.190344 385.076242 263.706114 385.183828 
L 268.58871 271.009781 
L 248.699393 383.544077 
z
" style="fill:#00ff00;stroke:#000000;stroke-linejoin:miter;stroke-width:0.1;"/>
   </g>
   <g id="patch_96">
    <path d="M 263.706114 385.183828 
C 263.706114 385.183828 263.706114 385.183828 263.706114 385.183828 
L 268.58871 271.009781 
L 263.706114 385.183828 
z
" style="fill:#00ff00;fill-opacity:0.5625;stroke:#000000;stroke-linejoin:miter;stroke-width:0.1;"/>
   </g>
   <g id="patch_97">
    <path d="M 263.706114 385.183828 
C 263.706114 385.183828 263.706114 385.183828 263.706114 385.183828 
L 268.58871 271.009781 
L 263.706114 385.183828 
z
" style="fill:#00ff00;fill-opacity:0.625;stroke:#000000;stroke-linejoin:miter;stroke-width:0.1;"/>
   </g>
   <g id="patch_98">
    <path d="M 263.706114 385.183828 
C 273.567273 385.605535 283.441645 384.747916 293.08244 382.632404 
C 302.723234 380.516892 312.049458 377.161259 320.828023 372.649374 
L 268.58871 271.009781 
L 263.706114 385.183828 
z
" style="fill:#ffb6c1;fill-opacity:0.8125;stroke:#000000;stroke-linejoin:miter;stroke-width:0.1;"/>
   </g>
   <g id="patch_99">
    <path d="M 320.828023 372.649374 
C 321.6955 372.20352 322.557234 371.746578 323.413013 371.278662 
C 324.268792 370.810745 325.118545 370.331892 325.962064 369.84222 
L 268.58871 271.009781 
L 320.828023 372.649374 
z
" style="fill:#ffb6c1;fill-opacity:0.875;stroke:#000000;stroke-linejoin:miter;stroke-width:0.1;"/>
   </g>
   <g id="patch_100">
    <path d="M 325.962064 369.84222 
C 326.805756 369.352447 327.643142 368.851891 328.474015 368.340675 
C 329.304889 367.829459 330.129182 367.307624 330.946693 366.7753 
L 268.58871 271.009781 
L 325.962064 369.84222 
z
" style="fill:#ffb6c1;fill-opacity:0.9375;stroke:#000000;stroke-linejoin:miter;stroke-width:0.1;"/>
   </g>
   <g id="patch_101">
    <path d="M 330.946693 366.7753 
C 331.767766 366.240656 332.581929 365.695475 333.38898 365.139892 
C 334.196031 364.584308 334.995904 364.018368 335.788399 363.442213 
L 268.58871 271.009781 
L 330.946693 366.7753 
z
" style="fill:#ffb6c1;stroke:#000000;stroke-linejoin:miter;stroke-width:0.1;"/>
   </g>
   <g id="patch_102">
    <path d="M 335.788399 363.442213 
C 335.788399 363.442213 335.788399 363.442213 335.788399 363.442213 
L 268.58871 271.009781 
L 335.788399 363.442213 
z
" style="fill:#ffb6c1;fill-opacity:0.5625;stroke:#000000;stroke-linejoin:miter;stroke-width:0.1;"/>
   </g>
   <g id="patch_103">
    <path d="M 335.788399 363.442213 
C 335.788399 363.442213 335.788399 363.442213 335.788399 363.442213 
L 268.58871 271.009781 
L 335.788399 363.442213 
z
" style="fill:#ffb6c1;fill-opacity:0.625;stroke:#000000;stroke-linejoin:miter;stroke-width:0.1;"/>
   </g>
   <g id="patch_104">
    <path d="M 335.788399 363.442213 
C 335.788399 363.442213 335.788399 363.442213 335.788399 363.442213 
L 268.58871 271.009781 
L 335.788399 363.442213 
z
" style="fill:#ffb6c1;fill-opacity:0.6875;stroke:#000000;stroke-linejoin:miter;stroke-width:0.1;"/>
   </g>
   <g id="patch_105">
    <path d="M 335.788399 363.442213 
C 335.788399 363.442213 335.788399 363.442213 335.788399 363.442213 
L 268.58871 271.009781 
L 335.788399 363.442213 
z
" style="fill:#ffb6c1;fill-opacity:0.75;stroke:#000000;stroke-linejoin:miter;stroke-width:0.1;"/>
   </g>
   <g id="patch_106">
    <path d="M 335.788399 363.442213 
C 342.133788 358.829025 347.98731 353.574668 353.256291 347.762327 
C 358.525273 341.949987 363.181761 335.610499 367.152035 328.844231 
L 268.58871 271.009781 
L 335.788399 363.442213 
z
" style="fill:#2e8b57;fill-opacity:0.6875;stroke:#000000;stroke-linejoin:miter;stroke-width:0.1;"/>
   </g>
   <g id="patch_107">
    <path d="M 367.152035 328.844231 
C 367.64738 328.000048 368.13186 327.149536 368.605353 326.292905 
C 369.078846 325.436275 369.541315 324.573596 369.992644 323.705084 
L 268.58871 271.009781 
L 367.152035 328.844231 
z
" style="fill:#2e8b57;fill-opacity:0.75;stroke:#000000;stroke-linejoin:miter;stroke-width:0.1;"/>
   </g>
   <g id="patch_108">
    <path d="M 369.992644 323.705084 
C 370.489204 322.74953 370.972233 321.787005 371.441586 320.817797 
C 371.910939 319.84859 372.366569 318.872796 372.80834 317.89071 
L 268.58871 271.009781 
L 369.992644 323.705084 
z
" style="fill:#2e8b57;fill-opacity:0.8125;stroke:#000000;stroke-linejoin:miter;stroke-width:0.1;"/>
   </g>
   <g id="patch_109">
    <path d="M 372.80834 317.89071 
C 373.258334 316.890341 373.693901 315.883546 374.114906 314.870636 
C 374.535911 313.857727 374.942311 312.838808 375.333978 311.814197 
L 268.58871 271.009781 
L 372.80834 317.89071 
z
" style="fill:#2e8b57;fill-opacity:0.875;stroke:#000000;stroke-linejoin:miter;stroke-width:0.1;"/>
   </g>
   <g id="patch_110">
    <path d="M 375.333978 311.814197 
C 375.744345 310.740668 376.138494 309.661009 376.516291 308.575589 
C 376.894087 307.49017 377.255488 306.399113 377.600371 305.302791 
L 268.58871 271.009781 
L 375.333978 311.814197 
z
" style="fill:#2e8b57;fill-opacity:0.9375;stroke:#000000;stroke-linejoin:miter;stroke-width:0.1;"/>
   </g>
   <g id="patch_111">
    <path d="M 377.600371 305.302791 
C 377.981319 304.091819 378.342063 302.874584 378.682452 301.651591 
C 379.022841 300.428599 379.342828 299.20002 379.642279 297.966366 
L 268.58871 271.009781 
L 377.600371 305.302791 
z
" style="fill:#2e8b57;stroke:#000000;stroke-linejoin:miter;stroke-width:0.1;"/>
   </g>
   <g id="patch_112">
    <path d="M 379.642279 297.966366 
C 379.642279 297.966366 379.642279 297.966366 379.642279 297.966366 
L 268.58871 271.009781 
L 379.642279 297.966366 
z
" style="fill:#2e8b57;fill-opacity:0.5625;stroke:#000000;stroke-linejoin:miter;stroke-width:0.1;"/>
   </g>
   <g id="patch_113">
    <path d="M 379.642279 297.966366 
C 379.642279 297.966366 379.642279 297.966366 379.642279 297.966366 
L 268.58871 271.009781 
L 379.642279 297.966366 
z
" style="fill:#2e8b57;fill-opacity:0.625;stroke:#000000;stroke-linejoin:miter;stroke-width:0.1;"/>
   </g>
   <g id="patch_114">
    <path d="M 379.642279 297.966366 
C 380.875569 292.885557 381.758729 287.726096 382.285532 282.524356 
C 382.812334 277.322616 382.98154 272.09085 382.791955 266.865941 
L 268.58871 271.009781 
L 379.642279 297.966366 
z
" style="fill:#9fb6cd;fill-opacity:0.5625;stroke:#000000;stroke-linejoin:miter;stroke-width:0.1;"/>
   </g>
   <g id="patch_115">
    <path d="M 382.791955 266.865941 
C 382.755652 265.865441 382.706203 264.865461 382.643621 263.86626 
C 382.581039 262.867059 382.505329 261.868724 382.416511 260.871513 
L 268.58871 271.009781 
L 382.791955 266.865941 
z
" style="fill:#9fb6cd;fill-opacity:0.625;stroke:#000000;stroke-linejoin:miter;stroke-width:0.1;"/>
   </g>
   <g id="patch_116">
    <path d="M 382.416511 260.871513 
C 382.324398 259.837311 382.218194 258.804413 382.09793 257.773106 
C 381.977666 256.741798 381.843353 255.712178 381.695027 254.684531 
L 268.58871 271.009781 
L 382.416511 260.871513 
z
" style="fill:#9fb6cd;fill-opacity:0.6875;stroke:#000000;stroke-linejoin:miter;stroke-width:0.1;"/>
   </g>
   <g id="patch_117">
    <path d="M 381.695027 254.684531 
C 381.499974 253.333146 381.280717 251.985364 381.037363 250.641836 
C 380.794008 249.298308 380.526594 247.95925 380.23525 246.625305 
L 268.58871 271.009781 
L 381.695027 254.684531 
z
" style="fill:#9fb6cd;fill-opacity:0.75;stroke:#000000;stroke-linejoin:miter;stroke-width:0.1;"/>
   </g>
   <g id="patch_118">
    <path d="M 380.23525 246.625305 
C 379.936382 245.256907 379.61238 243.894119 379.263411 242.537632 
C 378.914441 241.181145 378.540563 239.831189 378.141964 238.488447 
L 268.58871 271.009781 
L 380.23525 246.625305 
z
" style="fill:#9fb6cd;fill-opacity:0.8125;stroke:#000000;stroke-linejoin:miter;stroke-width:0.1;"/>
   </g>
   <g id="patch_119">
    <path d="M 378.141964 238.488447 
C 377.660413 236.866266 377.142891 235.25498 376.589782 233.655782 
C 376.036672 232.056585 375.448111 230.469869 374.824534 228.89681 
L 268.58871 271.009781 
L 378.141964 238.488447 
z
" style="fill:#9fb6cd;fill-opacity:0.875;stroke:#000000;stroke-linejoin:miter;stroke-width:0.1;"/>
   </g>
   <g id="patch_120">
    <path d="M 374.824534 228.89681 
C 374.198328 227.317117 373.536965 225.751587 372.840939 224.20139 
C 372.144913 222.651192 371.414397 221.116711 370.649936 219.599093 
L 268.58871 271.009781 
L 374.824534 228.89681 
z
" style="fill:#9fb6cd;fill-opacity:0.9375;stroke:#000000;stroke-linejoin:miter;stroke-width:0.1;"/>
   </g>
   <g id="patch_121">
    <path d="M 370.649936 219.599093 
C 369.875817 218.062301 369.067086 216.543189 368.224362 215.04292 
C 367.381638 213.542651 366.505136 212.061608 365.595527 210.600923 
L 268.58871 271.009781 
L 370.649936 219.599093 
z
" style="fill:#9fb6cd;stroke:#000000;stroke-linejoin:miter;stroke-width:0.1;"/>
   </g>
   <g id="patch_122">
    <path d="M 365.595527 210.600923 
C 358.639382 199.430484 349.805787 189.545029 339.484966 181.38125 
C 329.164145 173.217471 317.510346 166.897376 305.038377 162.700158 
L 268.58871 271.009781 
L 365.595527 210.600923 
z
" style="fill:#da70d6;fill-opacity:0.625;stroke:#000000;stroke-linejoin:miter;stroke-width:0.1;"/>
   </g>
   <g id="patch_123">
    <path d="M 305.038377 162.700158 
C 304.114346 162.389192 303.186374 162.090063 302.254687 161.802846 
C 301.323001 161.515629 300.387678 161.240346 299.448946 160.977065 
L 268.58871 271.009781 
L 305.038377 162.700158 
z
" style="fill:#da70d6;fill-opacity:0.6875;stroke:#000000;stroke-linejoin:miter;stroke-width:0.1;"/>
   </g>
   <g id="patch_124">
    <path d="M 299.448946 160.977065 
C 298.506552 160.712757 297.5608 160.460567 296.611926 160.220558 
C 295.663052 159.980548 294.711134 159.752738 293.756407 159.537185 
L 268.58871 271.009781 
L 299.448946 160.977065 
z
" style="fill:#da70d6;fill-opacity:0.75;stroke:#000000;stroke-linejoin:miter;stroke-width:0.1;"/>
   </g>
   <g id="patch_125">
    <path d="M 293.756407 159.537185 
C 292.786532 159.318211 291.813839 159.111905 290.838579 158.918318 
C 289.863319 158.724732 288.885573 158.543881 287.905593 158.375813 
L 268.58871 271.009781 
L 293.756407 159.537185 
z
" style="fill:#da70d6;fill-opacity:0.8125;stroke:#000000;stroke-linejoin:miter;stroke-width:0.1;"/>
   </g>
   <g id="patch_126">
    <path d="M 287.905593 158.375813 
C 286.866977 158.197689 285.825947 158.033939 284.782801 157.884611 
C 283.739656 157.735283 282.694495 157.60039 281.647618 157.479972 
L 268.58871 271.009781 
L 287.905593 158.375813 
z
" style="fill:#da70d6;fill-opacity:0.875;stroke:#000000;stroke-linejoin:miter;stroke-width:0.1;"/>
   </g>
   <g id="patch_127">
    <path d="M 281.647618 157.479972 
C 280.588959 157.358198 279.528648 157.251238 278.466997 157.159124 
C 277.405346 157.067009 276.342458 156.989749 275.278645 156.927366 
L 268.58871 271.009781 
L 281.647618 157.479972 
z
" style="fill:#da70d6;fill-opacity:0.9375;stroke:#000000;stroke-linejoin:miter;stroke-width:0.1;"/>
   </g>
   <g id="patch_128">
    <path d="M 275.278645 156.927366 
C 274.164904 156.862055 273.050266 156.813056 271.935089 156.780387 
C 270.819913 156.747718 269.704318 156.731381 268.588663 156.731381 
L 268.58871 271.009781 
L 275.278645 156.927366 
z
" style="fill:#da70d6;stroke:#000000;stroke-linejoin:miter;stroke-width:0.1;"/>
   </g>
   <g id="patch_129">
    <path d="M 268.588663 156.731381 
C 268.588663 156.731381 268.588663 156.731381 268.588663 156.731381 
L 268.58871 271.009781 
L 268.588663 156.731381 
z
" style="fill:#da70d6;fill-opacity:0.5625;stroke:#000000;stroke-linejoin:miter;stroke-width:0.1;"/>
   </g>
   <g id="patch_130">
    <path d="M 268.58871 171.016181 
C 267.733748 171.016181 266.878822 171.027146 266.024141 171.049074 
C 265.169461 171.071001 264.315096 171.103889 263.46126 171.14773 
L 268.58871 271.009781 
L 268.58871 171.016181 
z
" style="fill:#7fffd4;stroke:#000000;stroke-linejoin:miter;stroke-width:0.1;"/>
   </g>
   <g id="patch_131">
    <path d="M 263.46126 171.14773 
C 262.286165 171.208065 261.112227 171.289138 259.939993 171.390909 
C 258.76776 171.49268 257.597415 171.615134 256.429504 171.758213 
L 268.58871 271.009781 
L 263.46126 171.14773 
z
" style="fill:#ff1493;stroke:#000000;stroke-linejoin:miter;stroke-width:0.1;"/>
   </g>
   <g id="patch_132">
    <path d="M 256.429504 171.758213 
C 255.175423 171.911849 253.924367 172.08924 252.67701 172.29029 
C 251.429652 172.491341 250.186218 172.716014 248.947375 172.96419 
L 268.58871 271.009781 
L 256.429504 171.758213 
z
" style="fill:#00bfff;stroke:#000000;stroke-linejoin:miter;stroke-width:0.1;"/>
   </g>
   <g id="patch_133">
    <path d="M 248.947375 172.96419 
C 247.357888 173.282609 245.776378 173.639635 244.20425 174.034949 
C 242.632121 174.430262 241.069838 174.863748 239.518786 175.335022 
L 268.58871 271.009781 
L 248.947375 172.96419 
z
" style="fill:#ff7f50;stroke:#000000;stroke-linejoin:miter;stroke-width:0.1;"/>
   </g>
   <g id="patch_134">
    <path d="M 239.518786 175.335022 
C 237.958869 175.808989 236.410777 176.321035 234.875898 176.870701 
C 233.341019 177.420367 231.819813 178.007489 230.313644 178.63154 
L 268.58871 271.009781 
L 239.518786 175.335022 
z
" style="fill:#ffff00;stroke:#000000;stroke-linejoin:miter;stroke-width:0.1;"/>
   </g>
   <g id="patch_135">
    <path d="M 230.313644 178.63154 
C 228.267684 179.479242 226.250451 180.39468 224.265283 181.376339 
C 222.280114 182.357998 220.328105 183.405337 218.412487 184.516621 
L 268.58871 271.009781 
L 230.313644 178.63154 
z
" style="fill:#9acd32;stroke:#000000;stroke-linejoin:miter;stroke-width:0.1;"/>
   </g>
   <g id="patch_136">
    <path d="M 218.412487 184.516621 
C 216.354437 185.710532 214.339656 186.977518 212.37199 188.315159 
C 210.404325 189.6528 208.485028 191.060244 206.617767 192.534803 
L 268.58871 271.009781 
L 218.412487 184.516621 
z
" style="fill:#cd3333;stroke:#000000;stroke-linejoin:miter;stroke-width:0.1;"/>
   </g>
   <g id="patch_137">
    <path d="M 206.617767 192.534803 
C 203.979795 194.617983 201.448542 196.832855 199.033649 199.170979 
C 196.618755 201.509103 194.323293 203.967507 192.156006 206.536827 
L 268.58871 271.009781 
L 206.617767 192.534803 
z
" style="fill:#00ffff;stroke:#000000;stroke-linejoin:miter;stroke-width:0.1;"/>
   </g>
   <g id="patch_138">
    <path d="M 192.156006 206.536827 
C 187.994402 211.470409 184.320237 216.795358 181.184965 222.4371 
C 178.049692 228.078842 175.468018 234.010917 173.476095 240.150252 
L 268.58871 271.009781 
L 192.156006 206.536827 
z
" style="fill:#b8860b;stroke:#000000;stroke-linejoin:miter;stroke-width:0.1;"/>
   </g>
   <g id="patch_139">
    <path d="M 173.476095 240.150252 
C 170.642555 248.883549 169.025313 257.965646 168.670009 267.140241 
C 168.314706 276.314836 169.224715 285.494805 171.374355 294.421086 
L 268.58871 271.009781 
L 173.476095 240.150252 
z
" style="fill:#f5deb3;stroke:#000000;stroke-linejoin:miter;stroke-width:0.1;"/>
   </g>
   <g id="patch_140">
    <path d="M 171.374355 294.421086 
C 173.849003 304.69695 177.937362 314.515762 183.486937 323.511289 
C 189.036512 332.506815 195.977437 340.565804 204.050821 347.387663 
L 268.58871 271.009781 
L 171.374355 294.421086 
z
" style="fill:#ff00ff;stroke:#000000;stroke-linejoin:miter;stroke-width:0.1;"/>
   </g>
   <g id="patch_141">
    <path d="M 204.050821 347.387663 
C 212.456469 354.49028 221.977255 360.156819 232.228578 364.158377 
C 242.479902 368.159934 253.321843 370.441893 264.316434 370.912072 
L 268.58871 271.009781 
L 204.050821 347.387663 
z
" style="fill:#00ff00;stroke:#000000;stroke-linejoin:miter;stroke-width:0.1;"/>
   </g>
   <g id="patch_142">
    <path d="M 264.316434 370.912072 
C 275.521105 371.391234 286.726966 369.981989 297.464097 366.743433 
C 308.201229 363.504876 318.317416 358.48292 327.388436 351.888161 
L 268.58871 271.009781 
L 264.316434 370.912072 
z
" style="fill:#ffb6c1;stroke:#000000;stroke-linejoin:miter;stroke-width:0.1;"/>
   </g>
   <g id="patch_143">
    <path d="M 327.388436 351.888161 
C 336.903135 344.97084 345.122967 336.428481 351.669153 326.654727 
C 358.215339 316.880972 362.985758 306.028293 365.760583 294.596794 
L 268.58871 271.009781 
L 327.388436 351.888161 
z
" style="fill:#2e8b57;stroke:#000000;stroke-linejoin:miter;stroke-width:0.1;"/>
   </g>
   <g id="patch_144">
    <path d="M 365.760583 294.596794 
C 368.896483 281.677763 369.424743 268.262124 367.314387 255.136514 
C 365.204032 242.010904 360.49713 229.436982 353.469675 218.152031 
L 268.58871 271.009781 
L 365.760583 294.596794 
z
" style="fill:#9fb6cd;stroke:#000000;stroke-linejoin:miter;stroke-width:0.1;"/>
   </g>
   <g id="patch_145">
    <path d="M 353.469675 218.152031 
C 344.490651 203.733176 331.983939 191.83724 317.133945 183.590789 
C 302.283951 175.344338 285.574728 171.016174 268.588667 171.016181 
L 268.58871 271.009781 
L 353.469675 218.152031 
z
" style="fill:#da70d6;stroke:#000000;stroke-linejoin:miter;stroke-width:0.1;"/>
   </g>
   <g id="matplotlib.axis_1"/>
   <g id="matplotlib.axis_2"/>
   <g id="text_1">
    <text style="font-family:Arial;font-size:6.5px;font-style:normal;font-weight:normal;" transform="translate(258.906991 74.891258)rotate(-271.469645)">single-organism process</text>
   </g>
   <g id="text_2">
    <text style="font-family:Arial;font-size:6.5px;font-style:normal;font-weight:normal;" transform="translate(247.987604 86.990028)rotate(-274.961866)">biosynthetic process</text>
   </g>
   <g id="text_3">
    <text style="font-family:Arial;font-size:6.5px;font-style:normal;font-weight:normal;" transform="translate(226.514922 38.255332)rotate(-279.156238)">nitrogen compound metabolic process</text>
   </g>
   <g id="text_4">
    <text style="font-family:Arial;font-size:6.5px;font-style:normal;font-weight:normal;" transform="translate(222.41041 104.992041)rotate(-284.114486)">cellular process</text>
   </g>
   <g id="text_5">
    <text style="font-family:Arial;font-size:6.5px;font-style:normal;font-weight:normal;" transform="translate(210.985429 121.954933)rotate(-289.703313)">localization</text>
   </g>
   <g id="text_6">
    <text style="font-family:Arial;font-size:6.5px;font-style:normal;font-weight:normal;" transform="translate(150.081389 39.184797)rotate(-296.312236)">cellular component organization or biogenesis</text>
   </g>
   <g id="text_7">
    <text style="font-family:Arial;font-size:6.5px;font-style:normal;font-weight:normal;" transform="translate(164.619899 123.005605)rotate(-304.208299)">metabolic process</text>
   </g>
   <g id="text_8">
    <text style="font-family:Arial;font-size:6.5px;font-style:normal;font-weight:normal;" transform="translate(147.333386 126.957843)rotate(-309.411602)">additional categories</text>
   </g>
   <g id="text_9">
    <text style="font-family:Arial;font-size:6.5px;font-style:normal;font-weight:normal;" transform="translate(114.151632 106.217962)rotate(-312.654192)">small molecule metabolic process</text>
   </g>
   <g id="text_10">
    <text style="font-family:Arial;font-size:6.5px;font-style:normal;font-weight:normal;" transform="translate(114.59623 130.954568)rotate(-317.317251)">oxidation-reduction process</text>
   </g>
   <g id="text_11">
    <text style="font-family:Arial;font-size:6.5px;font-style:normal;font-weight:normal;" transform="translate(106.989136 174.992638)rotate(-329.21899)">additional categories</text>
   </g>
   <g id="text_12">
    <text style="font-family:Arial;font-size:6.5px;font-style:normal;font-weight:normal;" transform="translate(98.670576 209.5331)rotate(-340.305344)">response to stress</text>
   </g>
   <g id="text_13">
    <text style="font-family:Arial;font-size:6.5px;font-style:normal;font-weight:normal;" transform="translate(86.956824 228.034751)rotate(-347.014973)">additional categories</text>
   </g>
   <g id="text_14">
    <text style="font-family:Arial;font-size:6.5px;font-style:normal;font-weight:normal;" transform="translate(7.348284 241.220908)rotate(-353.77744)">organonitrogen compound biosynthetic process</text>
   </g>
   <g id="text_15">
    <text style="font-family:Arial;font-size:6.5px;font-style:normal;font-weight:normal;" transform="translate(67.363415 260.843045)rotate(-357.471725)">peptide metabolic process</text>
   </g>
   <g id="text_16">
    <text style="font-family:Arial;font-size:6.5px;font-style:normal;font-weight:normal;" transform="translate(48.631155 281.04259)rotate(-1.401757)">cellular amide metabolic process</text>
   </g>
   <g id="text_17">
    <text style="font-family:Arial;font-size:6.5px;font-style:normal;font-weight:normal;" transform="translate(11.694809 300.189545)rotate(-5.461255)">cellular nitrogen compound metabolic process</text>
   </g>
   <g id="text_18">
    <text style="font-family:Arial;font-size:6.5px;font-style:normal;font-weight:normal;" transform="translate(16.868253 322.312869)rotate(-10.526763)">organonitrogen compound metabolic process</text>
   </g>
   <g id="text_19">
    <text style="font-family:Arial;font-size:6.5px;font-style:normal;font-weight:normal;" transform="translate(101.821296 357.253531)rotate(-26.286175)">additional categories</text>
   </g>
   <g id="text_20">
    <text style="font-family:Arial;font-size:6.5px;font-style:normal;font-weight:normal;" transform="translate(112.913146 406.963495)rotate(-40.537526)">macromolecule localization</text>
   </g>
   <g id="text_21">
    <text style="font-family:Arial;font-size:6.5px;font-style:normal;font-weight:normal;" transform="translate(137.141196 398.669766)rotate(-43.59142)">cellular localization</text>
   </g>
   <g id="text_22">
    <text style="font-family:Arial;font-size:6.5px;font-style:normal;font-weight:normal;" transform="translate(165.327067 385.694095)rotate(-47.471361)">transport</text>
   </g>
   <g id="text_23">
    <text style="font-family:Arial;font-size:6.5px;font-style:normal;font-weight:normal;" transform="translate(134.174419 441.061912)rotate(-51.406159)">phosphorus metabolic process</text>
   </g>
   <g id="text_24">
    <text style="font-family:Arial;font-size:6.5px;font-style:normal;font-weight:normal;" transform="translate(154.649142 440.649465)rotate(-55.967295)">primary metabolic process</text>
   </g>
   <g id="text_25">
    <text style="font-family:Arial;font-size:6.5px;font-style:normal;font-weight:normal;" transform="translate(159.2139 479.14395)rotate(-62.294244)">organic substance metabolic process</text>
   </g>
   <g id="text_26">
    <text style="font-family:Arial;font-size:6.5px;font-style:normal;font-weight:normal;" transform="translate(186.732801 483.572163)rotate(-69.089956)">single-organism metabolic process</text>
   </g>
   <g id="text_27">
    <text style="font-family:Arial;font-size:6.5px;font-style:normal;font-weight:normal;" transform="translate(215.303007 484.394455)rotate(-76.24678)">single-organism cellular process</text>
   </g>
   <g id="text_28">
    <text style="font-family:Arial;font-size:6.5px;font-style:normal;font-weight:normal;" transform="translate(245.527694 470.812592)rotate(-83.764158)">cellular metabolic process</text>
   </g>
   <g id="text_29">
    <text style="font-family:Arial;font-size:6.5px;font-style:normal;font-weight:normal;" transform="translate(296.868067 394.791871)rotate(-282.376449)">additional categories</text>
   </g>
   <g id="text_30">
    <text style="font-family:Arial;font-size:6.5px;font-style:normal;font-weight:normal;" transform="translate(330.028946 383.537593)rotate(-298.668642)">purine ribonucleoside monophosphate metabolic process</text>
   </g>
   <g id="text_31">
    <text style="font-family:Arial;font-size:6.5px;font-style:normal;font-weight:normal;" transform="translate(335.627711 380.511855)rotate(-301.602964)">cell cycle</text>
   </g>
   <g id="text_32">
    <text style="font-family:Arial;font-size:6.5px;font-style:normal;font-weight:normal;" transform="translate(340.933113 377.191094)rotate(-304.543979)">cell death</text>
   </g>
   <g id="text_33">
    <text style="font-family:Arial;font-size:6.5px;font-style:normal;font-weight:normal;" transform="translate(362.641868 358.884625)rotate(-317.807179)">additional categories</text>
   </g>
   <g id="text_34">
    <text style="font-family:Arial;font-size:6.5px;font-style:normal;font-weight:normal;" transform="translate(379.231972 335.893162)rotate(-331.068849)">protein metabolic process</text>
   </g>
   <g id="text_35">
    <text style="font-family:Arial;font-size:6.5px;font-style:normal;font-weight:normal;" transform="translate(382.289935 329.986014)rotate(-334.160732)">macromolecule metabolic process</text>
   </g>
   <g id="text_36">
    <text style="font-family:Arial;font-size:6.5px;font-style:normal;font-weight:normal;" transform="translate(385.163356 323.552974)rotate(-337.4303)">cellular macromolecule metabolic process</text>
   </g>
   <g id="text_37">
    <text style="font-family:Arial;font-size:6.5px;font-style:normal;font-weight:normal;" transform="translate(387.758756 316.72619)rotate(-340.808784)">cellular biosynthetic process</text>
   </g>
   <g id="text_38">
    <text style="font-family:Arial;font-size:6.5px;font-style:normal;font-weight:normal;" transform="translate(390.058645 309.197982)rotate(-344.4468)">organic substance biosynthetic process</text>
   </g>
   <g id="text_39">
    <text style="font-family:Arial;font-size:6.5px;font-style:normal;font-weight:normal;" transform="translate(393.793057 288.304714)rotate(-354.217122)">additional categories</text>
   </g>
   <g id="text_40">
    <text style="font-family:Arial;font-size:6.5px;font-style:normal;font-weight:normal;" transform="translate(394.344896 261.786536)rotate(-3.583885)">regulation of organelle organization</text>
   </g>
   <g id="text_41">
    <text style="font-family:Arial;font-size:6.5px;font-style:normal;font-weight:normal;" transform="translate(393.996928 255.090599)rotate(-6.651404)">supramolecular fiber organization</text>
   </g>
   <g id="text_42">
    <text style="font-family:Arial;font-size:6.5px;font-style:normal;font-weight:normal;" transform="translate(393.12558 247.258899)rotate(-10.266733)">regulation of cellular component organization</text>
   </g>
   <g id="text_43">
    <text style="font-family:Arial;font-size:6.5px;font-style:normal;font-weight:normal;" transform="translate(391.490058 238.365511)rotate(-14.427056)">cellular component assembly</text>
   </g>
   <g id="text_44">
    <text style="font-family:Arial;font-size:6.5px;font-style:normal;font-weight:normal;" transform="translate(388.91067 228.627483)rotate(-19.07881)">organelle organization</text>
   </g>
   <g id="text_45">
    <text style="font-family:Arial;font-size:6.5px;font-style:normal;font-weight:normal;" transform="translate(385.171856 218.272529)rotate(-24.179687)">cellular component biogenesis</text>
   </g>
   <g id="text_46">
    <text style="font-family:Arial;font-size:6.5px;font-style:normal;font-weight:normal;" transform="translate(380.466487 208.253478)rotate(-29.323584)">macromolecular complex subunit organization</text>
   </g>
   <g id="text_47">
    <text style="font-family:Arial;font-size:6.5px;font-style:normal;font-weight:normal;" transform="translate(350.223608 171.569685)rotate(-51.655969)">additional categories</text>
   </g>
   <g id="text_48">
    <text style="font-family:Arial;font-size:6.5px;font-style:normal;font-weight:normal;" transform="translate(310.067391 150.479131)rotate(-72.866677)">phosphate-containing compound metabolic process</text>
   </g>
   <g id="text_49">
    <text style="font-family:Arial;font-size:6.5px;font-style:normal;font-weight:normal;" transform="translate(304.001572 148.806164)rotate(-75.805233)">positive regulation of cellular process</text>
   </g>
   <g id="text_50">
    <text style="font-family:Arial;font-size:6.5px;font-style:normal;font-weight:normal;" transform="translate(297.704811 147.442815)rotate(-78.77287)">positive regulation of biological process</text>
   </g>
   <g id="text_51">
    <text style="font-family:Arial;font-size:6.5px;font-style:normal;font-weight:normal;" transform="translate(291.086257 146.378232)rotate(-81.853343)">negative regulation of cellular process</text>
   </g>
   <g id="text_52">
    <text style="font-family:Arial;font-size:6.5px;font-style:normal;font-weight:normal;" transform="translate(284.168911 145.655803)rotate(-85.041133)">negative regulation of biological process</text>
   </g>
   <g id="text_53">
    <text style="font-family:Arial;font-size:6.5px;font-style:normal;font-weight:normal;" transform="translate(276.92031 145.319618)rotate(-88.321985)">cellular protein metabolic process</text>
   </g>
   <g id="text_54">
    <text style="font-family:Arial;font-size:6.5px;font-style:normal;font-weight:normal;" transform="translate(207.009738 209.962649)rotate(-314.07466)">GO9</text>
   </g>
   <g id="text_55">
    <text style="font-family:Arial;font-size:6.5px;font-style:normal;font-weight:normal;" transform="translate(193.148105 229.212088)rotate(-330.93786)">GO8</text>
   </g>
   <g id="text_56">
    <text style="font-family:Arial;font-size:6.5px;font-style:normal;font-weight:normal;" transform="translate(184.749684 266.479022)rotate(-357.782221)">GO7</text>
   </g>
   <g id="text_57">
    <text style="font-family:Arial;font-size:6.5px;font-style:normal;font-weight:normal;" transform="translate(196.657208 318.927425)rotate(-31.67152)">GO6</text>
   </g>
   <g id="text_58">
    <text style="font-family:Arial;font-size:6.5px;font-style:normal;font-weight:normal;" transform="translate(236.942004 350.692145)rotate(-68.677038)">GO5</text>
   </g>
   <g id="text_59">
    <text style="font-family:Arial;font-size:6.5px;font-style:normal;font-weight:normal;" transform="translate(290.038319 339.366873)rotate(-286.784473)">GO4</text>
   </g>
   <g id="text_60">
    <text style="font-family:Arial;font-size:6.5px;font-style:normal;font-weight:normal;" transform="translate(327.463929 313.826873)rotate(-326.186936)">GO3</text>
   </g>
   <g id="text_61">
    <text style="font-family:Arial;font-size:6.5px;font-style:normal;font-weight:normal;" transform="translate(338.435248 258.623)rotate(-9.133933)">GO2</text>
   </g>
   <g id="text_62">
    <text style="font-family:Arial;font-size:6.5px;font-style:normal;font-weight:normal;" transform="translate(306.637872 209.189303)rotate(-60.95585)">GO1</text>
   </g>
   <g id="legend_1">
    <g id="text_63">
     <text style="font-family:Arial;font-size:6.5px;font-style:normal;font-weight:normal;text-anchor:start;" transform="rotate(-0, 633.3166, 20.663578)" x="633.3166" y="20.663578">Name &amp; Proportion of Biological process (inner ring)</text>
    </g>
    <g id="patch_146">
     <path d="M 614.27871 30.017484 
L 627.27871 30.017484 
L 627.27871 25.467484 
L 614.27871 25.467484 
z
" style="fill:#da70d6;stroke:#000000;stroke-linejoin:miter;stroke-width:0.1;"/>
    </g>
    <g id="text_64">
     <text style="font-family:Arial;font-size:6.5px;font-style:normal;font-weight:normal;text-anchor:start;" transform="rotate(-0, 632.47871, 30.017484)" x="632.47871" y="30.017484">GO1 negative regulation of cellular process, 16.1%</text>
    </g>
    <g id="patch_147">
     <path d="M 614.27871 39.37139 
L 627.27871 39.37139 
L 627.27871 34.82139 
L 614.27871 34.82139 
z
" style="fill:#9fb6cd;stroke:#000000;stroke-linejoin:miter;stroke-width:0.1;"/>
    </g>
    <g id="text_65">
     <text style="font-family:Arial;font-size:6.5px;font-style:normal;font-weight:normal;text-anchor:start;" transform="rotate(-0, 632.47871, 39.37139)" x="632.47871" y="39.37139">GO2 macromolecular complex subunit organization, 12.7%</text>
    </g>
    <g id="patch_148">
     <path d="M 614.27871 48.725297 
L 627.27871 48.725297 
L 627.27871 44.175297 
L 614.27871 44.175297 
z
" style="fill:#2e8b57;stroke:#000000;stroke-linejoin:miter;stroke-width:0.1;"/>
    </g>
    <g id="text_66">
     <text style="font-family:Arial;font-size:6.5px;font-style:normal;font-weight:normal;text-anchor:start;" transform="rotate(-0, 632.47871, 48.725297)" x="632.47871" y="48.725297">GO3 organic substance biosynthesis, 11.2%</text>
    </g>
    <g id="patch_149">
     <path d="M 614.27871 57.995922 
L 627.27871 57.995922 
L 627.27871 53.445922 
L 614.27871 53.445922 
z
" style="fill:#ffb6c1;stroke:#000000;stroke-linejoin:miter;stroke-width:0.1;"/>
    </g>
    <g id="text_67">
     <text style="font-family:Arial;font-size:6.5px;font-style:normal;font-weight:normal;text-anchor:start;" transform="rotate(-0, 632.47871, 57.995922)" x="632.47871" y="57.995922">GO4 cell death, 10.7%</text>
    </g>
    <g id="patch_150">
     <path d="M 614.27871 67.190375 
L 627.27871 67.190375 
L 627.27871 62.640375 
L 614.27871 62.640375 
z
" style="fill:#00ff00;stroke:#000000;stroke-linejoin:miter;stroke-width:0.1;"/>
    </g>
    <g id="text_68">
     <text style="font-family:Arial;font-size:6.5px;font-style:normal;font-weight:normal;text-anchor:start;" transform="rotate(-0, 632.47871, 67.190375)" x="632.47871" y="67.190375">GO5 cellular metabolism, 10.5%</text>
    </g>
    <g id="patch_151">
     <path d="M 614.27871 76.384828 
L 627.27871 76.384828 
L 627.27871 71.834828 
L 614.27871 71.834828 
z
" style="fill:#ff00ff;stroke:#000000;stroke-linejoin:miter;stroke-width:0.1;"/>
    </g>
    <g id="text_69">
     <text style="font-family:Arial;font-size:6.5px;font-style:normal;font-weight:normal;text-anchor:start;" transform="rotate(-0, 632.47871, 76.384828)" x="632.47871" y="76.384828">GO6 cellular localization, 10.1%</text>
    </g>
    <g id="patch_152">
     <path d="M 614.27871 85.662562 
L 627.27871 85.662562 
L 627.27871 81.112562 
L 614.27871 81.112562 
z
" style="fill:#f5deb3;stroke:#000000;stroke-linejoin:miter;stroke-width:0.1;"/>
    </g>
    <g id="text_70">
     <text style="font-family:Arial;font-size:6.5px;font-style:normal;font-weight:normal;text-anchor:start;" transform="rotate(-0, 632.47871, 85.662562)" x="632.47871" y="85.662562">GO7 purine-containing compound metabolism, 8.8%</text>
    </g>
    <g id="patch_153">
     <path d="M 614.27871 95.016469 
L 627.27871 95.016469 
L 627.27871 90.466469 
L 614.27871 90.466469 
z
" style="fill:#b8860b;stroke:#000000;stroke-linejoin:miter;stroke-width:0.1;"/>
    </g>
    <g id="text_71">
     <text style="font-family:Arial;font-size:6.5px;font-style:normal;font-weight:normal;text-anchor:start;" transform="rotate(-0, 632.47871, 95.016469)" x="632.47871" y="95.016469">GO8 response to stress, 6.2%</text>
    </g>
    <g id="patch_154">
     <path d="M 614.27871 104.294203 
L 627.27871 104.294203 
L 627.27871 99.744203 
L 614.27871 99.744203 
z
" style="fill:#00ffff;stroke:#000000;stroke-linejoin:miter;stroke-width:0.1;"/>
    </g>
    <g id="text_72">
     <text style="font-family:Arial;font-size:6.5px;font-style:normal;font-weight:normal;text-anchor:start;" transform="rotate(-0, 632.47871, 104.294203)" x="632.47871" y="104.294203">GO9 single-organism carbohydrate metabolism, 3.2%</text>
    </g>
    <g id="patch_155">
     <path d="M 614.27871 113.564828 
L 627.27871 113.564828 
L 627.27871 109.014828 
L 614.27871 109.014828 
z
" style="fill:#cd3333;stroke:#000000;stroke-linejoin:miter;stroke-width:0.1;"/>
    </g>
    <g id="text_73">
     <text style="font-family:Arial;font-size:6.5px;font-style:normal;font-weight:normal;text-anchor:start;" transform="rotate(-0, 632.47871, 113.564828)" x="632.47871" y="113.564828">metabolism, 2.3%</text>
    </g>
    <g id="patch_156">
     <path d="M 614.27871 122.8385 
L 627.27871 122.8385 
L 627.27871 118.2885 
L 614.27871 118.2885 
z
" style="fill:#9acd32;stroke:#000000;stroke-linejoin:miter;stroke-width:0.1;"/>
    </g>
    <g id="text_74">
     <text style="font-family:Arial;font-size:6.5px;font-style:normal;font-weight:normal;text-anchor:start;" transform="rotate(-0, 632.47871, 122.8385)" x="632.47871" y="122.8385">cellular component organization or biogenesis, 2.1%</text>
    </g>
    <g id="patch_157">
     <path d="M 614.27871 132.109125 
L 627.27871 132.109125 
L 627.27871 127.559125 
L 614.27871 127.559125 
z
" style="fill:#ffff00;stroke:#000000;stroke-linejoin:miter;stroke-width:0.1;"/>
    </g>
    <g id="text_75">
     <text style="font-family:Arial;font-size:6.5px;font-style:normal;font-weight:normal;text-anchor:start;" transform="rotate(-0, 632.47871, 132.109125)" x="632.47871" y="132.109125">localization, 1.6%</text>
    </g>
    <g id="patch_158">
     <path d="M 614.27871 141.382797 
L 627.27871 141.382797 
L 627.27871 136.832797 
L 614.27871 136.832797 
z
" style="fill:#ff7f50;stroke:#000000;stroke-linejoin:miter;stroke-width:0.1;"/>
    </g>
    <g id="text_76">
     <text style="font-family:Arial;font-size:6.5px;font-style:normal;font-weight:normal;text-anchor:start;" transform="rotate(-0, 632.47871, 141.382797)" x="632.47871" y="141.382797">cellular process, 1.6%</text>
    </g>
    <g id="patch_159">
     <path d="M 614.27871 150.656469 
L 627.27871 150.656469 
L 627.27871 146.106469 
L 614.27871 146.106469 
z
" style="fill:#00bfff;stroke:#000000;stroke-linejoin:miter;stroke-width:0.1;"/>
    </g>
    <g id="text_77">
     <text style="font-family:Arial;font-size:6.5px;font-style:normal;font-weight:normal;text-anchor:start;" transform="rotate(-0, 632.47871, 150.656469)" x="632.47871" y="150.656469">nitrogen compound metabolism, 1.2%</text>
    </g>
    <g id="patch_160">
     <path d="M 614.27871 160.006312 
L 627.27871 160.006312 
L 627.27871 155.456312 
L 614.27871 155.456312 
z
" style="fill:#ff1493;stroke:#000000;stroke-linejoin:miter;stroke-width:0.1;"/>
    </g>
    <g id="text_78">
     <text style="font-family:Arial;font-size:6.5px;font-style:normal;font-weight:normal;text-anchor:start;" transform="rotate(-0, 632.47871, 160.006312)" x="632.47871" y="160.006312">biosynthesis, 1.1%</text>
    </g>
    <g id="patch_161">
     <path d="M 614.27871 169.356156 
L 627.27871 169.356156 
L 627.27871 164.806156 
L 614.27871 164.806156 
z
" style="fill:#7fffd4;stroke:#000000;stroke-linejoin:miter;stroke-width:0.1;"/>
    </g>
    <g id="text_79">
     <text style="font-family:Arial;font-size:6.5px;font-style:normal;font-weight:normal;text-anchor:start;" transform="rotate(-0, 632.47871, 169.356156)" x="632.47871" y="169.356156">single-organism process, 0.8%</text>
    </g>
   </g>
  </g>
 </g>
</svg>
