<?xml version="1.0" encoding="utf-8"?>
<!-- Generator: Adobe Illustrator 22.1.0, SVG Export Plug-In . SVG Version: 6.00 Build 0)  -->
<svg version="1.1" id="Layer_1" xmlns="http://www.w3.org/2000/svg" xmlns:xlink="http://www.w3.org/1999/xlink" x="0px" y="0px"
	 viewBox="0 0 761 252" style="enable-background:new 0 0 761 252;" xml:space="preserve">
<style type="text/css">
	.st0{clip-path:url(#SVGID_2_);}
	.st1{fill:none;}
	.st2{fill:#FFFFFF;}
	.st3{font-family:'TimesNewRomanPS-BoldMT';}
	.st4{font-size:14px;}
	.st5{font-family:'TimesNewRomanPSMT';}
</style>
<g>
	<g>
		<g>
			<defs>
				<rect id="SVGID_1_" x="-48" y="-63.3" width="841.9" height="595.3"/>
			</defs>
			<clipPath id="SVGID_2_">
				<use xlink:href="#SVGID_1_"  style="overflow:visible;"/>
			</clipPath>
			<g class="st0">
				<text transform="matrix(1 0 0 1 780.4805 105.4199)" style="font-family:'Calibri'; font-size:11.04px;"> </text>
			</g>
		</g>
	</g>
</g>
<rect x="275" y="30" class="st1" width="501" height="63"/>
<g>
	<rect x="13" y="-38.4" class="st2" width="743" height="245"/>
	<g>
		<rect x="18" y="12.6" width="733" height="234"/>
		<rect x="31" y="30.3" class="st1" width="738" height="248"/>
		<text transform="matrix(1 0 0 1 30.95 60.06)" class="st2 st3 st4"> (VisualGO_envirom)</text>
		<text transform="matrix(1 0 0 1 162.35 60.06)" class="st2 st5 st4"> C:\Desktop\CirGO-master\CirGO_Wind_Unix&gt; </text>
		<text transform="matrix(1 0 0 1 444.95 60.06)" class="st2 st3 st4">python CirGO.py -int</text>
		<text transform="matrix(1 0 0 1 30.95 80.06)" class="st2 st5 st4"> [&apos;-int&apos;]</text>
		<text transform="matrix(1 0 0 1 30.95 100.06)" class="st2 st5 st4"> Input file from REVIGO as CSV [str]:  </text>
		<text transform="matrix(1 0 0 1 260.65 100.06)" class="st2 st3 st4">&quot;C:/Desktop/CirGO-master/docs/Example_REVIGO_Input_BP.csv&quot;</text>
		<text transform="matrix(1 0 0 1 30.95 120.06)" class="st2 st5 st4"> Font Size (Example - 7.0) [float]:  </text>
		<text transform="matrix(1 0 0 1 221.55 120.06)" class="st2 st3 st4">   6.5</text>
		<text transform="matrix(1 0 0 1 30.95 140.06)" class="st2 st5 st4"> Number of Categories (Example - 40) [int]:  </text>
		<text transform="matrix(1 0 0 1 279.15 140.06)" class="st2 st3 st4">  30</text>
		<text transform="matrix(1 0 0 1 30.95 160.06)" class="st2 st5 st4"> Legend name. Example: &quot;Name &amp; Proportion of Biological process (inner ring)&quot; [str]: </text>
		<text transform="matrix(1 0 0 1 529.65 160.06)" class="st2 st3 st4">&quot;Name &amp; Proportion of Biological </text>
		<text transform="matrix(1 0 0 1 30.95 180.06)" class="st2 st3 st4">process (inner ring)&quot;</text>
		<text transform="matrix(1 0 0 1 30.95 200.06)" class="st2 st5 st4"> Output file in svg format (Example: input filename + svg) [str]: </text>
		<text transform="matrix(1 0 0 1 389.05 200.06)" class="st2 st3 st4">&quot;C:/Desktop/CirGO-master/docs/testINT.svg&quot;</text>
	</g>
	<rect x="31" y="221" class="st1" width="725" height="42"/>
	<text transform="matrix(1 0 0 1 30.95 230.2822)"><tspan x="0" y="0" class="st2 st3 st4">NOTE:</tspan><tspan x="44.3" y="0" class="st2 st3 st4"> </tspan><tspan x="47.9" y="0" class="st2 st3 st4">“C:\Desktop\CirGO-master\docs\testINT.svg” is changed to “C:/Desktop/CirGO-master/docs/testINT.svg”</tspan></text>
</g>
</svg>
